%TF.GenerationSoftware,KiCad,Pcbnew,(6.0.10)*%
%TF.CreationDate,2024-08-19T09:21:52-04:00*%
%TF.ProjectId,ExoFlex_Kicad,45786f46-6c65-4785-9f4b-696361642e6b,rev?*%
%TF.SameCoordinates,Original*%
%TF.FileFunction,Legend,Bot*%
%TF.FilePolarity,Positive*%
%FSLAX46Y46*%
G04 Gerber Fmt 4.6, Leading zero omitted, Abs format (unit mm)*
G04 Created by KiCad (PCBNEW (6.0.10)) date 2024-08-19 09:21:52*
%MOMM*%
%LPD*%
G01*
G04 APERTURE LIST*
%ADD10C,0.150000*%
%ADD11C,0.250000*%
%ADD12C,0.120000*%
G04 APERTURE END LIST*
D10*
X48800000Y-166100000D02*
X53000000Y-166100000D01*
X53000000Y-166100000D02*
X53000000Y-158300000D01*
X53000000Y-158300000D02*
X48800000Y-158300000D01*
X48800000Y-158300000D02*
X48800000Y-166100000D01*
X48700000Y-125900000D02*
X52900000Y-125900000D01*
X52900000Y-125900000D02*
X52900000Y-118100000D01*
X52900000Y-118100000D02*
X48700000Y-118100000D01*
X48700000Y-118100000D02*
X48700000Y-125900000D01*
X48700000Y-146300000D02*
X52900000Y-146300000D01*
X52900000Y-146300000D02*
X52900000Y-138500000D01*
X52900000Y-138500000D02*
X48700000Y-138500000D01*
X48700000Y-138500000D02*
X48700000Y-146300000D01*
X48746190Y-136300000D02*
X52946190Y-136300000D01*
X52946190Y-136300000D02*
X52946190Y-128500000D01*
X52946190Y-128500000D02*
X48746190Y-128500000D01*
X48746190Y-128500000D02*
X48746190Y-136300000D01*
X48733690Y-156300000D02*
X52933690Y-156300000D01*
X52933690Y-156300000D02*
X52933690Y-148500000D01*
X52933690Y-148500000D02*
X48733690Y-148500000D01*
X48733690Y-148500000D02*
X48733690Y-156300000D01*
X48700000Y-115900000D02*
X52900000Y-115900000D01*
X52900000Y-115900000D02*
X52900000Y-108100000D01*
X52900000Y-108100000D02*
X48700000Y-108100000D01*
X48700000Y-108100000D02*
X48700000Y-115900000D01*
D11*
X51138095Y-157965476D02*
X51554761Y-157370238D01*
X51852380Y-157965476D02*
X51852380Y-156715476D01*
X51376190Y-156715476D01*
X51257142Y-156775000D01*
X51197619Y-156834523D01*
X51138095Y-156953571D01*
X51138095Y-157132142D01*
X51197619Y-157251190D01*
X51257142Y-157310714D01*
X51376190Y-157370238D01*
X51852380Y-157370238D01*
X49888095Y-157846428D02*
X49947619Y-157905952D01*
X50126190Y-157965476D01*
X50245238Y-157965476D01*
X50423809Y-157905952D01*
X50542857Y-157786904D01*
X50602380Y-157667857D01*
X50661904Y-157429761D01*
X50661904Y-157251190D01*
X50602380Y-157013095D01*
X50542857Y-156894047D01*
X50423809Y-156775000D01*
X50245238Y-156715476D01*
X50126190Y-156715476D01*
X49947619Y-156775000D01*
X49888095Y-156834523D01*
X51038095Y-138165476D02*
X51454761Y-137570238D01*
X51752380Y-138165476D02*
X51752380Y-136915476D01*
X51276190Y-136915476D01*
X51157142Y-136975000D01*
X51097619Y-137034523D01*
X51038095Y-137153571D01*
X51038095Y-137332142D01*
X51097619Y-137451190D01*
X51157142Y-137510714D01*
X51276190Y-137570238D01*
X51752380Y-137570238D01*
X49788095Y-138046428D02*
X49847619Y-138105952D01*
X50026190Y-138165476D01*
X50145238Y-138165476D01*
X50323809Y-138105952D01*
X50442857Y-137986904D01*
X50502380Y-137867857D01*
X50561904Y-137629761D01*
X50561904Y-137451190D01*
X50502380Y-137213095D01*
X50442857Y-137094047D01*
X50323809Y-136975000D01*
X50145238Y-136915476D01*
X50026190Y-136915476D01*
X49847619Y-136975000D01*
X49788095Y-137034523D01*
X51138095Y-117659476D02*
X51554761Y-117064238D01*
X51852380Y-117659476D02*
X51852380Y-116409476D01*
X51376190Y-116409476D01*
X51257142Y-116469000D01*
X51197619Y-116528523D01*
X51138095Y-116647571D01*
X51138095Y-116826142D01*
X51197619Y-116945190D01*
X51257142Y-117004714D01*
X51376190Y-117064238D01*
X51852380Y-117064238D01*
X49888095Y-117540428D02*
X49947619Y-117599952D01*
X50126190Y-117659476D01*
X50245238Y-117659476D01*
X50423809Y-117599952D01*
X50542857Y-117480904D01*
X50602380Y-117361857D01*
X50661904Y-117123761D01*
X50661904Y-116945190D01*
X50602380Y-116707095D01*
X50542857Y-116588047D01*
X50423809Y-116469000D01*
X50245238Y-116409476D01*
X50126190Y-116409476D01*
X49947619Y-116469000D01*
X49888095Y-116528523D01*
X51038095Y-128073476D02*
X51454761Y-127478238D01*
X51752380Y-128073476D02*
X51752380Y-126823476D01*
X51276190Y-126823476D01*
X51157142Y-126883000D01*
X51097619Y-126942523D01*
X51038095Y-127061571D01*
X51038095Y-127240142D01*
X51097619Y-127359190D01*
X51157142Y-127418714D01*
X51276190Y-127478238D01*
X51752380Y-127478238D01*
X49788095Y-127954428D02*
X49847619Y-128013952D01*
X50026190Y-128073476D01*
X50145238Y-128073476D01*
X50323809Y-128013952D01*
X50442857Y-127894904D01*
X50502380Y-127775857D01*
X50561904Y-127537761D01*
X50561904Y-127359190D01*
X50502380Y-127121095D01*
X50442857Y-127002047D01*
X50323809Y-126883000D01*
X50145238Y-126823476D01*
X50026190Y-126823476D01*
X49847619Y-126883000D01*
X49788095Y-126942523D01*
X51071785Y-148165476D02*
X51488451Y-147570238D01*
X51786070Y-148165476D02*
X51786070Y-146915476D01*
X51309880Y-146915476D01*
X51190832Y-146975000D01*
X51131309Y-147034523D01*
X51071785Y-147153571D01*
X51071785Y-147332142D01*
X51131309Y-147451190D01*
X51190832Y-147510714D01*
X51309880Y-147570238D01*
X51786070Y-147570238D01*
X49821785Y-148046428D02*
X49881309Y-148105952D01*
X50059880Y-148165476D01*
X50178928Y-148165476D01*
X50357499Y-148105952D01*
X50476547Y-147986904D01*
X50536070Y-147867857D01*
X50595594Y-147629761D01*
X50595594Y-147451190D01*
X50536070Y-147213095D01*
X50476547Y-147094047D01*
X50357499Y-146975000D01*
X50178928Y-146915476D01*
X50059880Y-146915476D01*
X49881309Y-146975000D01*
X49821785Y-147034523D01*
X51038095Y-107765476D02*
X51454761Y-107170238D01*
X51752380Y-107765476D02*
X51752380Y-106515476D01*
X51276190Y-106515476D01*
X51157142Y-106575000D01*
X51097619Y-106634523D01*
X51038095Y-106753571D01*
X51038095Y-106932142D01*
X51097619Y-107051190D01*
X51157142Y-107110714D01*
X51276190Y-107170238D01*
X51752380Y-107170238D01*
X49788095Y-107646428D02*
X49847619Y-107705952D01*
X50026190Y-107765476D01*
X50145238Y-107765476D01*
X50323809Y-107705952D01*
X50442857Y-107586904D01*
X50502380Y-107467857D01*
X50561904Y-107229761D01*
X50561904Y-107051190D01*
X50502380Y-106813095D01*
X50442857Y-106694047D01*
X50323809Y-106575000D01*
X50145238Y-106515476D01*
X50026190Y-106515476D01*
X49847619Y-106575000D01*
X49788095Y-106634523D01*
D10*
%TO.C,R285*%
X316841047Y-231432380D02*
X317174380Y-230956190D01*
X317412476Y-231432380D02*
X317412476Y-230432380D01*
X317031523Y-230432380D01*
X316936285Y-230480000D01*
X316888666Y-230527619D01*
X316841047Y-230622857D01*
X316841047Y-230765714D01*
X316888666Y-230860952D01*
X316936285Y-230908571D01*
X317031523Y-230956190D01*
X317412476Y-230956190D01*
X316460095Y-230527619D02*
X316412476Y-230480000D01*
X316317238Y-230432380D01*
X316079142Y-230432380D01*
X315983904Y-230480000D01*
X315936285Y-230527619D01*
X315888666Y-230622857D01*
X315888666Y-230718095D01*
X315936285Y-230860952D01*
X316507714Y-231432380D01*
X315888666Y-231432380D01*
X315317238Y-230860952D02*
X315412476Y-230813333D01*
X315460095Y-230765714D01*
X315507714Y-230670476D01*
X315507714Y-230622857D01*
X315460095Y-230527619D01*
X315412476Y-230480000D01*
X315317238Y-230432380D01*
X315126761Y-230432380D01*
X315031523Y-230480000D01*
X314983904Y-230527619D01*
X314936285Y-230622857D01*
X314936285Y-230670476D01*
X314983904Y-230765714D01*
X315031523Y-230813333D01*
X315126761Y-230860952D01*
X315317238Y-230860952D01*
X315412476Y-230908571D01*
X315460095Y-230956190D01*
X315507714Y-231051428D01*
X315507714Y-231241904D01*
X315460095Y-231337142D01*
X315412476Y-231384761D01*
X315317238Y-231432380D01*
X315126761Y-231432380D01*
X315031523Y-231384761D01*
X314983904Y-231337142D01*
X314936285Y-231241904D01*
X314936285Y-231051428D01*
X314983904Y-230956190D01*
X315031523Y-230908571D01*
X315126761Y-230860952D01*
X314031523Y-230432380D02*
X314507714Y-230432380D01*
X314555333Y-230908571D01*
X314507714Y-230860952D01*
X314412476Y-230813333D01*
X314174380Y-230813333D01*
X314079142Y-230860952D01*
X314031523Y-230908571D01*
X313983904Y-231003809D01*
X313983904Y-231241904D01*
X314031523Y-231337142D01*
X314079142Y-231384761D01*
X314174380Y-231432380D01*
X314412476Y-231432380D01*
X314507714Y-231384761D01*
X314555333Y-231337142D01*
%TO.C,R284*%
X320905047Y-231498380D02*
X321238380Y-231022190D01*
X321476476Y-231498380D02*
X321476476Y-230498380D01*
X321095523Y-230498380D01*
X321000285Y-230546000D01*
X320952666Y-230593619D01*
X320905047Y-230688857D01*
X320905047Y-230831714D01*
X320952666Y-230926952D01*
X321000285Y-230974571D01*
X321095523Y-231022190D01*
X321476476Y-231022190D01*
X320524095Y-230593619D02*
X320476476Y-230546000D01*
X320381238Y-230498380D01*
X320143142Y-230498380D01*
X320047904Y-230546000D01*
X320000285Y-230593619D01*
X319952666Y-230688857D01*
X319952666Y-230784095D01*
X320000285Y-230926952D01*
X320571714Y-231498380D01*
X319952666Y-231498380D01*
X319381238Y-230926952D02*
X319476476Y-230879333D01*
X319524095Y-230831714D01*
X319571714Y-230736476D01*
X319571714Y-230688857D01*
X319524095Y-230593619D01*
X319476476Y-230546000D01*
X319381238Y-230498380D01*
X319190761Y-230498380D01*
X319095523Y-230546000D01*
X319047904Y-230593619D01*
X319000285Y-230688857D01*
X319000285Y-230736476D01*
X319047904Y-230831714D01*
X319095523Y-230879333D01*
X319190761Y-230926952D01*
X319381238Y-230926952D01*
X319476476Y-230974571D01*
X319524095Y-231022190D01*
X319571714Y-231117428D01*
X319571714Y-231307904D01*
X319524095Y-231403142D01*
X319476476Y-231450761D01*
X319381238Y-231498380D01*
X319190761Y-231498380D01*
X319095523Y-231450761D01*
X319047904Y-231403142D01*
X319000285Y-231307904D01*
X319000285Y-231117428D01*
X319047904Y-231022190D01*
X319095523Y-230974571D01*
X319190761Y-230926952D01*
X318143142Y-230831714D02*
X318143142Y-231498380D01*
X318381238Y-230450761D02*
X318619333Y-231165047D01*
X318000285Y-231165047D01*
%TO.C,R283*%
X315317047Y-222354380D02*
X315650380Y-221878190D01*
X315888476Y-222354380D02*
X315888476Y-221354380D01*
X315507523Y-221354380D01*
X315412285Y-221402000D01*
X315364666Y-221449619D01*
X315317047Y-221544857D01*
X315317047Y-221687714D01*
X315364666Y-221782952D01*
X315412285Y-221830571D01*
X315507523Y-221878190D01*
X315888476Y-221878190D01*
X314936095Y-221449619D02*
X314888476Y-221402000D01*
X314793238Y-221354380D01*
X314555142Y-221354380D01*
X314459904Y-221402000D01*
X314412285Y-221449619D01*
X314364666Y-221544857D01*
X314364666Y-221640095D01*
X314412285Y-221782952D01*
X314983714Y-222354380D01*
X314364666Y-222354380D01*
X313793238Y-221782952D02*
X313888476Y-221735333D01*
X313936095Y-221687714D01*
X313983714Y-221592476D01*
X313983714Y-221544857D01*
X313936095Y-221449619D01*
X313888476Y-221402000D01*
X313793238Y-221354380D01*
X313602761Y-221354380D01*
X313507523Y-221402000D01*
X313459904Y-221449619D01*
X313412285Y-221544857D01*
X313412285Y-221592476D01*
X313459904Y-221687714D01*
X313507523Y-221735333D01*
X313602761Y-221782952D01*
X313793238Y-221782952D01*
X313888476Y-221830571D01*
X313936095Y-221878190D01*
X313983714Y-221973428D01*
X313983714Y-222163904D01*
X313936095Y-222259142D01*
X313888476Y-222306761D01*
X313793238Y-222354380D01*
X313602761Y-222354380D01*
X313507523Y-222306761D01*
X313459904Y-222259142D01*
X313412285Y-222163904D01*
X313412285Y-221973428D01*
X313459904Y-221878190D01*
X313507523Y-221830571D01*
X313602761Y-221782952D01*
X313078952Y-221354380D02*
X312459904Y-221354380D01*
X312793238Y-221735333D01*
X312650380Y-221735333D01*
X312555142Y-221782952D01*
X312507523Y-221830571D01*
X312459904Y-221925809D01*
X312459904Y-222163904D01*
X312507523Y-222259142D01*
X312555142Y-222306761D01*
X312650380Y-222354380D01*
X312936095Y-222354380D01*
X313031333Y-222306761D01*
X313078952Y-222259142D01*
%TO.C,D174*%
X317703970Y-227349690D02*
X317703970Y-228349690D01*
X317942066Y-228349690D01*
X318084923Y-228302071D01*
X318180161Y-228206832D01*
X318227780Y-228111594D01*
X318275399Y-227921118D01*
X318275399Y-227778261D01*
X318227780Y-227587785D01*
X318180161Y-227492547D01*
X318084923Y-227397309D01*
X317942066Y-227349690D01*
X317703970Y-227349690D01*
X319227780Y-227349690D02*
X318656351Y-227349690D01*
X318942066Y-227349690D02*
X318942066Y-228349690D01*
X318846827Y-228206832D01*
X318751589Y-228111594D01*
X318656351Y-228063975D01*
X319561113Y-228349690D02*
X320227780Y-228349690D01*
X319799208Y-227349690D01*
X321037304Y-228016356D02*
X321037304Y-227349690D01*
X320799208Y-228397309D02*
X320561113Y-227683023D01*
X321180161Y-227683023D01*
%TO.C,C85*%
X312667888Y-232572895D02*
X312715507Y-232620514D01*
X312858364Y-232668133D01*
X312953602Y-232668133D01*
X313096459Y-232620514D01*
X313191697Y-232525276D01*
X313239316Y-232430038D01*
X313286935Y-232239562D01*
X313286935Y-232096705D01*
X313239316Y-231906229D01*
X313191697Y-231810991D01*
X313096459Y-231715753D01*
X312953602Y-231668133D01*
X312858364Y-231668133D01*
X312715507Y-231715753D01*
X312667888Y-231763372D01*
X312096459Y-232096705D02*
X312191697Y-232049086D01*
X312239316Y-232001467D01*
X312286935Y-231906229D01*
X312286935Y-231858610D01*
X312239316Y-231763372D01*
X312191697Y-231715753D01*
X312096459Y-231668133D01*
X311905983Y-231668133D01*
X311810745Y-231715753D01*
X311763126Y-231763372D01*
X311715507Y-231858610D01*
X311715507Y-231906229D01*
X311763126Y-232001467D01*
X311810745Y-232049086D01*
X311905983Y-232096705D01*
X312096459Y-232096705D01*
X312191697Y-232144324D01*
X312239316Y-232191943D01*
X312286935Y-232287181D01*
X312286935Y-232477657D01*
X312239316Y-232572895D01*
X312191697Y-232620514D01*
X312096459Y-232668133D01*
X311905983Y-232668133D01*
X311810745Y-232620514D01*
X311763126Y-232572895D01*
X311715507Y-232477657D01*
X311715507Y-232287181D01*
X311763126Y-232191943D01*
X311810745Y-232144324D01*
X311905983Y-232096705D01*
X310810745Y-231668133D02*
X311286935Y-231668133D01*
X311334554Y-232144324D01*
X311286935Y-232096705D01*
X311191697Y-232049086D01*
X310953602Y-232049086D01*
X310858364Y-232096705D01*
X310810745Y-232144324D01*
X310763126Y-232239562D01*
X310763126Y-232477657D01*
X310810745Y-232572895D01*
X310858364Y-232620514D01*
X310953602Y-232668133D01*
X311191697Y-232668133D01*
X311286935Y-232620514D01*
X311334554Y-232572895D01*
%TO.C,C70*%
X51442857Y-155557142D02*
X51490476Y-155604761D01*
X51633333Y-155652380D01*
X51728571Y-155652380D01*
X51871428Y-155604761D01*
X51966666Y-155509523D01*
X52014285Y-155414285D01*
X52061904Y-155223809D01*
X52061904Y-155080952D01*
X52014285Y-154890476D01*
X51966666Y-154795238D01*
X51871428Y-154700000D01*
X51728571Y-154652380D01*
X51633333Y-154652380D01*
X51490476Y-154700000D01*
X51442857Y-154747619D01*
X51109523Y-154652380D02*
X50442857Y-154652380D01*
X50871428Y-155652380D01*
X49871428Y-154652380D02*
X49776190Y-154652380D01*
X49680952Y-154700000D01*
X49633333Y-154747619D01*
X49585714Y-154842857D01*
X49538095Y-155033333D01*
X49538095Y-155271428D01*
X49585714Y-155461904D01*
X49633333Y-155557142D01*
X49680952Y-155604761D01*
X49776190Y-155652380D01*
X49871428Y-155652380D01*
X49966666Y-155604761D01*
X50014285Y-155557142D01*
X50061904Y-155461904D01*
X50109523Y-155271428D01*
X50109523Y-155033333D01*
X50061904Y-154842857D01*
X50014285Y-154747619D01*
X49966666Y-154700000D01*
X49871428Y-154652380D01*
%TO.C,D48*%
X61536285Y-201874380D02*
X61536285Y-200874380D01*
X61298190Y-200874380D01*
X61155333Y-200922000D01*
X61060095Y-201017238D01*
X61012476Y-201112476D01*
X60964857Y-201302952D01*
X60964857Y-201445809D01*
X61012476Y-201636285D01*
X61060095Y-201731523D01*
X61155333Y-201826761D01*
X61298190Y-201874380D01*
X61536285Y-201874380D01*
X60107714Y-201207714D02*
X60107714Y-201874380D01*
X60345809Y-200826761D02*
X60583904Y-201541047D01*
X59964857Y-201541047D01*
X59441047Y-201302952D02*
X59536285Y-201255333D01*
X59583904Y-201207714D01*
X59631523Y-201112476D01*
X59631523Y-201064857D01*
X59583904Y-200969619D01*
X59536285Y-200922000D01*
X59441047Y-200874380D01*
X59250571Y-200874380D01*
X59155333Y-200922000D01*
X59107714Y-200969619D01*
X59060095Y-201064857D01*
X59060095Y-201112476D01*
X59107714Y-201207714D01*
X59155333Y-201255333D01*
X59250571Y-201302952D01*
X59441047Y-201302952D01*
X59536285Y-201350571D01*
X59583904Y-201398190D01*
X59631523Y-201493428D01*
X59631523Y-201683904D01*
X59583904Y-201779142D01*
X59536285Y-201826761D01*
X59441047Y-201874380D01*
X59250571Y-201874380D01*
X59155333Y-201826761D01*
X59107714Y-201779142D01*
X59060095Y-201683904D01*
X59060095Y-201493428D01*
X59107714Y-201398190D01*
X59155333Y-201350571D01*
X59250571Y-201302952D01*
%TO.C,D93*%
X102560285Y-36774380D02*
X102560285Y-35774380D01*
X102322190Y-35774380D01*
X102179333Y-35822000D01*
X102084095Y-35917238D01*
X102036476Y-36012476D01*
X101988857Y-36202952D01*
X101988857Y-36345809D01*
X102036476Y-36536285D01*
X102084095Y-36631523D01*
X102179333Y-36726761D01*
X102322190Y-36774380D01*
X102560285Y-36774380D01*
X101512666Y-36774380D02*
X101322190Y-36774380D01*
X101226952Y-36726761D01*
X101179333Y-36679142D01*
X101084095Y-36536285D01*
X101036476Y-36345809D01*
X101036476Y-35964857D01*
X101084095Y-35869619D01*
X101131714Y-35822000D01*
X101226952Y-35774380D01*
X101417428Y-35774380D01*
X101512666Y-35822000D01*
X101560285Y-35869619D01*
X101607904Y-35964857D01*
X101607904Y-36202952D01*
X101560285Y-36298190D01*
X101512666Y-36345809D01*
X101417428Y-36393428D01*
X101226952Y-36393428D01*
X101131714Y-36345809D01*
X101084095Y-36298190D01*
X101036476Y-36202952D01*
X100703142Y-35774380D02*
X100084095Y-35774380D01*
X100417428Y-36155333D01*
X100274571Y-36155333D01*
X100179333Y-36202952D01*
X100131714Y-36250571D01*
X100084095Y-36345809D01*
X100084095Y-36583904D01*
X100131714Y-36679142D01*
X100179333Y-36726761D01*
X100274571Y-36774380D01*
X100560285Y-36774380D01*
X100655523Y-36726761D01*
X100703142Y-36679142D01*
%TO.C,C61*%
X51542857Y-165257142D02*
X51590476Y-165304761D01*
X51733333Y-165352380D01*
X51828571Y-165352380D01*
X51971428Y-165304761D01*
X52066666Y-165209523D01*
X52114285Y-165114285D01*
X52161904Y-164923809D01*
X52161904Y-164780952D01*
X52114285Y-164590476D01*
X52066666Y-164495238D01*
X51971428Y-164400000D01*
X51828571Y-164352380D01*
X51733333Y-164352380D01*
X51590476Y-164400000D01*
X51542857Y-164447619D01*
X50685714Y-164352380D02*
X50876190Y-164352380D01*
X50971428Y-164400000D01*
X51019047Y-164447619D01*
X51114285Y-164590476D01*
X51161904Y-164780952D01*
X51161904Y-165161904D01*
X51114285Y-165257142D01*
X51066666Y-165304761D01*
X50971428Y-165352380D01*
X50780952Y-165352380D01*
X50685714Y-165304761D01*
X50638095Y-165257142D01*
X50590476Y-165161904D01*
X50590476Y-164923809D01*
X50638095Y-164828571D01*
X50685714Y-164780952D01*
X50780952Y-164733333D01*
X50971428Y-164733333D01*
X51066666Y-164780952D01*
X51114285Y-164828571D01*
X51161904Y-164923809D01*
X49638095Y-165352380D02*
X50209523Y-165352380D01*
X49923809Y-165352380D02*
X49923809Y-164352380D01*
X50019047Y-164495238D01*
X50114285Y-164590476D01*
X50209523Y-164638095D01*
%TO.C,R10*%
X51442857Y-150052380D02*
X51776190Y-149576190D01*
X52014285Y-150052380D02*
X52014285Y-149052380D01*
X51633333Y-149052380D01*
X51538095Y-149100000D01*
X51490476Y-149147619D01*
X51442857Y-149242857D01*
X51442857Y-149385714D01*
X51490476Y-149480952D01*
X51538095Y-149528571D01*
X51633333Y-149576190D01*
X52014285Y-149576190D01*
X50490476Y-150052380D02*
X51061904Y-150052380D01*
X50776190Y-150052380D02*
X50776190Y-149052380D01*
X50871428Y-149195238D01*
X50966666Y-149290476D01*
X51061904Y-149338095D01*
X49871428Y-149052380D02*
X49776190Y-149052380D01*
X49680952Y-149100000D01*
X49633333Y-149147619D01*
X49585714Y-149242857D01*
X49538095Y-149433333D01*
X49538095Y-149671428D01*
X49585714Y-149861904D01*
X49633333Y-149957142D01*
X49680952Y-150004761D01*
X49776190Y-150052380D01*
X49871428Y-150052380D01*
X49966666Y-150004761D01*
X50014285Y-149957142D01*
X50061904Y-149861904D01*
X50109523Y-149671428D01*
X50109523Y-149433333D01*
X50061904Y-149242857D01*
X50014285Y-149147619D01*
X49966666Y-149100000D01*
X49871428Y-149052380D01*
%TO.C,D42*%
X61282285Y-191460380D02*
X61282285Y-190460380D01*
X61044190Y-190460380D01*
X60901333Y-190508000D01*
X60806095Y-190603238D01*
X60758476Y-190698476D01*
X60710857Y-190888952D01*
X60710857Y-191031809D01*
X60758476Y-191222285D01*
X60806095Y-191317523D01*
X60901333Y-191412761D01*
X61044190Y-191460380D01*
X61282285Y-191460380D01*
X59853714Y-190793714D02*
X59853714Y-191460380D01*
X60091809Y-190412761D02*
X60329904Y-191127047D01*
X59710857Y-191127047D01*
X59377523Y-190555619D02*
X59329904Y-190508000D01*
X59234666Y-190460380D01*
X58996571Y-190460380D01*
X58901333Y-190508000D01*
X58853714Y-190555619D01*
X58806095Y-190650857D01*
X58806095Y-190746095D01*
X58853714Y-190888952D01*
X59425142Y-191460380D01*
X58806095Y-191460380D01*
%TO.C,D50*%
X61536285Y-210764380D02*
X61536285Y-209764380D01*
X61298190Y-209764380D01*
X61155333Y-209812000D01*
X61060095Y-209907238D01*
X61012476Y-210002476D01*
X60964857Y-210192952D01*
X60964857Y-210335809D01*
X61012476Y-210526285D01*
X61060095Y-210621523D01*
X61155333Y-210716761D01*
X61298190Y-210764380D01*
X61536285Y-210764380D01*
X60060095Y-209764380D02*
X60536285Y-209764380D01*
X60583904Y-210240571D01*
X60536285Y-210192952D01*
X60441047Y-210145333D01*
X60202952Y-210145333D01*
X60107714Y-210192952D01*
X60060095Y-210240571D01*
X60012476Y-210335809D01*
X60012476Y-210573904D01*
X60060095Y-210669142D01*
X60107714Y-210716761D01*
X60202952Y-210764380D01*
X60441047Y-210764380D01*
X60536285Y-210716761D01*
X60583904Y-210669142D01*
X59393428Y-209764380D02*
X59298190Y-209764380D01*
X59202952Y-209812000D01*
X59155333Y-209859619D01*
X59107714Y-209954857D01*
X59060095Y-210145333D01*
X59060095Y-210383428D01*
X59107714Y-210573904D01*
X59155333Y-210669142D01*
X59202952Y-210716761D01*
X59298190Y-210764380D01*
X59393428Y-210764380D01*
X59488666Y-210716761D01*
X59536285Y-210669142D01*
X59583904Y-210573904D01*
X59631523Y-210383428D01*
X59631523Y-210145333D01*
X59583904Y-209954857D01*
X59536285Y-209859619D01*
X59488666Y-209812000D01*
X59393428Y-209764380D01*
%TO.C,R9*%
X50966666Y-109452380D02*
X51300000Y-108976190D01*
X51538095Y-109452380D02*
X51538095Y-108452380D01*
X51157142Y-108452380D01*
X51061904Y-108500000D01*
X51014285Y-108547619D01*
X50966666Y-108642857D01*
X50966666Y-108785714D01*
X51014285Y-108880952D01*
X51061904Y-108928571D01*
X51157142Y-108976190D01*
X51538095Y-108976190D01*
X50490476Y-109452380D02*
X50300000Y-109452380D01*
X50204761Y-109404761D01*
X50157142Y-109357142D01*
X50061904Y-109214285D01*
X50014285Y-109023809D01*
X50014285Y-108642857D01*
X50061904Y-108547619D01*
X50109523Y-108500000D01*
X50204761Y-108452380D01*
X50395238Y-108452380D01*
X50490476Y-108500000D01*
X50538095Y-108547619D01*
X50585714Y-108642857D01*
X50585714Y-108880952D01*
X50538095Y-108976190D01*
X50490476Y-109023809D01*
X50395238Y-109071428D01*
X50204761Y-109071428D01*
X50109523Y-109023809D01*
X50061904Y-108976190D01*
X50014285Y-108880952D01*
%TO.C,D22*%
X65112285Y-101544380D02*
X65112285Y-100544380D01*
X64874190Y-100544380D01*
X64731333Y-100592000D01*
X64636095Y-100687238D01*
X64588476Y-100782476D01*
X64540857Y-100972952D01*
X64540857Y-101115809D01*
X64588476Y-101306285D01*
X64636095Y-101401523D01*
X64731333Y-101496761D01*
X64874190Y-101544380D01*
X65112285Y-101544380D01*
X64159904Y-100639619D02*
X64112285Y-100592000D01*
X64017047Y-100544380D01*
X63778952Y-100544380D01*
X63683714Y-100592000D01*
X63636095Y-100639619D01*
X63588476Y-100734857D01*
X63588476Y-100830095D01*
X63636095Y-100972952D01*
X64207523Y-101544380D01*
X63588476Y-101544380D01*
X63207523Y-100639619D02*
X63159904Y-100592000D01*
X63064666Y-100544380D01*
X62826571Y-100544380D01*
X62731333Y-100592000D01*
X62683714Y-100639619D01*
X62636095Y-100734857D01*
X62636095Y-100830095D01*
X62683714Y-100972952D01*
X63255142Y-101544380D01*
X62636095Y-101544380D01*
%TO.C,R280*%
X51931547Y-119552380D02*
X52264880Y-119076190D01*
X52502976Y-119552380D02*
X52502976Y-118552380D01*
X52122023Y-118552380D01*
X52026785Y-118600000D01*
X51979166Y-118647619D01*
X51931547Y-118742857D01*
X51931547Y-118885714D01*
X51979166Y-118980952D01*
X52026785Y-119028571D01*
X52122023Y-119076190D01*
X52502976Y-119076190D01*
X51550595Y-118647619D02*
X51502976Y-118600000D01*
X51407738Y-118552380D01*
X51169642Y-118552380D01*
X51074404Y-118600000D01*
X51026785Y-118647619D01*
X50979166Y-118742857D01*
X50979166Y-118838095D01*
X51026785Y-118980952D01*
X51598214Y-119552380D01*
X50979166Y-119552380D01*
X50407738Y-118980952D02*
X50502976Y-118933333D01*
X50550595Y-118885714D01*
X50598214Y-118790476D01*
X50598214Y-118742857D01*
X50550595Y-118647619D01*
X50502976Y-118600000D01*
X50407738Y-118552380D01*
X50217261Y-118552380D01*
X50122023Y-118600000D01*
X50074404Y-118647619D01*
X50026785Y-118742857D01*
X50026785Y-118790476D01*
X50074404Y-118885714D01*
X50122023Y-118933333D01*
X50217261Y-118980952D01*
X50407738Y-118980952D01*
X50502976Y-119028571D01*
X50550595Y-119076190D01*
X50598214Y-119171428D01*
X50598214Y-119361904D01*
X50550595Y-119457142D01*
X50502976Y-119504761D01*
X50407738Y-119552380D01*
X50217261Y-119552380D01*
X50122023Y-119504761D01*
X50074404Y-119457142D01*
X50026785Y-119361904D01*
X50026785Y-119171428D01*
X50074404Y-119076190D01*
X50122023Y-119028571D01*
X50217261Y-118980952D01*
X49407738Y-118552380D02*
X49312500Y-118552380D01*
X49217261Y-118600000D01*
X49169642Y-118647619D01*
X49122023Y-118742857D01*
X49074404Y-118933333D01*
X49074404Y-119171428D01*
X49122023Y-119361904D01*
X49169642Y-119457142D01*
X49217261Y-119504761D01*
X49312500Y-119552380D01*
X49407738Y-119552380D01*
X49502976Y-119504761D01*
X49550595Y-119457142D01*
X49598214Y-119361904D01*
X49645833Y-119171428D01*
X49645833Y-118933333D01*
X49598214Y-118742857D01*
X49550595Y-118647619D01*
X49502976Y-118600000D01*
X49407738Y-118552380D01*
%TO.C,D13*%
X47950285Y-65730380D02*
X47950285Y-64730380D01*
X47712190Y-64730380D01*
X47569333Y-64778000D01*
X47474095Y-64873238D01*
X47426476Y-64968476D01*
X47378857Y-65158952D01*
X47378857Y-65301809D01*
X47426476Y-65492285D01*
X47474095Y-65587523D01*
X47569333Y-65682761D01*
X47712190Y-65730380D01*
X47950285Y-65730380D01*
X46426476Y-65730380D02*
X46997904Y-65730380D01*
X46712190Y-65730380D02*
X46712190Y-64730380D01*
X46807428Y-64873238D01*
X46902666Y-64968476D01*
X46997904Y-65016095D01*
X46093142Y-64730380D02*
X45474095Y-64730380D01*
X45807428Y-65111333D01*
X45664571Y-65111333D01*
X45569333Y-65158952D01*
X45521714Y-65206571D01*
X45474095Y-65301809D01*
X45474095Y-65539904D01*
X45521714Y-65635142D01*
X45569333Y-65682761D01*
X45664571Y-65730380D01*
X45950285Y-65730380D01*
X46045523Y-65682761D01*
X46093142Y-65635142D01*
%TO.C,D23*%
X65112285Y-98750380D02*
X65112285Y-97750380D01*
X64874190Y-97750380D01*
X64731333Y-97798000D01*
X64636095Y-97893238D01*
X64588476Y-97988476D01*
X64540857Y-98178952D01*
X64540857Y-98321809D01*
X64588476Y-98512285D01*
X64636095Y-98607523D01*
X64731333Y-98702761D01*
X64874190Y-98750380D01*
X65112285Y-98750380D01*
X64159904Y-97845619D02*
X64112285Y-97798000D01*
X64017047Y-97750380D01*
X63778952Y-97750380D01*
X63683714Y-97798000D01*
X63636095Y-97845619D01*
X63588476Y-97940857D01*
X63588476Y-98036095D01*
X63636095Y-98178952D01*
X64207523Y-98750380D01*
X63588476Y-98750380D01*
X63255142Y-97750380D02*
X62636095Y-97750380D01*
X62969428Y-98131333D01*
X62826571Y-98131333D01*
X62731333Y-98178952D01*
X62683714Y-98226571D01*
X62636095Y-98321809D01*
X62636095Y-98559904D01*
X62683714Y-98655142D01*
X62731333Y-98702761D01*
X62826571Y-98750380D01*
X63112285Y-98750380D01*
X63207523Y-98702761D01*
X63255142Y-98655142D01*
%TO.C,D161*%
X114066476Y-122880380D02*
X114066476Y-121880380D01*
X113828380Y-121880380D01*
X113685523Y-121928000D01*
X113590285Y-122023238D01*
X113542666Y-122118476D01*
X113495047Y-122308952D01*
X113495047Y-122451809D01*
X113542666Y-122642285D01*
X113590285Y-122737523D01*
X113685523Y-122832761D01*
X113828380Y-122880380D01*
X114066476Y-122880380D01*
X112542666Y-122880380D02*
X113114095Y-122880380D01*
X112828380Y-122880380D02*
X112828380Y-121880380D01*
X112923619Y-122023238D01*
X113018857Y-122118476D01*
X113114095Y-122166095D01*
X111685523Y-121880380D02*
X111876000Y-121880380D01*
X111971238Y-121928000D01*
X112018857Y-121975619D01*
X112114095Y-122118476D01*
X112161714Y-122308952D01*
X112161714Y-122689904D01*
X112114095Y-122785142D01*
X112066476Y-122832761D01*
X111971238Y-122880380D01*
X111780761Y-122880380D01*
X111685523Y-122832761D01*
X111637904Y-122785142D01*
X111590285Y-122689904D01*
X111590285Y-122451809D01*
X111637904Y-122356571D01*
X111685523Y-122308952D01*
X111780761Y-122261333D01*
X111971238Y-122261333D01*
X112066476Y-122308952D01*
X112114095Y-122356571D01*
X112161714Y-122451809D01*
X110637904Y-122880380D02*
X111209333Y-122880380D01*
X110923619Y-122880380D02*
X110923619Y-121880380D01*
X111018857Y-122023238D01*
X111114095Y-122118476D01*
X111209333Y-122166095D01*
%TO.C,D7*%
X46554095Y-164282380D02*
X46554095Y-163282380D01*
X46316000Y-163282380D01*
X46173142Y-163330000D01*
X46077904Y-163425238D01*
X46030285Y-163520476D01*
X45982666Y-163710952D01*
X45982666Y-163853809D01*
X46030285Y-164044285D01*
X46077904Y-164139523D01*
X46173142Y-164234761D01*
X46316000Y-164282380D01*
X46554095Y-164282380D01*
X45649333Y-163282380D02*
X44982666Y-163282380D01*
X45411238Y-164282380D01*
%TO.C,D95*%
X109926285Y-36774380D02*
X109926285Y-35774380D01*
X109688190Y-35774380D01*
X109545333Y-35822000D01*
X109450095Y-35917238D01*
X109402476Y-36012476D01*
X109354857Y-36202952D01*
X109354857Y-36345809D01*
X109402476Y-36536285D01*
X109450095Y-36631523D01*
X109545333Y-36726761D01*
X109688190Y-36774380D01*
X109926285Y-36774380D01*
X108878666Y-36774380D02*
X108688190Y-36774380D01*
X108592952Y-36726761D01*
X108545333Y-36679142D01*
X108450095Y-36536285D01*
X108402476Y-36345809D01*
X108402476Y-35964857D01*
X108450095Y-35869619D01*
X108497714Y-35822000D01*
X108592952Y-35774380D01*
X108783428Y-35774380D01*
X108878666Y-35822000D01*
X108926285Y-35869619D01*
X108973904Y-35964857D01*
X108973904Y-36202952D01*
X108926285Y-36298190D01*
X108878666Y-36345809D01*
X108783428Y-36393428D01*
X108592952Y-36393428D01*
X108497714Y-36345809D01*
X108450095Y-36298190D01*
X108402476Y-36202952D01*
X107497714Y-35774380D02*
X107973904Y-35774380D01*
X108021523Y-36250571D01*
X107973904Y-36202952D01*
X107878666Y-36155333D01*
X107640571Y-36155333D01*
X107545333Y-36202952D01*
X107497714Y-36250571D01*
X107450095Y-36345809D01*
X107450095Y-36583904D01*
X107497714Y-36679142D01*
X107545333Y-36726761D01*
X107640571Y-36774380D01*
X107878666Y-36774380D01*
X107973904Y-36726761D01*
X108021523Y-36679142D01*
%TO.C,D24*%
X65366285Y-87828380D02*
X65366285Y-86828380D01*
X65128190Y-86828380D01*
X64985333Y-86876000D01*
X64890095Y-86971238D01*
X64842476Y-87066476D01*
X64794857Y-87256952D01*
X64794857Y-87399809D01*
X64842476Y-87590285D01*
X64890095Y-87685523D01*
X64985333Y-87780761D01*
X65128190Y-87828380D01*
X65366285Y-87828380D01*
X64413904Y-86923619D02*
X64366285Y-86876000D01*
X64271047Y-86828380D01*
X64032952Y-86828380D01*
X63937714Y-86876000D01*
X63890095Y-86923619D01*
X63842476Y-87018857D01*
X63842476Y-87114095D01*
X63890095Y-87256952D01*
X64461523Y-87828380D01*
X63842476Y-87828380D01*
X62985333Y-87161714D02*
X62985333Y-87828380D01*
X63223428Y-86780761D02*
X63461523Y-87495047D01*
X62842476Y-87495047D01*
%TO.C,D28*%
X65112285Y-66492380D02*
X65112285Y-65492380D01*
X64874190Y-65492380D01*
X64731333Y-65540000D01*
X64636095Y-65635238D01*
X64588476Y-65730476D01*
X64540857Y-65920952D01*
X64540857Y-66063809D01*
X64588476Y-66254285D01*
X64636095Y-66349523D01*
X64731333Y-66444761D01*
X64874190Y-66492380D01*
X65112285Y-66492380D01*
X64159904Y-65587619D02*
X64112285Y-65540000D01*
X64017047Y-65492380D01*
X63778952Y-65492380D01*
X63683714Y-65540000D01*
X63636095Y-65587619D01*
X63588476Y-65682857D01*
X63588476Y-65778095D01*
X63636095Y-65920952D01*
X64207523Y-66492380D01*
X63588476Y-66492380D01*
X63017047Y-65920952D02*
X63112285Y-65873333D01*
X63159904Y-65825714D01*
X63207523Y-65730476D01*
X63207523Y-65682857D01*
X63159904Y-65587619D01*
X63112285Y-65540000D01*
X63017047Y-65492380D01*
X62826571Y-65492380D01*
X62731333Y-65540000D01*
X62683714Y-65587619D01*
X62636095Y-65682857D01*
X62636095Y-65730476D01*
X62683714Y-65825714D01*
X62731333Y-65873333D01*
X62826571Y-65920952D01*
X63017047Y-65920952D01*
X63112285Y-65968571D01*
X63159904Y-66016190D01*
X63207523Y-66111428D01*
X63207523Y-66301904D01*
X63159904Y-66397142D01*
X63112285Y-66444761D01*
X63017047Y-66492380D01*
X62826571Y-66492380D01*
X62731333Y-66444761D01*
X62683714Y-66397142D01*
X62636095Y-66301904D01*
X62636095Y-66111428D01*
X62683714Y-66016190D01*
X62731333Y-65968571D01*
X62826571Y-65920952D01*
%TO.C,D12*%
X93162285Y-86920380D02*
X93162285Y-85920380D01*
X92924190Y-85920380D01*
X92781333Y-85968000D01*
X92686095Y-86063238D01*
X92638476Y-86158476D01*
X92590857Y-86348952D01*
X92590857Y-86491809D01*
X92638476Y-86682285D01*
X92686095Y-86777523D01*
X92781333Y-86872761D01*
X92924190Y-86920380D01*
X93162285Y-86920380D01*
X91638476Y-86920380D02*
X92209904Y-86920380D01*
X91924190Y-86920380D02*
X91924190Y-85920380D01*
X92019428Y-86063238D01*
X92114666Y-86158476D01*
X92209904Y-86206095D01*
X91257523Y-86015619D02*
X91209904Y-85968000D01*
X91114666Y-85920380D01*
X90876571Y-85920380D01*
X90781333Y-85968000D01*
X90733714Y-86015619D01*
X90686095Y-86110857D01*
X90686095Y-86206095D01*
X90733714Y-86348952D01*
X91305142Y-86920380D01*
X90686095Y-86920380D01*
%TO.C,R279*%
X51919047Y-139952380D02*
X52252380Y-139476190D01*
X52490476Y-139952380D02*
X52490476Y-138952380D01*
X52109523Y-138952380D01*
X52014285Y-139000000D01*
X51966666Y-139047619D01*
X51919047Y-139142857D01*
X51919047Y-139285714D01*
X51966666Y-139380952D01*
X52014285Y-139428571D01*
X52109523Y-139476190D01*
X52490476Y-139476190D01*
X51538095Y-139047619D02*
X51490476Y-139000000D01*
X51395238Y-138952380D01*
X51157142Y-138952380D01*
X51061904Y-139000000D01*
X51014285Y-139047619D01*
X50966666Y-139142857D01*
X50966666Y-139238095D01*
X51014285Y-139380952D01*
X51585714Y-139952380D01*
X50966666Y-139952380D01*
X50633333Y-138952380D02*
X49966666Y-138952380D01*
X50395238Y-139952380D01*
X49538095Y-139952380D02*
X49347619Y-139952380D01*
X49252380Y-139904761D01*
X49204761Y-139857142D01*
X49109523Y-139714285D01*
X49061904Y-139523809D01*
X49061904Y-139142857D01*
X49109523Y-139047619D01*
X49157142Y-139000000D01*
X49252380Y-138952380D01*
X49442857Y-138952380D01*
X49538095Y-139000000D01*
X49585714Y-139047619D01*
X49633333Y-139142857D01*
X49633333Y-139380952D01*
X49585714Y-139476190D01*
X49538095Y-139523809D01*
X49442857Y-139571428D01*
X49252380Y-139571428D01*
X49157142Y-139523809D01*
X49109523Y-139476190D01*
X49061904Y-139380952D01*
%TO.C,D19*%
X46172285Y-124658380D02*
X46172285Y-123658380D01*
X45934190Y-123658380D01*
X45791333Y-123706000D01*
X45696095Y-123801238D01*
X45648476Y-123896476D01*
X45600857Y-124086952D01*
X45600857Y-124229809D01*
X45648476Y-124420285D01*
X45696095Y-124515523D01*
X45791333Y-124610761D01*
X45934190Y-124658380D01*
X46172285Y-124658380D01*
X44648476Y-124658380D02*
X45219904Y-124658380D01*
X44934190Y-124658380D02*
X44934190Y-123658380D01*
X45029428Y-123801238D01*
X45124666Y-123896476D01*
X45219904Y-123944095D01*
X44172285Y-124658380D02*
X43981809Y-124658380D01*
X43886571Y-124610761D01*
X43838952Y-124563142D01*
X43743714Y-124420285D01*
X43696095Y-124229809D01*
X43696095Y-123848857D01*
X43743714Y-123753619D01*
X43791333Y-123706000D01*
X43886571Y-123658380D01*
X44077047Y-123658380D01*
X44172285Y-123706000D01*
X44219904Y-123753619D01*
X44267523Y-123848857D01*
X44267523Y-124086952D01*
X44219904Y-124182190D01*
X44172285Y-124229809D01*
X44077047Y-124277428D01*
X43886571Y-124277428D01*
X43791333Y-124229809D01*
X43743714Y-124182190D01*
X43696095Y-124086952D01*
%TO.C,D21*%
X65112285Y-104592380D02*
X65112285Y-103592380D01*
X64874190Y-103592380D01*
X64731333Y-103640000D01*
X64636095Y-103735238D01*
X64588476Y-103830476D01*
X64540857Y-104020952D01*
X64540857Y-104163809D01*
X64588476Y-104354285D01*
X64636095Y-104449523D01*
X64731333Y-104544761D01*
X64874190Y-104592380D01*
X65112285Y-104592380D01*
X64159904Y-103687619D02*
X64112285Y-103640000D01*
X64017047Y-103592380D01*
X63778952Y-103592380D01*
X63683714Y-103640000D01*
X63636095Y-103687619D01*
X63588476Y-103782857D01*
X63588476Y-103878095D01*
X63636095Y-104020952D01*
X64207523Y-104592380D01*
X63588476Y-104592380D01*
X62636095Y-104592380D02*
X63207523Y-104592380D01*
X62921809Y-104592380D02*
X62921809Y-103592380D01*
X63017047Y-103735238D01*
X63112285Y-103830476D01*
X63207523Y-103878095D01*
%TO.C,D80*%
X196128285Y-37028380D02*
X196128285Y-36028380D01*
X195890190Y-36028380D01*
X195747333Y-36076000D01*
X195652095Y-36171238D01*
X195604476Y-36266476D01*
X195556857Y-36456952D01*
X195556857Y-36599809D01*
X195604476Y-36790285D01*
X195652095Y-36885523D01*
X195747333Y-36980761D01*
X195890190Y-37028380D01*
X196128285Y-37028380D01*
X194985428Y-36456952D02*
X195080666Y-36409333D01*
X195128285Y-36361714D01*
X195175904Y-36266476D01*
X195175904Y-36218857D01*
X195128285Y-36123619D01*
X195080666Y-36076000D01*
X194985428Y-36028380D01*
X194794952Y-36028380D01*
X194699714Y-36076000D01*
X194652095Y-36123619D01*
X194604476Y-36218857D01*
X194604476Y-36266476D01*
X194652095Y-36361714D01*
X194699714Y-36409333D01*
X194794952Y-36456952D01*
X194985428Y-36456952D01*
X195080666Y-36504571D01*
X195128285Y-36552190D01*
X195175904Y-36647428D01*
X195175904Y-36837904D01*
X195128285Y-36933142D01*
X195080666Y-36980761D01*
X194985428Y-37028380D01*
X194794952Y-37028380D01*
X194699714Y-36980761D01*
X194652095Y-36933142D01*
X194604476Y-36837904D01*
X194604476Y-36647428D01*
X194652095Y-36552190D01*
X194699714Y-36504571D01*
X194794952Y-36456952D01*
X193985428Y-36028380D02*
X193890190Y-36028380D01*
X193794952Y-36076000D01*
X193747333Y-36123619D01*
X193699714Y-36218857D01*
X193652095Y-36409333D01*
X193652095Y-36647428D01*
X193699714Y-36837904D01*
X193747333Y-36933142D01*
X193794952Y-36980761D01*
X193890190Y-37028380D01*
X193985428Y-37028380D01*
X194080666Y-36980761D01*
X194128285Y-36933142D01*
X194175904Y-36837904D01*
X194223523Y-36647428D01*
X194223523Y-36409333D01*
X194175904Y-36218857D01*
X194128285Y-36123619D01*
X194080666Y-36076000D01*
X193985428Y-36028380D01*
%TO.C,D30*%
X68524285Y-164790380D02*
X68524285Y-163790380D01*
X68286190Y-163790380D01*
X68143333Y-163838000D01*
X68048095Y-163933238D01*
X68000476Y-164028476D01*
X67952857Y-164218952D01*
X67952857Y-164361809D01*
X68000476Y-164552285D01*
X68048095Y-164647523D01*
X68143333Y-164742761D01*
X68286190Y-164790380D01*
X68524285Y-164790380D01*
X67619523Y-163790380D02*
X67000476Y-163790380D01*
X67333809Y-164171333D01*
X67190952Y-164171333D01*
X67095714Y-164218952D01*
X67048095Y-164266571D01*
X67000476Y-164361809D01*
X67000476Y-164599904D01*
X67048095Y-164695142D01*
X67095714Y-164742761D01*
X67190952Y-164790380D01*
X67476666Y-164790380D01*
X67571904Y-164742761D01*
X67619523Y-164695142D01*
X66381428Y-163790380D02*
X66286190Y-163790380D01*
X66190952Y-163838000D01*
X66143333Y-163885619D01*
X66095714Y-163980857D01*
X66048095Y-164171333D01*
X66048095Y-164409428D01*
X66095714Y-164599904D01*
X66143333Y-164695142D01*
X66190952Y-164742761D01*
X66286190Y-164790380D01*
X66381428Y-164790380D01*
X66476666Y-164742761D01*
X66524285Y-164695142D01*
X66571904Y-164599904D01*
X66619523Y-164409428D01*
X66619523Y-164171333D01*
X66571904Y-163980857D01*
X66524285Y-163885619D01*
X66476666Y-163838000D01*
X66381428Y-163790380D01*
%TO.C,D120*%
X97426423Y-184206632D02*
X97426423Y-183206632D01*
X97188327Y-183206632D01*
X97045470Y-183254252D01*
X96950232Y-183349490D01*
X96902613Y-183444728D01*
X96854994Y-183635204D01*
X96854994Y-183778061D01*
X96902613Y-183968537D01*
X96950232Y-184063775D01*
X97045470Y-184159013D01*
X97188327Y-184206632D01*
X97426423Y-184206632D01*
X95902613Y-184206632D02*
X96474042Y-184206632D01*
X96188327Y-184206632D02*
X96188327Y-183206632D01*
X96283566Y-183349490D01*
X96378804Y-183444728D01*
X96474042Y-183492347D01*
X95521661Y-183301871D02*
X95474042Y-183254252D01*
X95378804Y-183206632D01*
X95140708Y-183206632D01*
X95045470Y-183254252D01*
X94997851Y-183301871D01*
X94950232Y-183397109D01*
X94950232Y-183492347D01*
X94997851Y-183635204D01*
X95569280Y-184206632D01*
X94950232Y-184206632D01*
X94331185Y-183206632D02*
X94235947Y-183206632D01*
X94140708Y-183254252D01*
X94093089Y-183301871D01*
X94045470Y-183397109D01*
X93997851Y-183587585D01*
X93997851Y-183825680D01*
X94045470Y-184016156D01*
X94093089Y-184111394D01*
X94140708Y-184159013D01*
X94235947Y-184206632D01*
X94331185Y-184206632D01*
X94426423Y-184159013D01*
X94474042Y-184111394D01*
X94521661Y-184016156D01*
X94569280Y-183825680D01*
X94569280Y-183587585D01*
X94521661Y-183397109D01*
X94474042Y-183301871D01*
X94426423Y-183254252D01*
X94331185Y-183206632D01*
%TO.C,D113*%
X186348476Y-40731380D02*
X186348476Y-39731380D01*
X186110380Y-39731380D01*
X185967523Y-39779000D01*
X185872285Y-39874238D01*
X185824666Y-39969476D01*
X185777047Y-40159952D01*
X185777047Y-40302809D01*
X185824666Y-40493285D01*
X185872285Y-40588523D01*
X185967523Y-40683761D01*
X186110380Y-40731380D01*
X186348476Y-40731380D01*
X184824666Y-40731380D02*
X185396095Y-40731380D01*
X185110380Y-40731380D02*
X185110380Y-39731380D01*
X185205619Y-39874238D01*
X185300857Y-39969476D01*
X185396095Y-40017095D01*
X183872285Y-40731380D02*
X184443714Y-40731380D01*
X184158000Y-40731380D02*
X184158000Y-39731380D01*
X184253238Y-39874238D01*
X184348476Y-39969476D01*
X184443714Y-40017095D01*
X183538952Y-39731380D02*
X182919904Y-39731380D01*
X183253238Y-40112333D01*
X183110380Y-40112333D01*
X183015142Y-40159952D01*
X182967523Y-40207571D01*
X182919904Y-40302809D01*
X182919904Y-40540904D01*
X182967523Y-40636142D01*
X183015142Y-40683761D01*
X183110380Y-40731380D01*
X183396095Y-40731380D01*
X183491333Y-40683761D01*
X183538952Y-40636142D01*
%TO.C,D124*%
X97702476Y-201874380D02*
X97702476Y-200874380D01*
X97464380Y-200874380D01*
X97321523Y-200922000D01*
X97226285Y-201017238D01*
X97178666Y-201112476D01*
X97131047Y-201302952D01*
X97131047Y-201445809D01*
X97178666Y-201636285D01*
X97226285Y-201731523D01*
X97321523Y-201826761D01*
X97464380Y-201874380D01*
X97702476Y-201874380D01*
X96178666Y-201874380D02*
X96750095Y-201874380D01*
X96464380Y-201874380D02*
X96464380Y-200874380D01*
X96559619Y-201017238D01*
X96654857Y-201112476D01*
X96750095Y-201160095D01*
X95797714Y-200969619D02*
X95750095Y-200922000D01*
X95654857Y-200874380D01*
X95416761Y-200874380D01*
X95321523Y-200922000D01*
X95273904Y-200969619D01*
X95226285Y-201064857D01*
X95226285Y-201160095D01*
X95273904Y-201302952D01*
X95845333Y-201874380D01*
X95226285Y-201874380D01*
X94369142Y-201207714D02*
X94369142Y-201874380D01*
X94607238Y-200826761D02*
X94845333Y-201541047D01*
X94226285Y-201541047D01*
%TO.C,D70*%
X165110665Y-230830380D02*
X165110665Y-229830380D01*
X164872570Y-229830380D01*
X164729713Y-229878000D01*
X164634475Y-229973238D01*
X164586856Y-230068476D01*
X164539237Y-230258952D01*
X164539237Y-230401809D01*
X164586856Y-230592285D01*
X164634475Y-230687523D01*
X164729713Y-230782761D01*
X164872570Y-230830380D01*
X165110665Y-230830380D01*
X164205903Y-229830380D02*
X163539237Y-229830380D01*
X163967808Y-230830380D01*
X162967808Y-229830380D02*
X162872570Y-229830380D01*
X162777332Y-229878000D01*
X162729713Y-229925619D01*
X162682094Y-230020857D01*
X162634475Y-230211333D01*
X162634475Y-230449428D01*
X162682094Y-230639904D01*
X162729713Y-230735142D01*
X162777332Y-230782761D01*
X162872570Y-230830380D01*
X162967808Y-230830380D01*
X163063046Y-230782761D01*
X163110665Y-230735142D01*
X163158284Y-230639904D01*
X163205903Y-230449428D01*
X163205903Y-230211333D01*
X163158284Y-230020857D01*
X163110665Y-229925619D01*
X163063046Y-229878000D01*
X162967808Y-229830380D01*
%TO.C,C69*%
X51442857Y-115157142D02*
X51490476Y-115204761D01*
X51633333Y-115252380D01*
X51728571Y-115252380D01*
X51871428Y-115204761D01*
X51966666Y-115109523D01*
X52014285Y-115014285D01*
X52061904Y-114823809D01*
X52061904Y-114680952D01*
X52014285Y-114490476D01*
X51966666Y-114395238D01*
X51871428Y-114300000D01*
X51728571Y-114252380D01*
X51633333Y-114252380D01*
X51490476Y-114300000D01*
X51442857Y-114347619D01*
X50585714Y-114252380D02*
X50776190Y-114252380D01*
X50871428Y-114300000D01*
X50919047Y-114347619D01*
X51014285Y-114490476D01*
X51061904Y-114680952D01*
X51061904Y-115061904D01*
X51014285Y-115157142D01*
X50966666Y-115204761D01*
X50871428Y-115252380D01*
X50680952Y-115252380D01*
X50585714Y-115204761D01*
X50538095Y-115157142D01*
X50490476Y-115061904D01*
X50490476Y-114823809D01*
X50538095Y-114728571D01*
X50585714Y-114680952D01*
X50680952Y-114633333D01*
X50871428Y-114633333D01*
X50966666Y-114680952D01*
X51014285Y-114728571D01*
X51061904Y-114823809D01*
X50014285Y-115252380D02*
X49823809Y-115252380D01*
X49728571Y-115204761D01*
X49680952Y-115157142D01*
X49585714Y-115014285D01*
X49538095Y-114823809D01*
X49538095Y-114442857D01*
X49585714Y-114347619D01*
X49633333Y-114300000D01*
X49728571Y-114252380D01*
X49919047Y-114252380D01*
X50014285Y-114300000D01*
X50061904Y-114347619D01*
X50109523Y-114442857D01*
X50109523Y-114680952D01*
X50061904Y-114776190D01*
X50014285Y-114823809D01*
X49919047Y-114871428D01*
X49728571Y-114871428D01*
X49633333Y-114823809D01*
X49585714Y-114776190D01*
X49538095Y-114680952D01*
%TO.C,D69*%
X143792206Y-231301166D02*
X143792206Y-230301166D01*
X143554111Y-230301166D01*
X143411254Y-230348786D01*
X143316016Y-230444024D01*
X143268397Y-230539262D01*
X143220778Y-230729738D01*
X143220778Y-230872595D01*
X143268397Y-231063071D01*
X143316016Y-231158309D01*
X143411254Y-231253547D01*
X143554111Y-231301166D01*
X143792206Y-231301166D01*
X142363635Y-230301166D02*
X142554111Y-230301166D01*
X142649349Y-230348786D01*
X142696968Y-230396405D01*
X142792206Y-230539262D01*
X142839825Y-230729738D01*
X142839825Y-231110690D01*
X142792206Y-231205928D01*
X142744587Y-231253547D01*
X142649349Y-231301166D01*
X142458873Y-231301166D01*
X142363635Y-231253547D01*
X142316016Y-231205928D01*
X142268397Y-231110690D01*
X142268397Y-230872595D01*
X142316016Y-230777357D01*
X142363635Y-230729738D01*
X142458873Y-230682119D01*
X142649349Y-230682119D01*
X142744587Y-230729738D01*
X142792206Y-230777357D01*
X142839825Y-230872595D01*
X141792206Y-231301166D02*
X141601730Y-231301166D01*
X141506492Y-231253547D01*
X141458873Y-231205928D01*
X141363635Y-231063071D01*
X141316016Y-230872595D01*
X141316016Y-230491643D01*
X141363635Y-230396405D01*
X141411254Y-230348786D01*
X141506492Y-230301166D01*
X141696968Y-230301166D01*
X141792206Y-230348786D01*
X141839825Y-230396405D01*
X141887444Y-230491643D01*
X141887444Y-230729738D01*
X141839825Y-230824976D01*
X141792206Y-230872595D01*
X141696968Y-230920214D01*
X141506492Y-230920214D01*
X141411254Y-230872595D01*
X141363635Y-230824976D01*
X141316016Y-230729738D01*
%TO.C,D8*%
X46712095Y-82240380D02*
X46712095Y-81240380D01*
X46474000Y-81240380D01*
X46331142Y-81288000D01*
X46235904Y-81383238D01*
X46188285Y-81478476D01*
X46140666Y-81668952D01*
X46140666Y-81811809D01*
X46188285Y-82002285D01*
X46235904Y-82097523D01*
X46331142Y-82192761D01*
X46474000Y-82240380D01*
X46712095Y-82240380D01*
X45569238Y-81668952D02*
X45664476Y-81621333D01*
X45712095Y-81573714D01*
X45759714Y-81478476D01*
X45759714Y-81430857D01*
X45712095Y-81335619D01*
X45664476Y-81288000D01*
X45569238Y-81240380D01*
X45378761Y-81240380D01*
X45283523Y-81288000D01*
X45235904Y-81335619D01*
X45188285Y-81430857D01*
X45188285Y-81478476D01*
X45235904Y-81573714D01*
X45283523Y-81621333D01*
X45378761Y-81668952D01*
X45569238Y-81668952D01*
X45664476Y-81716571D01*
X45712095Y-81764190D01*
X45759714Y-81859428D01*
X45759714Y-82049904D01*
X45712095Y-82145142D01*
X45664476Y-82192761D01*
X45569238Y-82240380D01*
X45378761Y-82240380D01*
X45283523Y-82192761D01*
X45235904Y-82145142D01*
X45188285Y-82049904D01*
X45188285Y-81859428D01*
X45235904Y-81764190D01*
X45283523Y-81716571D01*
X45378761Y-81668952D01*
%TO.C,D72*%
X127767051Y-230830380D02*
X127767051Y-229830380D01*
X127528956Y-229830380D01*
X127386099Y-229878000D01*
X127290861Y-229973238D01*
X127243242Y-230068476D01*
X127195623Y-230258952D01*
X127195623Y-230401809D01*
X127243242Y-230592285D01*
X127290861Y-230687523D01*
X127386099Y-230782761D01*
X127528956Y-230830380D01*
X127767051Y-230830380D01*
X126862289Y-229830380D02*
X126195623Y-229830380D01*
X126624194Y-230830380D01*
X125862289Y-229925619D02*
X125814670Y-229878000D01*
X125719432Y-229830380D01*
X125481337Y-229830380D01*
X125386099Y-229878000D01*
X125338480Y-229925619D01*
X125290861Y-230020857D01*
X125290861Y-230116095D01*
X125338480Y-230258952D01*
X125909908Y-230830380D01*
X125290861Y-230830380D01*
%TO.C,D142*%
X212352476Y-213050380D02*
X212352476Y-212050380D01*
X212114380Y-212050380D01*
X211971523Y-212098000D01*
X211876285Y-212193238D01*
X211828666Y-212288476D01*
X211781047Y-212478952D01*
X211781047Y-212621809D01*
X211828666Y-212812285D01*
X211876285Y-212907523D01*
X211971523Y-213002761D01*
X212114380Y-213050380D01*
X212352476Y-213050380D01*
X210828666Y-213050380D02*
X211400095Y-213050380D01*
X211114380Y-213050380D02*
X211114380Y-212050380D01*
X211209619Y-212193238D01*
X211304857Y-212288476D01*
X211400095Y-212336095D01*
X209971523Y-212383714D02*
X209971523Y-213050380D01*
X210209619Y-212002761D02*
X210447714Y-212717047D01*
X209828666Y-212717047D01*
X209495333Y-212145619D02*
X209447714Y-212098000D01*
X209352476Y-212050380D01*
X209114380Y-212050380D01*
X209019142Y-212098000D01*
X208971523Y-212145619D01*
X208923904Y-212240857D01*
X208923904Y-212336095D01*
X208971523Y-212478952D01*
X209542952Y-213050380D01*
X208923904Y-213050380D01*
%TO.C,R8*%
X50966666Y-129952380D02*
X51300000Y-129476190D01*
X51538095Y-129952380D02*
X51538095Y-128952380D01*
X51157142Y-128952380D01*
X51061904Y-129000000D01*
X51014285Y-129047619D01*
X50966666Y-129142857D01*
X50966666Y-129285714D01*
X51014285Y-129380952D01*
X51061904Y-129428571D01*
X51157142Y-129476190D01*
X51538095Y-129476190D01*
X50395238Y-129380952D02*
X50490476Y-129333333D01*
X50538095Y-129285714D01*
X50585714Y-129190476D01*
X50585714Y-129142857D01*
X50538095Y-129047619D01*
X50490476Y-129000000D01*
X50395238Y-128952380D01*
X50204761Y-128952380D01*
X50109523Y-129000000D01*
X50061904Y-129047619D01*
X50014285Y-129142857D01*
X50014285Y-129190476D01*
X50061904Y-129285714D01*
X50109523Y-129333333D01*
X50204761Y-129380952D01*
X50395238Y-129380952D01*
X50490476Y-129428571D01*
X50538095Y-129476190D01*
X50585714Y-129571428D01*
X50585714Y-129761904D01*
X50538095Y-129857142D01*
X50490476Y-129904761D01*
X50395238Y-129952380D01*
X50204761Y-129952380D01*
X50109523Y-129904761D01*
X50061904Y-129857142D01*
X50014285Y-129761904D01*
X50014285Y-129571428D01*
X50061904Y-129476190D01*
X50109523Y-129428571D01*
X50204761Y-129380952D01*
%TO.C,D6*%
X314983904Y-118927619D02*
X314983904Y-119927619D01*
X315222000Y-119927619D01*
X315364857Y-119880000D01*
X315460095Y-119784761D01*
X315507714Y-119689523D01*
X315555333Y-119499047D01*
X315555333Y-119356190D01*
X315507714Y-119165714D01*
X315460095Y-119070476D01*
X315364857Y-118975238D01*
X315222000Y-118927619D01*
X314983904Y-118927619D01*
X316412476Y-119927619D02*
X316222000Y-119927619D01*
X316126761Y-119880000D01*
X316079142Y-119832380D01*
X315983904Y-119689523D01*
X315936285Y-119499047D01*
X315936285Y-119118095D01*
X315983904Y-119022857D01*
X316031523Y-118975238D01*
X316126761Y-118927619D01*
X316317238Y-118927619D01*
X316412476Y-118975238D01*
X316460095Y-119022857D01*
X316507714Y-119118095D01*
X316507714Y-119356190D01*
X316460095Y-119451428D01*
X316412476Y-119499047D01*
X316317238Y-119546666D01*
X316126761Y-119546666D01*
X316031523Y-119499047D01*
X315983904Y-119451428D01*
X315936285Y-119356190D01*
%TO.C,R3*%
X51066666Y-159852380D02*
X51400000Y-159376190D01*
X51638095Y-159852380D02*
X51638095Y-158852380D01*
X51257142Y-158852380D01*
X51161904Y-158900000D01*
X51114285Y-158947619D01*
X51066666Y-159042857D01*
X51066666Y-159185714D01*
X51114285Y-159280952D01*
X51161904Y-159328571D01*
X51257142Y-159376190D01*
X51638095Y-159376190D01*
X50733333Y-158852380D02*
X50114285Y-158852380D01*
X50447619Y-159233333D01*
X50304761Y-159233333D01*
X50209523Y-159280952D01*
X50161904Y-159328571D01*
X50114285Y-159423809D01*
X50114285Y-159661904D01*
X50161904Y-159757142D01*
X50209523Y-159804761D01*
X50304761Y-159852380D01*
X50590476Y-159852380D01*
X50685714Y-159804761D01*
X50733333Y-159757142D01*
%TO.C,D36*%
X67335286Y-127452380D02*
X67335286Y-126452380D01*
X67097191Y-126452380D01*
X66954334Y-126500000D01*
X66859096Y-126595238D01*
X66811477Y-126690476D01*
X66763858Y-126880952D01*
X66763858Y-127023809D01*
X66811477Y-127214285D01*
X66859096Y-127309523D01*
X66954334Y-127404761D01*
X67097191Y-127452380D01*
X67335286Y-127452380D01*
X66430524Y-126452380D02*
X65811477Y-126452380D01*
X66144810Y-126833333D01*
X66001953Y-126833333D01*
X65906715Y-126880952D01*
X65859096Y-126928571D01*
X65811477Y-127023809D01*
X65811477Y-127261904D01*
X65859096Y-127357142D01*
X65906715Y-127404761D01*
X66001953Y-127452380D01*
X66287667Y-127452380D01*
X66382905Y-127404761D01*
X66430524Y-127357142D01*
X64954334Y-126452380D02*
X65144810Y-126452380D01*
X65240048Y-126500000D01*
X65287667Y-126547619D01*
X65382905Y-126690476D01*
X65430524Y-126880952D01*
X65430524Y-127261904D01*
X65382905Y-127357142D01*
X65335286Y-127404761D01*
X65240048Y-127452380D01*
X65049572Y-127452380D01*
X64954334Y-127404761D01*
X64906715Y-127357142D01*
X64859096Y-127261904D01*
X64859096Y-127023809D01*
X64906715Y-126928571D01*
X64954334Y-126880952D01*
X65049572Y-126833333D01*
X65240048Y-126833333D01*
X65335286Y-126880952D01*
X65382905Y-126928571D01*
X65430524Y-127023809D01*
%TO.C,D38*%
X67508285Y-115672380D02*
X67508285Y-114672380D01*
X67270190Y-114672380D01*
X67127333Y-114720000D01*
X67032095Y-114815238D01*
X66984476Y-114910476D01*
X66936857Y-115100952D01*
X66936857Y-115243809D01*
X66984476Y-115434285D01*
X67032095Y-115529523D01*
X67127333Y-115624761D01*
X67270190Y-115672380D01*
X67508285Y-115672380D01*
X66603523Y-114672380D02*
X65984476Y-114672380D01*
X66317809Y-115053333D01*
X66174952Y-115053333D01*
X66079714Y-115100952D01*
X66032095Y-115148571D01*
X65984476Y-115243809D01*
X65984476Y-115481904D01*
X66032095Y-115577142D01*
X66079714Y-115624761D01*
X66174952Y-115672380D01*
X66460666Y-115672380D01*
X66555904Y-115624761D01*
X66603523Y-115577142D01*
X65413047Y-115100952D02*
X65508285Y-115053333D01*
X65555904Y-115005714D01*
X65603523Y-114910476D01*
X65603523Y-114862857D01*
X65555904Y-114767619D01*
X65508285Y-114720000D01*
X65413047Y-114672380D01*
X65222571Y-114672380D01*
X65127333Y-114720000D01*
X65079714Y-114767619D01*
X65032095Y-114862857D01*
X65032095Y-114910476D01*
X65079714Y-115005714D01*
X65127333Y-115053333D01*
X65222571Y-115100952D01*
X65413047Y-115100952D01*
X65508285Y-115148571D01*
X65555904Y-115196190D01*
X65603523Y-115291428D01*
X65603523Y-115481904D01*
X65555904Y-115577142D01*
X65508285Y-115624761D01*
X65413047Y-115672380D01*
X65222571Y-115672380D01*
X65127333Y-115624761D01*
X65079714Y-115577142D01*
X65032095Y-115481904D01*
X65032095Y-115291428D01*
X65079714Y-115196190D01*
X65127333Y-115148571D01*
X65222571Y-115100952D01*
%TO.C,D32*%
X68814285Y-151952380D02*
X68814285Y-150952380D01*
X68576190Y-150952380D01*
X68433333Y-151000000D01*
X68338095Y-151095238D01*
X68290476Y-151190476D01*
X68242857Y-151380952D01*
X68242857Y-151523809D01*
X68290476Y-151714285D01*
X68338095Y-151809523D01*
X68433333Y-151904761D01*
X68576190Y-151952380D01*
X68814285Y-151952380D01*
X67909523Y-150952380D02*
X67290476Y-150952380D01*
X67623809Y-151333333D01*
X67480952Y-151333333D01*
X67385714Y-151380952D01*
X67338095Y-151428571D01*
X67290476Y-151523809D01*
X67290476Y-151761904D01*
X67338095Y-151857142D01*
X67385714Y-151904761D01*
X67480952Y-151952380D01*
X67766666Y-151952380D01*
X67861904Y-151904761D01*
X67909523Y-151857142D01*
X66909523Y-151047619D02*
X66861904Y-151000000D01*
X66766666Y-150952380D01*
X66528571Y-150952380D01*
X66433333Y-151000000D01*
X66385714Y-151047619D01*
X66338095Y-151142857D01*
X66338095Y-151238095D01*
X66385714Y-151380952D01*
X66957142Y-151952380D01*
X66338095Y-151952380D01*
%TO.C,D35*%
X69032285Y-138628380D02*
X69032285Y-137628380D01*
X68794190Y-137628380D01*
X68651333Y-137676000D01*
X68556095Y-137771238D01*
X68508476Y-137866476D01*
X68460857Y-138056952D01*
X68460857Y-138199809D01*
X68508476Y-138390285D01*
X68556095Y-138485523D01*
X68651333Y-138580761D01*
X68794190Y-138628380D01*
X69032285Y-138628380D01*
X68127523Y-137628380D02*
X67508476Y-137628380D01*
X67841809Y-138009333D01*
X67698952Y-138009333D01*
X67603714Y-138056952D01*
X67556095Y-138104571D01*
X67508476Y-138199809D01*
X67508476Y-138437904D01*
X67556095Y-138533142D01*
X67603714Y-138580761D01*
X67698952Y-138628380D01*
X67984666Y-138628380D01*
X68079904Y-138580761D01*
X68127523Y-138533142D01*
X66603714Y-137628380D02*
X67079904Y-137628380D01*
X67127523Y-138104571D01*
X67079904Y-138056952D01*
X66984666Y-138009333D01*
X66746571Y-138009333D01*
X66651333Y-138056952D01*
X66603714Y-138104571D01*
X66556095Y-138199809D01*
X66556095Y-138437904D01*
X66603714Y-138533142D01*
X66651333Y-138580761D01*
X66746571Y-138628380D01*
X66984666Y-138628380D01*
X67079904Y-138580761D01*
X67127523Y-138533142D01*
%TO.C,D96*%
X131516285Y-37028380D02*
X131516285Y-36028380D01*
X131278190Y-36028380D01*
X131135333Y-36076000D01*
X131040095Y-36171238D01*
X130992476Y-36266476D01*
X130944857Y-36456952D01*
X130944857Y-36599809D01*
X130992476Y-36790285D01*
X131040095Y-36885523D01*
X131135333Y-36980761D01*
X131278190Y-37028380D01*
X131516285Y-37028380D01*
X130468666Y-37028380D02*
X130278190Y-37028380D01*
X130182952Y-36980761D01*
X130135333Y-36933142D01*
X130040095Y-36790285D01*
X129992476Y-36599809D01*
X129992476Y-36218857D01*
X130040095Y-36123619D01*
X130087714Y-36076000D01*
X130182952Y-36028380D01*
X130373428Y-36028380D01*
X130468666Y-36076000D01*
X130516285Y-36123619D01*
X130563904Y-36218857D01*
X130563904Y-36456952D01*
X130516285Y-36552190D01*
X130468666Y-36599809D01*
X130373428Y-36647428D01*
X130182952Y-36647428D01*
X130087714Y-36599809D01*
X130040095Y-36552190D01*
X129992476Y-36456952D01*
X129135333Y-36028380D02*
X129325809Y-36028380D01*
X129421047Y-36076000D01*
X129468666Y-36123619D01*
X129563904Y-36266476D01*
X129611523Y-36456952D01*
X129611523Y-36837904D01*
X129563904Y-36933142D01*
X129516285Y-36980761D01*
X129421047Y-37028380D01*
X129230571Y-37028380D01*
X129135333Y-36980761D01*
X129087714Y-36933142D01*
X129040095Y-36837904D01*
X129040095Y-36599809D01*
X129087714Y-36504571D01*
X129135333Y-36456952D01*
X129230571Y-36409333D01*
X129421047Y-36409333D01*
X129516285Y-36456952D01*
X129563904Y-36504571D01*
X129611523Y-36599809D01*
%TO.C,D29*%
X65353951Y-63698380D02*
X65353951Y-62698380D01*
X65115856Y-62698380D01*
X64972999Y-62746000D01*
X64877761Y-62841238D01*
X64830142Y-62936476D01*
X64782523Y-63126952D01*
X64782523Y-63269809D01*
X64830142Y-63460285D01*
X64877761Y-63555523D01*
X64972999Y-63650761D01*
X65115856Y-63698380D01*
X65353951Y-63698380D01*
X64401570Y-62793619D02*
X64353951Y-62746000D01*
X64258713Y-62698380D01*
X64020618Y-62698380D01*
X63925380Y-62746000D01*
X63877761Y-62793619D01*
X63830142Y-62888857D01*
X63830142Y-62984095D01*
X63877761Y-63126952D01*
X64449189Y-63698380D01*
X63830142Y-63698380D01*
X63353951Y-63698380D02*
X63163475Y-63698380D01*
X63068237Y-63650761D01*
X63020618Y-63603142D01*
X62925380Y-63460285D01*
X62877761Y-63269809D01*
X62877761Y-62888857D01*
X62925380Y-62793619D01*
X62972999Y-62746000D01*
X63068237Y-62698380D01*
X63258713Y-62698380D01*
X63353951Y-62746000D01*
X63401570Y-62793619D01*
X63449189Y-62888857D01*
X63449189Y-63126952D01*
X63401570Y-63222190D01*
X63353951Y-63269809D01*
X63258713Y-63317428D01*
X63068237Y-63317428D01*
X62972999Y-63269809D01*
X62925380Y-63222190D01*
X62877761Y-63126952D01*
%TO.C,D94*%
X89352285Y-36774380D02*
X89352285Y-35774380D01*
X89114190Y-35774380D01*
X88971333Y-35822000D01*
X88876095Y-35917238D01*
X88828476Y-36012476D01*
X88780857Y-36202952D01*
X88780857Y-36345809D01*
X88828476Y-36536285D01*
X88876095Y-36631523D01*
X88971333Y-36726761D01*
X89114190Y-36774380D01*
X89352285Y-36774380D01*
X88304666Y-36774380D02*
X88114190Y-36774380D01*
X88018952Y-36726761D01*
X87971333Y-36679142D01*
X87876095Y-36536285D01*
X87828476Y-36345809D01*
X87828476Y-35964857D01*
X87876095Y-35869619D01*
X87923714Y-35822000D01*
X88018952Y-35774380D01*
X88209428Y-35774380D01*
X88304666Y-35822000D01*
X88352285Y-35869619D01*
X88399904Y-35964857D01*
X88399904Y-36202952D01*
X88352285Y-36298190D01*
X88304666Y-36345809D01*
X88209428Y-36393428D01*
X88018952Y-36393428D01*
X87923714Y-36345809D01*
X87876095Y-36298190D01*
X87828476Y-36202952D01*
X86971333Y-36107714D02*
X86971333Y-36774380D01*
X87209428Y-35726761D02*
X87447523Y-36441047D01*
X86828476Y-36441047D01*
%TO.C,D68*%
X123388285Y-230830380D02*
X123388285Y-229830380D01*
X123150190Y-229830380D01*
X123007333Y-229878000D01*
X122912095Y-229973238D01*
X122864476Y-230068476D01*
X122816857Y-230258952D01*
X122816857Y-230401809D01*
X122864476Y-230592285D01*
X122912095Y-230687523D01*
X123007333Y-230782761D01*
X123150190Y-230830380D01*
X123388285Y-230830380D01*
X121959714Y-229830380D02*
X122150190Y-229830380D01*
X122245428Y-229878000D01*
X122293047Y-229925619D01*
X122388285Y-230068476D01*
X122435904Y-230258952D01*
X122435904Y-230639904D01*
X122388285Y-230735142D01*
X122340666Y-230782761D01*
X122245428Y-230830380D01*
X122054952Y-230830380D01*
X121959714Y-230782761D01*
X121912095Y-230735142D01*
X121864476Y-230639904D01*
X121864476Y-230401809D01*
X121912095Y-230306571D01*
X121959714Y-230258952D01*
X122054952Y-230211333D01*
X122245428Y-230211333D01*
X122340666Y-230258952D01*
X122388285Y-230306571D01*
X122435904Y-230401809D01*
X121293047Y-230258952D02*
X121388285Y-230211333D01*
X121435904Y-230163714D01*
X121483523Y-230068476D01*
X121483523Y-230020857D01*
X121435904Y-229925619D01*
X121388285Y-229878000D01*
X121293047Y-229830380D01*
X121102571Y-229830380D01*
X121007333Y-229878000D01*
X120959714Y-229925619D01*
X120912095Y-230020857D01*
X120912095Y-230068476D01*
X120959714Y-230163714D01*
X121007333Y-230211333D01*
X121102571Y-230258952D01*
X121293047Y-230258952D01*
X121388285Y-230306571D01*
X121435904Y-230354190D01*
X121483523Y-230449428D01*
X121483523Y-230639904D01*
X121435904Y-230735142D01*
X121388285Y-230782761D01*
X121293047Y-230830380D01*
X121102571Y-230830380D01*
X121007333Y-230782761D01*
X120959714Y-230735142D01*
X120912095Y-230639904D01*
X120912095Y-230449428D01*
X120959714Y-230354190D01*
X121007333Y-230306571D01*
X121102571Y-230258952D01*
%TO.C,D159*%
X118022476Y-164028380D02*
X118022476Y-163028380D01*
X117784380Y-163028380D01*
X117641523Y-163076000D01*
X117546285Y-163171238D01*
X117498666Y-163266476D01*
X117451047Y-163456952D01*
X117451047Y-163599809D01*
X117498666Y-163790285D01*
X117546285Y-163885523D01*
X117641523Y-163980761D01*
X117784380Y-164028380D01*
X118022476Y-164028380D01*
X116498666Y-164028380D02*
X117070095Y-164028380D01*
X116784380Y-164028380D02*
X116784380Y-163028380D01*
X116879619Y-163171238D01*
X116974857Y-163266476D01*
X117070095Y-163314095D01*
X115593904Y-163028380D02*
X116070095Y-163028380D01*
X116117714Y-163504571D01*
X116070095Y-163456952D01*
X115974857Y-163409333D01*
X115736761Y-163409333D01*
X115641523Y-163456952D01*
X115593904Y-163504571D01*
X115546285Y-163599809D01*
X115546285Y-163837904D01*
X115593904Y-163933142D01*
X115641523Y-163980761D01*
X115736761Y-164028380D01*
X115974857Y-164028380D01*
X116070095Y-163980761D01*
X116117714Y-163933142D01*
X115070095Y-164028380D02*
X114879619Y-164028380D01*
X114784380Y-163980761D01*
X114736761Y-163933142D01*
X114641523Y-163790285D01*
X114593904Y-163599809D01*
X114593904Y-163218857D01*
X114641523Y-163123619D01*
X114689142Y-163076000D01*
X114784380Y-163028380D01*
X114974857Y-163028380D01*
X115070095Y-163076000D01*
X115117714Y-163123619D01*
X115165333Y-163218857D01*
X115165333Y-163456952D01*
X115117714Y-163552190D01*
X115070095Y-163599809D01*
X114974857Y-163647428D01*
X114784380Y-163647428D01*
X114689142Y-163599809D01*
X114641523Y-163552190D01*
X114593904Y-163456952D01*
%TO.C,D114*%
X212922476Y-37028380D02*
X212922476Y-36028380D01*
X212684380Y-36028380D01*
X212541523Y-36076000D01*
X212446285Y-36171238D01*
X212398666Y-36266476D01*
X212351047Y-36456952D01*
X212351047Y-36599809D01*
X212398666Y-36790285D01*
X212446285Y-36885523D01*
X212541523Y-36980761D01*
X212684380Y-37028380D01*
X212922476Y-37028380D01*
X211398666Y-37028380D02*
X211970095Y-37028380D01*
X211684380Y-37028380D02*
X211684380Y-36028380D01*
X211779619Y-36171238D01*
X211874857Y-36266476D01*
X211970095Y-36314095D01*
X210446285Y-37028380D02*
X211017714Y-37028380D01*
X210732000Y-37028380D02*
X210732000Y-36028380D01*
X210827238Y-36171238D01*
X210922476Y-36266476D01*
X211017714Y-36314095D01*
X209589142Y-36361714D02*
X209589142Y-37028380D01*
X209827238Y-35980761D02*
X210065333Y-36695047D01*
X209446285Y-36695047D01*
%TO.C,D55*%
X296108285Y-241498380D02*
X296108285Y-240498380D01*
X295870190Y-240498380D01*
X295727333Y-240546000D01*
X295632095Y-240641238D01*
X295584476Y-240736476D01*
X295536857Y-240926952D01*
X295536857Y-241069809D01*
X295584476Y-241260285D01*
X295632095Y-241355523D01*
X295727333Y-241450761D01*
X295870190Y-241498380D01*
X296108285Y-241498380D01*
X294632095Y-240498380D02*
X295108285Y-240498380D01*
X295155904Y-240974571D01*
X295108285Y-240926952D01*
X295013047Y-240879333D01*
X294774952Y-240879333D01*
X294679714Y-240926952D01*
X294632095Y-240974571D01*
X294584476Y-241069809D01*
X294584476Y-241307904D01*
X294632095Y-241403142D01*
X294679714Y-241450761D01*
X294774952Y-241498380D01*
X295013047Y-241498380D01*
X295108285Y-241450761D01*
X295155904Y-241403142D01*
X293679714Y-240498380D02*
X294155904Y-240498380D01*
X294203523Y-240974571D01*
X294155904Y-240926952D01*
X294060666Y-240879333D01*
X293822571Y-240879333D01*
X293727333Y-240926952D01*
X293679714Y-240974571D01*
X293632095Y-241069809D01*
X293632095Y-241307904D01*
X293679714Y-241403142D01*
X293727333Y-241450761D01*
X293822571Y-241498380D01*
X294060666Y-241498380D01*
X294155904Y-241450761D01*
X294203523Y-241403142D01*
%TO.C,D79*%
X170124285Y-36520380D02*
X170124285Y-35520380D01*
X169886190Y-35520380D01*
X169743333Y-35568000D01*
X169648095Y-35663238D01*
X169600476Y-35758476D01*
X169552857Y-35948952D01*
X169552857Y-36091809D01*
X169600476Y-36282285D01*
X169648095Y-36377523D01*
X169743333Y-36472761D01*
X169886190Y-36520380D01*
X170124285Y-36520380D01*
X169219523Y-35520380D02*
X168552857Y-35520380D01*
X168981428Y-36520380D01*
X168124285Y-36520380D02*
X167933809Y-36520380D01*
X167838571Y-36472761D01*
X167790952Y-36425142D01*
X167695714Y-36282285D01*
X167648095Y-36091809D01*
X167648095Y-35710857D01*
X167695714Y-35615619D01*
X167743333Y-35568000D01*
X167838571Y-35520380D01*
X168029047Y-35520380D01*
X168124285Y-35568000D01*
X168171904Y-35615619D01*
X168219523Y-35710857D01*
X168219523Y-35948952D01*
X168171904Y-36044190D01*
X168124285Y-36091809D01*
X168029047Y-36139428D01*
X167838571Y-36139428D01*
X167743333Y-36091809D01*
X167695714Y-36044190D01*
X167648095Y-35948952D01*
%TO.C,D143*%
X193757097Y-209464360D02*
X192757097Y-209464360D01*
X192757097Y-209702456D01*
X192804717Y-209845313D01*
X192899955Y-209940551D01*
X192995193Y-209988170D01*
X193185669Y-210035789D01*
X193328526Y-210035789D01*
X193519002Y-209988170D01*
X193614240Y-209940551D01*
X193709478Y-209845313D01*
X193757097Y-209702456D01*
X193757097Y-209464360D01*
X193757097Y-210988170D02*
X193757097Y-210416741D01*
X193757097Y-210702456D02*
X192757097Y-210702456D01*
X192899955Y-210607217D01*
X192995193Y-210511979D01*
X193042812Y-210416741D01*
X193090431Y-211845313D02*
X193757097Y-211845313D01*
X192709478Y-211607217D02*
X193423764Y-211369122D01*
X193423764Y-211988170D01*
X192757097Y-212273884D02*
X192757097Y-212892932D01*
X193138050Y-212559598D01*
X193138050Y-212702456D01*
X193185669Y-212797694D01*
X193233288Y-212845313D01*
X193328526Y-212892932D01*
X193566621Y-212892932D01*
X193661859Y-212845313D01*
X193709478Y-212797694D01*
X193757097Y-212702456D01*
X193757097Y-212416741D01*
X193709478Y-212321503D01*
X193661859Y-212273884D01*
%TO.C,D16*%
X93162285Y-69636380D02*
X93162285Y-68636380D01*
X92924190Y-68636380D01*
X92781333Y-68684000D01*
X92686095Y-68779238D01*
X92638476Y-68874476D01*
X92590857Y-69064952D01*
X92590857Y-69207809D01*
X92638476Y-69398285D01*
X92686095Y-69493523D01*
X92781333Y-69588761D01*
X92924190Y-69636380D01*
X93162285Y-69636380D01*
X91638476Y-69636380D02*
X92209904Y-69636380D01*
X91924190Y-69636380D02*
X91924190Y-68636380D01*
X92019428Y-68779238D01*
X92114666Y-68874476D01*
X92209904Y-68922095D01*
X90781333Y-68636380D02*
X90971809Y-68636380D01*
X91067047Y-68684000D01*
X91114666Y-68731619D01*
X91209904Y-68874476D01*
X91257523Y-69064952D01*
X91257523Y-69445904D01*
X91209904Y-69541142D01*
X91162285Y-69588761D01*
X91067047Y-69636380D01*
X90876571Y-69636380D01*
X90781333Y-69588761D01*
X90733714Y-69541142D01*
X90686095Y-69445904D01*
X90686095Y-69207809D01*
X90733714Y-69112571D01*
X90781333Y-69064952D01*
X90876571Y-69017333D01*
X91067047Y-69017333D01*
X91162285Y-69064952D01*
X91209904Y-69112571D01*
X91257523Y-69207809D01*
%TO.C,C62*%
X51589047Y-135657142D02*
X51636666Y-135704761D01*
X51779523Y-135752380D01*
X51874761Y-135752380D01*
X52017618Y-135704761D01*
X52112856Y-135609523D01*
X52160475Y-135514285D01*
X52208094Y-135323809D01*
X52208094Y-135180952D01*
X52160475Y-134990476D01*
X52112856Y-134895238D01*
X52017618Y-134800000D01*
X51874761Y-134752380D01*
X51779523Y-134752380D01*
X51636666Y-134800000D01*
X51589047Y-134847619D01*
X50731904Y-134752380D02*
X50922380Y-134752380D01*
X51017618Y-134800000D01*
X51065237Y-134847619D01*
X51160475Y-134990476D01*
X51208094Y-135180952D01*
X51208094Y-135561904D01*
X51160475Y-135657142D01*
X51112856Y-135704761D01*
X51017618Y-135752380D01*
X50827142Y-135752380D01*
X50731904Y-135704761D01*
X50684285Y-135657142D01*
X50636666Y-135561904D01*
X50636666Y-135323809D01*
X50684285Y-135228571D01*
X50731904Y-135180952D01*
X50827142Y-135133333D01*
X51017618Y-135133333D01*
X51112856Y-135180952D01*
X51160475Y-135228571D01*
X51208094Y-135323809D01*
X50255713Y-134847619D02*
X50208094Y-134800000D01*
X50112856Y-134752380D01*
X49874761Y-134752380D01*
X49779523Y-134800000D01*
X49731904Y-134847619D01*
X49684285Y-134942857D01*
X49684285Y-135038095D01*
X49731904Y-135180952D01*
X50303332Y-135752380D01*
X49684285Y-135752380D01*
%TO.C,D91*%
X123896285Y-36774380D02*
X123896285Y-35774380D01*
X123658190Y-35774380D01*
X123515333Y-35822000D01*
X123420095Y-35917238D01*
X123372476Y-36012476D01*
X123324857Y-36202952D01*
X123324857Y-36345809D01*
X123372476Y-36536285D01*
X123420095Y-36631523D01*
X123515333Y-36726761D01*
X123658190Y-36774380D01*
X123896285Y-36774380D01*
X122848666Y-36774380D02*
X122658190Y-36774380D01*
X122562952Y-36726761D01*
X122515333Y-36679142D01*
X122420095Y-36536285D01*
X122372476Y-36345809D01*
X122372476Y-35964857D01*
X122420095Y-35869619D01*
X122467714Y-35822000D01*
X122562952Y-35774380D01*
X122753428Y-35774380D01*
X122848666Y-35822000D01*
X122896285Y-35869619D01*
X122943904Y-35964857D01*
X122943904Y-36202952D01*
X122896285Y-36298190D01*
X122848666Y-36345809D01*
X122753428Y-36393428D01*
X122562952Y-36393428D01*
X122467714Y-36345809D01*
X122420095Y-36298190D01*
X122372476Y-36202952D01*
X121420095Y-36774380D02*
X121991523Y-36774380D01*
X121705809Y-36774380D02*
X121705809Y-35774380D01*
X121801047Y-35917238D01*
X121896285Y-36012476D01*
X121991523Y-36060095D01*
%TO.C,D17*%
X46426285Y-109164380D02*
X46426285Y-108164380D01*
X46188190Y-108164380D01*
X46045333Y-108212000D01*
X45950095Y-108307238D01*
X45902476Y-108402476D01*
X45854857Y-108592952D01*
X45854857Y-108735809D01*
X45902476Y-108926285D01*
X45950095Y-109021523D01*
X46045333Y-109116761D01*
X46188190Y-109164380D01*
X46426285Y-109164380D01*
X44902476Y-109164380D02*
X45473904Y-109164380D01*
X45188190Y-109164380D02*
X45188190Y-108164380D01*
X45283428Y-108307238D01*
X45378666Y-108402476D01*
X45473904Y-108450095D01*
X44569142Y-108164380D02*
X43902476Y-108164380D01*
X44331047Y-109164380D01*
%TO.C,D18*%
X93162285Y-90730380D02*
X93162285Y-89730380D01*
X92924190Y-89730380D01*
X92781333Y-89778000D01*
X92686095Y-89873238D01*
X92638476Y-89968476D01*
X92590857Y-90158952D01*
X92590857Y-90301809D01*
X92638476Y-90492285D01*
X92686095Y-90587523D01*
X92781333Y-90682761D01*
X92924190Y-90730380D01*
X93162285Y-90730380D01*
X91638476Y-90730380D02*
X92209904Y-90730380D01*
X91924190Y-90730380D02*
X91924190Y-89730380D01*
X92019428Y-89873238D01*
X92114666Y-89968476D01*
X92209904Y-90016095D01*
X91067047Y-90158952D02*
X91162285Y-90111333D01*
X91209904Y-90063714D01*
X91257523Y-89968476D01*
X91257523Y-89920857D01*
X91209904Y-89825619D01*
X91162285Y-89778000D01*
X91067047Y-89730380D01*
X90876571Y-89730380D01*
X90781333Y-89778000D01*
X90733714Y-89825619D01*
X90686095Y-89920857D01*
X90686095Y-89968476D01*
X90733714Y-90063714D01*
X90781333Y-90111333D01*
X90876571Y-90158952D01*
X91067047Y-90158952D01*
X91162285Y-90206571D01*
X91209904Y-90254190D01*
X91257523Y-90349428D01*
X91257523Y-90539904D01*
X91209904Y-90635142D01*
X91162285Y-90682761D01*
X91067047Y-90730380D01*
X90876571Y-90730380D01*
X90781333Y-90682761D01*
X90733714Y-90635142D01*
X90686095Y-90539904D01*
X90686095Y-90349428D01*
X90733714Y-90254190D01*
X90781333Y-90206571D01*
X90876571Y-90158952D01*
%TO.C,C78*%
X51442857Y-125057142D02*
X51490476Y-125104761D01*
X51633333Y-125152380D01*
X51728571Y-125152380D01*
X51871428Y-125104761D01*
X51966666Y-125009523D01*
X52014285Y-124914285D01*
X52061904Y-124723809D01*
X52061904Y-124580952D01*
X52014285Y-124390476D01*
X51966666Y-124295238D01*
X51871428Y-124200000D01*
X51728571Y-124152380D01*
X51633333Y-124152380D01*
X51490476Y-124200000D01*
X51442857Y-124247619D01*
X51109523Y-124152380D02*
X50442857Y-124152380D01*
X50871428Y-125152380D01*
X49919047Y-124580952D02*
X50014285Y-124533333D01*
X50061904Y-124485714D01*
X50109523Y-124390476D01*
X50109523Y-124342857D01*
X50061904Y-124247619D01*
X50014285Y-124200000D01*
X49919047Y-124152380D01*
X49728571Y-124152380D01*
X49633333Y-124200000D01*
X49585714Y-124247619D01*
X49538095Y-124342857D01*
X49538095Y-124390476D01*
X49585714Y-124485714D01*
X49633333Y-124533333D01*
X49728571Y-124580952D01*
X49919047Y-124580952D01*
X50014285Y-124628571D01*
X50061904Y-124676190D01*
X50109523Y-124771428D01*
X50109523Y-124961904D01*
X50061904Y-125057142D01*
X50014285Y-125104761D01*
X49919047Y-125152380D01*
X49728571Y-125152380D01*
X49633333Y-125104761D01*
X49585714Y-125057142D01*
X49538095Y-124961904D01*
X49538095Y-124771428D01*
X49585714Y-124676190D01*
X49633333Y-124628571D01*
X49728571Y-124580952D01*
%TO.C,D5*%
X309570380Y-212813904D02*
X308570380Y-212813904D01*
X308570380Y-213052000D01*
X308618000Y-213194857D01*
X308713238Y-213290095D01*
X308808476Y-213337714D01*
X308998952Y-213385333D01*
X309141809Y-213385333D01*
X309332285Y-213337714D01*
X309427523Y-213290095D01*
X309522761Y-213194857D01*
X309570380Y-213052000D01*
X309570380Y-212813904D01*
X308570380Y-214290095D02*
X308570380Y-213813904D01*
X309046571Y-213766285D01*
X308998952Y-213813904D01*
X308951333Y-213909142D01*
X308951333Y-214147238D01*
X308998952Y-214242476D01*
X309046571Y-214290095D01*
X309141809Y-214337714D01*
X309379904Y-214337714D01*
X309475142Y-214290095D01*
X309522761Y-214242476D01*
X309570380Y-214147238D01*
X309570380Y-213909142D01*
X309522761Y-213813904D01*
X309475142Y-213766285D01*
%TO.C,D4*%
X46712095Y-149392380D02*
X46712095Y-148392380D01*
X46474000Y-148392380D01*
X46331142Y-148440000D01*
X46235904Y-148535238D01*
X46188285Y-148630476D01*
X46140666Y-148820952D01*
X46140666Y-148963809D01*
X46188285Y-149154285D01*
X46235904Y-149249523D01*
X46331142Y-149344761D01*
X46474000Y-149392380D01*
X46712095Y-149392380D01*
X45283523Y-148725714D02*
X45283523Y-149392380D01*
X45521619Y-148344761D02*
X45759714Y-149059047D01*
X45140666Y-149059047D01*
%TO.C,D92*%
X146756285Y-37790380D02*
X146756285Y-36790380D01*
X146518190Y-36790380D01*
X146375333Y-36838000D01*
X146280095Y-36933238D01*
X146232476Y-37028476D01*
X146184857Y-37218952D01*
X146184857Y-37361809D01*
X146232476Y-37552285D01*
X146280095Y-37647523D01*
X146375333Y-37742761D01*
X146518190Y-37790380D01*
X146756285Y-37790380D01*
X145708666Y-37790380D02*
X145518190Y-37790380D01*
X145422952Y-37742761D01*
X145375333Y-37695142D01*
X145280095Y-37552285D01*
X145232476Y-37361809D01*
X145232476Y-36980857D01*
X145280095Y-36885619D01*
X145327714Y-36838000D01*
X145422952Y-36790380D01*
X145613428Y-36790380D01*
X145708666Y-36838000D01*
X145756285Y-36885619D01*
X145803904Y-36980857D01*
X145803904Y-37218952D01*
X145756285Y-37314190D01*
X145708666Y-37361809D01*
X145613428Y-37409428D01*
X145422952Y-37409428D01*
X145327714Y-37361809D01*
X145280095Y-37314190D01*
X145232476Y-37218952D01*
X144851523Y-36885619D02*
X144803904Y-36838000D01*
X144708666Y-36790380D01*
X144470571Y-36790380D01*
X144375333Y-36838000D01*
X144327714Y-36885619D01*
X144280095Y-36980857D01*
X144280095Y-37076095D01*
X144327714Y-37218952D01*
X144899142Y-37790380D01*
X144280095Y-37790380D01*
%TO.C,D27*%
X65112285Y-70048380D02*
X65112285Y-69048380D01*
X64874190Y-69048380D01*
X64731333Y-69096000D01*
X64636095Y-69191238D01*
X64588476Y-69286476D01*
X64540857Y-69476952D01*
X64540857Y-69619809D01*
X64588476Y-69810285D01*
X64636095Y-69905523D01*
X64731333Y-70000761D01*
X64874190Y-70048380D01*
X65112285Y-70048380D01*
X64159904Y-69143619D02*
X64112285Y-69096000D01*
X64017047Y-69048380D01*
X63778952Y-69048380D01*
X63683714Y-69096000D01*
X63636095Y-69143619D01*
X63588476Y-69238857D01*
X63588476Y-69334095D01*
X63636095Y-69476952D01*
X64207523Y-70048380D01*
X63588476Y-70048380D01*
X63255142Y-69048380D02*
X62588476Y-69048380D01*
X63017047Y-70048380D01*
%TO.C,D3*%
X46204095Y-99258380D02*
X46204095Y-98258380D01*
X45966000Y-98258380D01*
X45823142Y-98306000D01*
X45727904Y-98401238D01*
X45680285Y-98496476D01*
X45632666Y-98686952D01*
X45632666Y-98829809D01*
X45680285Y-99020285D01*
X45727904Y-99115523D01*
X45823142Y-99210761D01*
X45966000Y-99258380D01*
X46204095Y-99258380D01*
X45299333Y-98258380D02*
X44680285Y-98258380D01*
X45013619Y-98639333D01*
X44870761Y-98639333D01*
X44775523Y-98686952D01*
X44727904Y-98734571D01*
X44680285Y-98829809D01*
X44680285Y-99067904D01*
X44727904Y-99163142D01*
X44775523Y-99210761D01*
X44870761Y-99258380D01*
X45156476Y-99258380D01*
X45251714Y-99210761D01*
X45299333Y-99163142D01*
%TO.C,D11*%
X47442285Y-129230380D02*
X47442285Y-128230380D01*
X47204190Y-128230380D01*
X47061333Y-128278000D01*
X46966095Y-128373238D01*
X46918476Y-128468476D01*
X46870857Y-128658952D01*
X46870857Y-128801809D01*
X46918476Y-128992285D01*
X46966095Y-129087523D01*
X47061333Y-129182761D01*
X47204190Y-129230380D01*
X47442285Y-129230380D01*
X45918476Y-129230380D02*
X46489904Y-129230380D01*
X46204190Y-129230380D02*
X46204190Y-128230380D01*
X46299428Y-128373238D01*
X46394666Y-128468476D01*
X46489904Y-128516095D01*
X44966095Y-129230380D02*
X45537523Y-129230380D01*
X45251809Y-129230380D02*
X45251809Y-128230380D01*
X45347047Y-128373238D01*
X45442285Y-128468476D01*
X45537523Y-128516095D01*
%TO.C,D15*%
X93162285Y-104688380D02*
X93162285Y-103688380D01*
X92924190Y-103688380D01*
X92781333Y-103736000D01*
X92686095Y-103831238D01*
X92638476Y-103926476D01*
X92590857Y-104116952D01*
X92590857Y-104259809D01*
X92638476Y-104450285D01*
X92686095Y-104545523D01*
X92781333Y-104640761D01*
X92924190Y-104688380D01*
X93162285Y-104688380D01*
X91638476Y-104688380D02*
X92209904Y-104688380D01*
X91924190Y-104688380D02*
X91924190Y-103688380D01*
X92019428Y-103831238D01*
X92114666Y-103926476D01*
X92209904Y-103974095D01*
X90733714Y-103688380D02*
X91209904Y-103688380D01*
X91257523Y-104164571D01*
X91209904Y-104116952D01*
X91114666Y-104069333D01*
X90876571Y-104069333D01*
X90781333Y-104116952D01*
X90733714Y-104164571D01*
X90686095Y-104259809D01*
X90686095Y-104497904D01*
X90733714Y-104593142D01*
X90781333Y-104640761D01*
X90876571Y-104688380D01*
X91114666Y-104688380D01*
X91209904Y-104640761D01*
X91257523Y-104593142D01*
%TO.C,C77*%
X51442857Y-145557142D02*
X51490476Y-145604761D01*
X51633333Y-145652380D01*
X51728571Y-145652380D01*
X51871428Y-145604761D01*
X51966666Y-145509523D01*
X52014285Y-145414285D01*
X52061904Y-145223809D01*
X52061904Y-145080952D01*
X52014285Y-144890476D01*
X51966666Y-144795238D01*
X51871428Y-144700000D01*
X51728571Y-144652380D01*
X51633333Y-144652380D01*
X51490476Y-144700000D01*
X51442857Y-144747619D01*
X51109523Y-144652380D02*
X50442857Y-144652380D01*
X50871428Y-145652380D01*
X50157142Y-144652380D02*
X49490476Y-144652380D01*
X49919047Y-145652380D01*
%TO.C,D160*%
X117514476Y-143296380D02*
X117514476Y-142296380D01*
X117276380Y-142296380D01*
X117133523Y-142344000D01*
X117038285Y-142439238D01*
X116990666Y-142534476D01*
X116943047Y-142724952D01*
X116943047Y-142867809D01*
X116990666Y-143058285D01*
X117038285Y-143153523D01*
X117133523Y-143248761D01*
X117276380Y-143296380D01*
X117514476Y-143296380D01*
X115990666Y-143296380D02*
X116562095Y-143296380D01*
X116276380Y-143296380D02*
X116276380Y-142296380D01*
X116371619Y-142439238D01*
X116466857Y-142534476D01*
X116562095Y-142582095D01*
X115133523Y-142296380D02*
X115324000Y-142296380D01*
X115419238Y-142344000D01*
X115466857Y-142391619D01*
X115562095Y-142534476D01*
X115609714Y-142724952D01*
X115609714Y-143105904D01*
X115562095Y-143201142D01*
X115514476Y-143248761D01*
X115419238Y-143296380D01*
X115228761Y-143296380D01*
X115133523Y-143248761D01*
X115085904Y-143201142D01*
X115038285Y-143105904D01*
X115038285Y-142867809D01*
X115085904Y-142772571D01*
X115133523Y-142724952D01*
X115228761Y-142677333D01*
X115419238Y-142677333D01*
X115514476Y-142724952D01*
X115562095Y-142772571D01*
X115609714Y-142867809D01*
X114419238Y-142296380D02*
X114324000Y-142296380D01*
X114228761Y-142344000D01*
X114181142Y-142391619D01*
X114133523Y-142486857D01*
X114085904Y-142677333D01*
X114085904Y-142915428D01*
X114133523Y-143105904D01*
X114181142Y-143201142D01*
X114228761Y-143248761D01*
X114324000Y-143296380D01*
X114419238Y-143296380D01*
X114514476Y-143248761D01*
X114562095Y-143201142D01*
X114609714Y-143105904D01*
X114657333Y-142915428D01*
X114657333Y-142677333D01*
X114609714Y-142486857D01*
X114562095Y-142391619D01*
X114514476Y-142344000D01*
X114419238Y-142296380D01*
%TO.C,D74*%
X173584285Y-230322380D02*
X173584285Y-229322380D01*
X173346190Y-229322380D01*
X173203333Y-229370000D01*
X173108095Y-229465238D01*
X173060476Y-229560476D01*
X173012857Y-229750952D01*
X173012857Y-229893809D01*
X173060476Y-230084285D01*
X173108095Y-230179523D01*
X173203333Y-230274761D01*
X173346190Y-230322380D01*
X173584285Y-230322380D01*
X172679523Y-229322380D02*
X172012857Y-229322380D01*
X172441428Y-230322380D01*
X171203333Y-229655714D02*
X171203333Y-230322380D01*
X171441428Y-229274761D02*
X171679523Y-229989047D01*
X171060476Y-229989047D01*
%TO.C,D56*%
X318110285Y-200350380D02*
X318110285Y-199350380D01*
X317872190Y-199350380D01*
X317729333Y-199398000D01*
X317634095Y-199493238D01*
X317586476Y-199588476D01*
X317538857Y-199778952D01*
X317538857Y-199921809D01*
X317586476Y-200112285D01*
X317634095Y-200207523D01*
X317729333Y-200302761D01*
X317872190Y-200350380D01*
X318110285Y-200350380D01*
X316634095Y-199350380D02*
X317110285Y-199350380D01*
X317157904Y-199826571D01*
X317110285Y-199778952D01*
X317015047Y-199731333D01*
X316776952Y-199731333D01*
X316681714Y-199778952D01*
X316634095Y-199826571D01*
X316586476Y-199921809D01*
X316586476Y-200159904D01*
X316634095Y-200255142D01*
X316681714Y-200302761D01*
X316776952Y-200350380D01*
X317015047Y-200350380D01*
X317110285Y-200302761D01*
X317157904Y-200255142D01*
X315729333Y-199350380D02*
X315919809Y-199350380D01*
X316015047Y-199398000D01*
X316062666Y-199445619D01*
X316157904Y-199588476D01*
X316205523Y-199778952D01*
X316205523Y-200159904D01*
X316157904Y-200255142D01*
X316110285Y-200302761D01*
X316015047Y-200350380D01*
X315824571Y-200350380D01*
X315729333Y-200302761D01*
X315681714Y-200255142D01*
X315634095Y-200159904D01*
X315634095Y-199921809D01*
X315681714Y-199826571D01*
X315729333Y-199778952D01*
X315824571Y-199731333D01*
X316015047Y-199731333D01*
X316110285Y-199778952D01*
X316157904Y-199826571D01*
X316205523Y-199921809D01*
%TO.C,D26*%
X65366285Y-81320380D02*
X65366285Y-80320380D01*
X65128190Y-80320380D01*
X64985333Y-80368000D01*
X64890095Y-80463238D01*
X64842476Y-80558476D01*
X64794857Y-80748952D01*
X64794857Y-80891809D01*
X64842476Y-81082285D01*
X64890095Y-81177523D01*
X64985333Y-81272761D01*
X65128190Y-81320380D01*
X65366285Y-81320380D01*
X64413904Y-80415619D02*
X64366285Y-80368000D01*
X64271047Y-80320380D01*
X64032952Y-80320380D01*
X63937714Y-80368000D01*
X63890095Y-80415619D01*
X63842476Y-80510857D01*
X63842476Y-80606095D01*
X63890095Y-80748952D01*
X64461523Y-81320380D01*
X63842476Y-81320380D01*
X62985333Y-80320380D02*
X63175809Y-80320380D01*
X63271047Y-80368000D01*
X63318666Y-80415619D01*
X63413904Y-80558476D01*
X63461523Y-80748952D01*
X63461523Y-81129904D01*
X63413904Y-81225142D01*
X63366285Y-81272761D01*
X63271047Y-81320380D01*
X63080571Y-81320380D01*
X62985333Y-81272761D01*
X62937714Y-81225142D01*
X62890095Y-81129904D01*
X62890095Y-80891809D01*
X62937714Y-80796571D01*
X62985333Y-80748952D01*
X63080571Y-80701333D01*
X63271047Y-80701333D01*
X63366285Y-80748952D01*
X63413904Y-80796571D01*
X63461523Y-80891809D01*
%TO.C,D14*%
X46680285Y-143708380D02*
X46680285Y-142708380D01*
X46442190Y-142708380D01*
X46299333Y-142756000D01*
X46204095Y-142851238D01*
X46156476Y-142946476D01*
X46108857Y-143136952D01*
X46108857Y-143279809D01*
X46156476Y-143470285D01*
X46204095Y-143565523D01*
X46299333Y-143660761D01*
X46442190Y-143708380D01*
X46680285Y-143708380D01*
X45156476Y-143708380D02*
X45727904Y-143708380D01*
X45442190Y-143708380D02*
X45442190Y-142708380D01*
X45537428Y-142851238D01*
X45632666Y-142946476D01*
X45727904Y-142994095D01*
X44299333Y-143041714D02*
X44299333Y-143708380D01*
X44537428Y-142660761D02*
X44775523Y-143375047D01*
X44156476Y-143375047D01*
%TO.C,D25*%
X65366285Y-84368380D02*
X65366285Y-83368380D01*
X65128190Y-83368380D01*
X64985333Y-83416000D01*
X64890095Y-83511238D01*
X64842476Y-83606476D01*
X64794857Y-83796952D01*
X64794857Y-83939809D01*
X64842476Y-84130285D01*
X64890095Y-84225523D01*
X64985333Y-84320761D01*
X65128190Y-84368380D01*
X65366285Y-84368380D01*
X64413904Y-83463619D02*
X64366285Y-83416000D01*
X64271047Y-83368380D01*
X64032952Y-83368380D01*
X63937714Y-83416000D01*
X63890095Y-83463619D01*
X63842476Y-83558857D01*
X63842476Y-83654095D01*
X63890095Y-83796952D01*
X64461523Y-84368380D01*
X63842476Y-84368380D01*
X62937714Y-83368380D02*
X63413904Y-83368380D01*
X63461523Y-83844571D01*
X63413904Y-83796952D01*
X63318666Y-83749333D01*
X63080571Y-83749333D01*
X62985333Y-83796952D01*
X62937714Y-83844571D01*
X62890095Y-83939809D01*
X62890095Y-84177904D01*
X62937714Y-84273142D01*
X62985333Y-84320761D01*
X63080571Y-84368380D01*
X63318666Y-84368380D01*
X63413904Y-84320761D01*
X63461523Y-84273142D01*
%TO.C,D33*%
X66904285Y-146756380D02*
X66904285Y-145756380D01*
X66666190Y-145756380D01*
X66523333Y-145804000D01*
X66428095Y-145899238D01*
X66380476Y-145994476D01*
X66332857Y-146184952D01*
X66332857Y-146327809D01*
X66380476Y-146518285D01*
X66428095Y-146613523D01*
X66523333Y-146708761D01*
X66666190Y-146756380D01*
X66904285Y-146756380D01*
X65999523Y-145756380D02*
X65380476Y-145756380D01*
X65713809Y-146137333D01*
X65570952Y-146137333D01*
X65475714Y-146184952D01*
X65428095Y-146232571D01*
X65380476Y-146327809D01*
X65380476Y-146565904D01*
X65428095Y-146661142D01*
X65475714Y-146708761D01*
X65570952Y-146756380D01*
X65856666Y-146756380D01*
X65951904Y-146708761D01*
X65999523Y-146661142D01*
X65047142Y-145756380D02*
X64428095Y-145756380D01*
X64761428Y-146137333D01*
X64618571Y-146137333D01*
X64523333Y-146184952D01*
X64475714Y-146232571D01*
X64428095Y-146327809D01*
X64428095Y-146565904D01*
X64475714Y-146661142D01*
X64523333Y-146708761D01*
X64618571Y-146756380D01*
X64904285Y-146756380D01*
X64999523Y-146708761D01*
X65047142Y-146661142D01*
%TO.C,D81*%
X221432285Y-37282380D02*
X221432285Y-36282380D01*
X221194190Y-36282380D01*
X221051333Y-36330000D01*
X220956095Y-36425238D01*
X220908476Y-36520476D01*
X220860857Y-36710952D01*
X220860857Y-36853809D01*
X220908476Y-37044285D01*
X220956095Y-37139523D01*
X221051333Y-37234761D01*
X221194190Y-37282380D01*
X221432285Y-37282380D01*
X220289428Y-36710952D02*
X220384666Y-36663333D01*
X220432285Y-36615714D01*
X220479904Y-36520476D01*
X220479904Y-36472857D01*
X220432285Y-36377619D01*
X220384666Y-36330000D01*
X220289428Y-36282380D01*
X220098952Y-36282380D01*
X220003714Y-36330000D01*
X219956095Y-36377619D01*
X219908476Y-36472857D01*
X219908476Y-36520476D01*
X219956095Y-36615714D01*
X220003714Y-36663333D01*
X220098952Y-36710952D01*
X220289428Y-36710952D01*
X220384666Y-36758571D01*
X220432285Y-36806190D01*
X220479904Y-36901428D01*
X220479904Y-37091904D01*
X220432285Y-37187142D01*
X220384666Y-37234761D01*
X220289428Y-37282380D01*
X220098952Y-37282380D01*
X220003714Y-37234761D01*
X219956095Y-37187142D01*
X219908476Y-37091904D01*
X219908476Y-36901428D01*
X219956095Y-36806190D01*
X220003714Y-36758571D01*
X220098952Y-36710952D01*
X218956095Y-37282380D02*
X219527523Y-37282380D01*
X219241809Y-37282380D02*
X219241809Y-36282380D01*
X219337047Y-36425238D01*
X219432285Y-36520476D01*
X219527523Y-36568095D01*
%TO.C,D179*%
X129548476Y-218384380D02*
X129548476Y-217384380D01*
X129310380Y-217384380D01*
X129167523Y-217432000D01*
X129072285Y-217527238D01*
X129024666Y-217622476D01*
X128977047Y-217812952D01*
X128977047Y-217955809D01*
X129024666Y-218146285D01*
X129072285Y-218241523D01*
X129167523Y-218336761D01*
X129310380Y-218384380D01*
X129548476Y-218384380D01*
X128024666Y-218384380D02*
X128596095Y-218384380D01*
X128310380Y-218384380D02*
X128310380Y-217384380D01*
X128405619Y-217527238D01*
X128500857Y-217622476D01*
X128596095Y-217670095D01*
X127691333Y-217384380D02*
X127024666Y-217384380D01*
X127453238Y-218384380D01*
X126596095Y-218384380D02*
X126405619Y-218384380D01*
X126310380Y-218336761D01*
X126262761Y-218289142D01*
X126167523Y-218146285D01*
X126119904Y-217955809D01*
X126119904Y-217574857D01*
X126167523Y-217479619D01*
X126215142Y-217432000D01*
X126310380Y-217384380D01*
X126500857Y-217384380D01*
X126596095Y-217432000D01*
X126643714Y-217479619D01*
X126691333Y-217574857D01*
X126691333Y-217812952D01*
X126643714Y-217908190D01*
X126596095Y-217955809D01*
X126500857Y-218003428D01*
X126310380Y-218003428D01*
X126215142Y-217955809D01*
X126167523Y-217908190D01*
X126119904Y-217812952D01*
%TO.C,D20*%
X93162285Y-108402380D02*
X93162285Y-107402380D01*
X92924190Y-107402380D01*
X92781333Y-107450000D01*
X92686095Y-107545238D01*
X92638476Y-107640476D01*
X92590857Y-107830952D01*
X92590857Y-107973809D01*
X92638476Y-108164285D01*
X92686095Y-108259523D01*
X92781333Y-108354761D01*
X92924190Y-108402380D01*
X93162285Y-108402380D01*
X92209904Y-107497619D02*
X92162285Y-107450000D01*
X92067047Y-107402380D01*
X91828952Y-107402380D01*
X91733714Y-107450000D01*
X91686095Y-107497619D01*
X91638476Y-107592857D01*
X91638476Y-107688095D01*
X91686095Y-107830952D01*
X92257523Y-108402380D01*
X91638476Y-108402380D01*
X91019428Y-107402380D02*
X90924190Y-107402380D01*
X90828952Y-107450000D01*
X90781333Y-107497619D01*
X90733714Y-107592857D01*
X90686095Y-107783333D01*
X90686095Y-108021428D01*
X90733714Y-108211904D01*
X90781333Y-108307142D01*
X90828952Y-108354761D01*
X90924190Y-108402380D01*
X91019428Y-108402380D01*
X91114666Y-108354761D01*
X91162285Y-108307142D01*
X91209904Y-108211904D01*
X91257523Y-108021428D01*
X91257523Y-107783333D01*
X91209904Y-107592857D01*
X91162285Y-107497619D01*
X91114666Y-107450000D01*
X91019428Y-107402380D01*
%TO.C,D40*%
X61536285Y-182062380D02*
X61536285Y-181062380D01*
X61298190Y-181062380D01*
X61155333Y-181110000D01*
X61060095Y-181205238D01*
X61012476Y-181300476D01*
X60964857Y-181490952D01*
X60964857Y-181633809D01*
X61012476Y-181824285D01*
X61060095Y-181919523D01*
X61155333Y-182014761D01*
X61298190Y-182062380D01*
X61536285Y-182062380D01*
X60107714Y-181395714D02*
X60107714Y-182062380D01*
X60345809Y-181014761D02*
X60583904Y-181729047D01*
X59964857Y-181729047D01*
X59393428Y-181062380D02*
X59298190Y-181062380D01*
X59202952Y-181110000D01*
X59155333Y-181157619D01*
X59107714Y-181252857D01*
X59060095Y-181443333D01*
X59060095Y-181681428D01*
X59107714Y-181871904D01*
X59155333Y-181967142D01*
X59202952Y-182014761D01*
X59298190Y-182062380D01*
X59393428Y-182062380D01*
X59488666Y-182014761D01*
X59536285Y-181967142D01*
X59583904Y-181871904D01*
X59631523Y-181681428D01*
X59631523Y-181443333D01*
X59583904Y-181252857D01*
X59536285Y-181157619D01*
X59488666Y-181110000D01*
X59393428Y-181062380D01*
%TO.C,D43*%
X93162285Y-73858380D02*
X93162285Y-72858380D01*
X92924190Y-72858380D01*
X92781333Y-72906000D01*
X92686095Y-73001238D01*
X92638476Y-73096476D01*
X92590857Y-73286952D01*
X92590857Y-73429809D01*
X92638476Y-73620285D01*
X92686095Y-73715523D01*
X92781333Y-73810761D01*
X92924190Y-73858380D01*
X93162285Y-73858380D01*
X91733714Y-73191714D02*
X91733714Y-73858380D01*
X91971809Y-72810761D02*
X92209904Y-73525047D01*
X91590857Y-73525047D01*
X91305142Y-72858380D02*
X90686095Y-72858380D01*
X91019428Y-73239333D01*
X90876571Y-73239333D01*
X90781333Y-73286952D01*
X90733714Y-73334571D01*
X90686095Y-73429809D01*
X90686095Y-73667904D01*
X90733714Y-73763142D01*
X90781333Y-73810761D01*
X90876571Y-73858380D01*
X91162285Y-73858380D01*
X91257523Y-73810761D01*
X91305142Y-73763142D01*
%TO.C,D9*%
X271090095Y-124912380D02*
X271090095Y-123912380D01*
X270852000Y-123912380D01*
X270709142Y-123960000D01*
X270613904Y-124055238D01*
X270566285Y-124150476D01*
X270518666Y-124340952D01*
X270518666Y-124483809D01*
X270566285Y-124674285D01*
X270613904Y-124769523D01*
X270709142Y-124864761D01*
X270852000Y-124912380D01*
X271090095Y-124912380D01*
X270042476Y-124912380D02*
X269852000Y-124912380D01*
X269756761Y-124864761D01*
X269709142Y-124817142D01*
X269613904Y-124674285D01*
X269566285Y-124483809D01*
X269566285Y-124102857D01*
X269613904Y-124007619D01*
X269661523Y-123960000D01*
X269756761Y-123912380D01*
X269947238Y-123912380D01*
X270042476Y-123960000D01*
X270090095Y-124007619D01*
X270137714Y-124102857D01*
X270137714Y-124340952D01*
X270090095Y-124436190D01*
X270042476Y-124483809D01*
X269947238Y-124531428D01*
X269756761Y-124531428D01*
X269661523Y-124483809D01*
X269613904Y-124436190D01*
X269566285Y-124340952D01*
%TO.C,D67*%
X101391010Y-231165207D02*
X101391010Y-230165207D01*
X101152915Y-230165207D01*
X101010058Y-230212827D01*
X100914820Y-230308065D01*
X100867201Y-230403303D01*
X100819582Y-230593779D01*
X100819582Y-230736636D01*
X100867201Y-230927112D01*
X100914820Y-231022350D01*
X101010058Y-231117588D01*
X101152915Y-231165207D01*
X101391010Y-231165207D01*
X99962439Y-230165207D02*
X100152915Y-230165207D01*
X100248153Y-230212827D01*
X100295772Y-230260446D01*
X100391010Y-230403303D01*
X100438629Y-230593779D01*
X100438629Y-230974731D01*
X100391010Y-231069969D01*
X100343391Y-231117588D01*
X100248153Y-231165207D01*
X100057677Y-231165207D01*
X99962439Y-231117588D01*
X99914820Y-231069969D01*
X99867201Y-230974731D01*
X99867201Y-230736636D01*
X99914820Y-230641398D01*
X99962439Y-230593779D01*
X100057677Y-230546160D01*
X100248153Y-230546160D01*
X100343391Y-230593779D01*
X100391010Y-230641398D01*
X100438629Y-230736636D01*
X99533867Y-230165207D02*
X98867201Y-230165207D01*
X99295772Y-231165207D01*
%TO.C,D112*%
X160670476Y-39568380D02*
X160670476Y-38568380D01*
X160432380Y-38568380D01*
X160289523Y-38616000D01*
X160194285Y-38711238D01*
X160146666Y-38806476D01*
X160099047Y-38996952D01*
X160099047Y-39139809D01*
X160146666Y-39330285D01*
X160194285Y-39425523D01*
X160289523Y-39520761D01*
X160432380Y-39568380D01*
X160670476Y-39568380D01*
X159146666Y-39568380D02*
X159718095Y-39568380D01*
X159432380Y-39568380D02*
X159432380Y-38568380D01*
X159527619Y-38711238D01*
X159622857Y-38806476D01*
X159718095Y-38854095D01*
X158194285Y-39568380D02*
X158765714Y-39568380D01*
X158480000Y-39568380D02*
X158480000Y-38568380D01*
X158575238Y-38711238D01*
X158670476Y-38806476D01*
X158765714Y-38854095D01*
X157813333Y-38663619D02*
X157765714Y-38616000D01*
X157670476Y-38568380D01*
X157432380Y-38568380D01*
X157337142Y-38616000D01*
X157289523Y-38663619D01*
X157241904Y-38758857D01*
X157241904Y-38854095D01*
X157289523Y-38996952D01*
X157860952Y-39568380D01*
X157241904Y-39568380D01*
D12*
%TO.C,R285*%
X315959258Y-232932500D02*
X315484742Y-232932500D01*
X315959258Y-231887500D02*
X315484742Y-231887500D01*
%TO.C,R284*%
X319548742Y-229093500D02*
X320023258Y-229093500D01*
X319548742Y-230138500D02*
X320023258Y-230138500D01*
%TO.C,R283*%
X313960742Y-219949500D02*
X314435258Y-219949500D01*
X313960742Y-220994500D02*
X314435258Y-220994500D01*
%TO.C,C85*%
X312286283Y-234630753D02*
X311763779Y-234630753D01*
X312286283Y-233160753D02*
X311763779Y-233160753D01*
%TO.C,C70*%
X51061252Y-154135000D02*
X50538748Y-154135000D01*
X51061252Y-152665000D02*
X50538748Y-152665000D01*
%TO.C,C61*%
X51161252Y-163935000D02*
X50638748Y-163935000D01*
X51161252Y-162465000D02*
X50638748Y-162465000D01*
%TO.C,R10*%
X50572936Y-150465000D02*
X51027064Y-150465000D01*
X50572936Y-151935000D02*
X51027064Y-151935000D01*
%TO.C,R9*%
X50572936Y-111435000D02*
X51027064Y-111435000D01*
X50572936Y-109965000D02*
X51027064Y-109965000D01*
%TO.C,R280*%
X50585436Y-121435000D02*
X51039564Y-121435000D01*
X50585436Y-119965000D02*
X51039564Y-119965000D01*
%TO.C,R279*%
X50572936Y-140365000D02*
X51027064Y-140365000D01*
X50572936Y-141835000D02*
X51027064Y-141835000D01*
%TO.C,C69*%
X51061252Y-113735000D02*
X50538748Y-113735000D01*
X51061252Y-112265000D02*
X50538748Y-112265000D01*
%TO.C,R8*%
X50572936Y-130365000D02*
X51027064Y-130365000D01*
X50572936Y-131835000D02*
X51027064Y-131835000D01*
%TO.C,R3*%
X50672936Y-160265000D02*
X51127064Y-160265000D01*
X50672936Y-161735000D02*
X51127064Y-161735000D01*
%TO.C,C62*%
X51107442Y-134135000D02*
X50584938Y-134135000D01*
X51107442Y-132665000D02*
X50584938Y-132665000D01*
%TO.C,C78*%
X51061252Y-123735000D02*
X50538748Y-123735000D01*
X51061252Y-122265000D02*
X50538748Y-122265000D01*
%TO.C,C77*%
X51061252Y-142665000D02*
X50538748Y-142665000D01*
X51061252Y-144135000D02*
X50538748Y-144135000D01*
%TD*%
M02*
