M48
; DRILL file {KiCad (6.0.10)} date Mon Aug 19 09:21:59 2024
; FORMAT={-:-/ absolute / inch / decimal}
; #@! TF.CreationDate,2024-08-19T09:21:59-04:00
; #@! TF.GenerationSoftware,Kicad,Pcbnew,(6.0.10)
; #@! TF.FileFunction,NonPlated,1,4,NPTH
FMAT,2
INCH
; #@! TA.AperFunction,NonPlated,NPTH,ComponentDrill
T1C0.1181
; #@! TA.AperFunction,NonPlated,NPTH,ComponentDrill
T2C0.1693
%
G90
G05
T1
X1.407Y-2.5527
X1.407Y-3.2227
X1.407Y-3.8927
X1.777Y-2.3046
X1.777Y-2.9746
X1.777Y-3.6446
X2.0015Y-1.0399
X2.1404Y-3.9027
X2.1415Y-2.5527
X2.1415Y-3.2227
X2.1828Y-6.3476
X2.1847Y-5.009
X2.1847Y-5.68
X2.2495Y-1.41
X2.5104Y-3.6546
X2.5116Y-2.3046
X2.5116Y-2.9746
X2.5529Y-6.0995
X2.5548Y-4.7609
X2.5548Y-5.432
X2.6815Y-1.0399
X2.9295Y-1.41
X3.3688Y-1.0399
X3.7822Y-1.41
X3.8059Y-9.106
X4.2188Y-1.0399
X4.2193Y-9.4761
X4.6322Y-1.41
X4.6386Y-9.1072
X5.052Y-9.4772
X5.0788Y-1.0399
X5.4659Y-9.106
X5.4922Y-1.41
X5.8793Y-9.4761
X6.3032Y-9.1072
X6.4291Y-1.0258
X6.7166Y-9.4772
X7.0078Y-1.3959
X7.441Y-1.0284
X8.0198Y-1.3985
X8.441Y-1.0284
X9.0198Y-1.3985
T2
X1.4646Y-1.1682
X1.4646Y-9.3965
X2.3308Y-4.3769
X2.3308Y-6.8375
X3.4331Y-9.3965
X5.9135Y-1.1682
X5.9135Y-4.3769
X7.193Y-9.3965
X8.63Y-4.3769
X9.9883Y-9.3965
X10.6576Y-6.8375
X12.6064Y-1.1682
X12.6064Y-9.3965
T0
M30
