%TF.GenerationSoftware,KiCad,Pcbnew,(6.0.10)*%
%TF.CreationDate,2024-08-19T09:21:52-04:00*%
%TF.ProjectId,ExoFlex_Kicad,45786f46-6c65-4785-9f4b-696361642e6b,rev?*%
%TF.SameCoordinates,Original*%
%TF.FileFunction,Paste,Top*%
%TF.FilePolarity,Positive*%
%FSLAX46Y46*%
G04 Gerber Fmt 4.6, Leading zero omitted, Abs format (unit mm)*
G04 Created by KiCad (PCBNEW (6.0.10)) date 2024-08-19 09:21:52*
%MOMM*%
%LPD*%
G01*
G04 APERTURE LIST*
G04 Aperture macros list*
%AMRoundRect*
0 Rectangle with rounded corners*
0 $1 Rounding radius*
0 $2 $3 $4 $5 $6 $7 $8 $9 X,Y pos of 4 corners*
0 Add a 4 corners polygon primitive as box body*
4,1,4,$2,$3,$4,$5,$6,$7,$8,$9,$2,$3,0*
0 Add four circle primitives for the rounded corners*
1,1,$1+$1,$2,$3*
1,1,$1+$1,$4,$5*
1,1,$1+$1,$6,$7*
1,1,$1+$1,$8,$9*
0 Add four rect primitives between the rounded corners*
20,1,$1+$1,$2,$3,$4,$5,0*
20,1,$1+$1,$4,$5,$6,$7,0*
20,1,$1+$1,$6,$7,$8,$9,0*
20,1,$1+$1,$8,$9,$2,$3,0*%
G04 Aperture macros list end*
%ADD10RoundRect,0.041300X-0.763700X-0.253700X0.763700X-0.253700X0.763700X0.253700X-0.763700X0.253700X0*%
%ADD11RoundRect,0.140000X-0.140000X-0.170000X0.140000X-0.170000X0.140000X0.170000X-0.140000X0.170000X0*%
%ADD12R,0.254000X1.168400*%
%ADD13R,1.168400X0.254000*%
%ADD14RoundRect,0.200000X-0.200000X-0.275000X0.200000X-0.275000X0.200000X0.275000X-0.200000X0.275000X0*%
%ADD15RoundRect,0.200000X-0.275000X0.200000X-0.275000X-0.200000X0.275000X-0.200000X0.275000X0.200000X0*%
%ADD16RoundRect,0.250000X-0.450000X0.262500X-0.450000X-0.262500X0.450000X-0.262500X0.450000X0.262500X0*%
%ADD17RoundRect,0.200000X0.275000X-0.200000X0.275000X0.200000X-0.275000X0.200000X-0.275000X-0.200000X0*%
%ADD18RoundRect,0.250000X-0.262500X-0.450000X0.262500X-0.450000X0.262500X0.450000X-0.262500X0.450000X0*%
%ADD19RoundRect,0.200000X0.200000X0.275000X-0.200000X0.275000X-0.200000X-0.275000X0.200000X-0.275000X0*%
%ADD20R,0.300000X0.550000*%
%ADD21RoundRect,0.140000X0.140000X0.170000X-0.140000X0.170000X-0.140000X-0.170000X0.140000X-0.170000X0*%
%ADD22R,0.550000X0.300000*%
%ADD23RoundRect,0.250000X0.262500X0.450000X-0.262500X0.450000X-0.262500X-0.450000X0.262500X-0.450000X0*%
%ADD24R,0.800000X0.800000*%
%ADD25RoundRect,0.250000X-0.250000X-0.475000X0.250000X-0.475000X0.250000X0.475000X-0.250000X0.475000X0*%
%ADD26R,1.003300X0.406400*%
%ADD27R,0.431800X1.422400*%
%ADD28RoundRect,0.075000X-0.910000X-0.225000X0.910000X-0.225000X0.910000X0.225000X-0.910000X0.225000X0*%
%ADD29RoundRect,0.250000X0.450000X-0.262500X0.450000X0.262500X-0.450000X0.262500X-0.450000X-0.262500X0*%
%ADD30R,2.499995X2.560396*%
%ADD31RoundRect,0.250000X0.475000X-0.250000X0.475000X0.250000X-0.475000X0.250000X-0.475000X-0.250000X0*%
%ADD32RoundRect,0.250000X1.075000X-0.375000X1.075000X0.375000X-1.075000X0.375000X-1.075000X-0.375000X0*%
%ADD33RoundRect,0.250000X0.250000X0.475000X-0.250000X0.475000X-0.250000X-0.475000X0.250000X-0.475000X0*%
%ADD34R,1.981200X0.558800*%
%ADD35R,1.473200X0.355600*%
%ADD36R,0.990600X2.997200*%
%ADD37R,10.337800X8.712200*%
%ADD38R,1.460500X0.558800*%
%ADD39RoundRect,0.140000X0.170000X-0.140000X0.170000X0.140000X-0.170000X0.140000X-0.170000X-0.140000X0*%
%ADD40R,2.000000X4.100000*%
%ADD41R,0.584200X0.355600*%
%ADD42RoundRect,0.153750X0.701250X0.461250X-0.701250X0.461250X-0.701250X-0.461250X0.701250X-0.461250X0*%
%ADD43RoundRect,0.072500X-0.532500X-0.217500X0.532500X-0.217500X0.532500X0.217500X-0.532500X0.217500X0*%
%ADD44R,1.270000X1.400000*%
%ADD45R,4.720000X4.800000*%
%ADD46R,0.800001X3.300001*%
%ADD47R,9.125998X13.370001*%
%ADD48RoundRect,0.250000X-1.075000X0.375000X-1.075000X-0.375000X1.075000X-0.375000X1.075000X0.375000X0*%
%ADD49R,5.520000X2.000000*%
%ADD50RoundRect,0.153750X-0.461250X0.701250X-0.461250X-0.701250X0.461250X-0.701250X0.461250X0.701250X0*%
%ADD51R,1.470000X1.140000*%
%ADD52RoundRect,0.153750X-0.701250X-0.461250X0.701250X-0.461250X0.701250X0.461250X-0.701250X0.461250X0*%
%ADD53R,0.558800X1.320800*%
%ADD54RoundRect,0.051250X0.733750X0.153750X-0.733750X0.153750X-0.733750X-0.153750X0.733750X-0.153750X0*%
%ADD55RoundRect,0.250000X-0.475000X0.250000X-0.475000X-0.250000X0.475000X-0.250000X0.475000X0.250000X0*%
%ADD56RoundRect,0.140000X-0.170000X0.140000X-0.170000X-0.140000X0.170000X-0.140000X0.170000X0.140000X0*%
%ADD57R,1.854200X0.355600*%
%ADD58R,1.400000X1.270000*%
%ADD59R,4.800000X4.720000*%
%ADD60R,1.320800X3.810000*%
%ADD61RoundRect,0.250000X0.650000X-0.325000X0.650000X0.325000X-0.650000X0.325000X-0.650000X-0.325000X0*%
%ADD62R,3.810000X1.320800*%
%ADD63R,0.298000X0.700000*%
%ADD64R,0.998000X0.700000*%
G04 APERTURE END LIST*
D10*
%TO.C,U60*%
X167511000Y-154498000D03*
X167511000Y-155448000D03*
X167511000Y-156398000D03*
X169801000Y-156398000D03*
X169801000Y-154498000D03*
%TD*%
D11*
%TO.C,C143*%
X212479000Y-202692000D03*
X213439000Y-202692000D03*
%TD*%
D12*
%TO.C,U44*%
X86174001Y-206710800D03*
X85674000Y-206710800D03*
X85174000Y-206710800D03*
X84673999Y-206710800D03*
X84673999Y-209454000D03*
X85174000Y-209454000D03*
X85674000Y-209454000D03*
X86174001Y-209454000D03*
%TD*%
D13*
%TO.C,U47*%
X131492400Y-204478998D03*
X131492400Y-204978999D03*
X131492400Y-205478999D03*
X131492400Y-205979000D03*
X134235600Y-205979000D03*
X134235600Y-205478999D03*
X134235600Y-204978999D03*
X134235600Y-204478998D03*
%TD*%
D14*
%TO.C,R109*%
X77915000Y-202946000D03*
X79565000Y-202946000D03*
%TD*%
D15*
%TO.C,R158*%
X119154000Y-50347000D03*
X119154000Y-51997000D03*
%TD*%
D16*
%TO.C,R89*%
X242336000Y-50109500D03*
X242336000Y-51934500D03*
%TD*%
D17*
%TO.C,R219*%
X248028000Y-107626000D03*
X248028000Y-105976000D03*
%TD*%
D18*
%TO.C,R155*%
X84942001Y-42856001D03*
X86767001Y-42856001D03*
%TD*%
D19*
%TO.C,R182*%
X190031000Y-39009000D03*
X188381000Y-39009000D03*
%TD*%
D20*
%TO.C,D60*%
X54564001Y-228600000D03*
X53864001Y-228600000D03*
%TD*%
D21*
%TO.C,C212*%
X86078000Y-142240000D03*
X85118000Y-142240000D03*
%TD*%
D17*
%TO.C,R265*%
X210520000Y-73568000D03*
X210520000Y-71918000D03*
%TD*%
D13*
%TO.C,U3*%
X305709100Y-196838001D03*
X305709100Y-196338000D03*
X305709100Y-195838000D03*
X305709100Y-195337999D03*
X302965900Y-195337999D03*
X302965900Y-195838000D03*
X302965900Y-196338000D03*
X302965900Y-196838001D03*
%TD*%
%TO.C,U51*%
X185679400Y-204481999D03*
X185679400Y-204982000D03*
X185679400Y-205482000D03*
X185679400Y-205982001D03*
X188422600Y-205982001D03*
X188422600Y-205482000D03*
X188422600Y-204982000D03*
X188422600Y-204481999D03*
%TD*%
D11*
%TO.C,C175*%
X120960000Y-47112000D03*
X121920000Y-47112000D03*
%TD*%
D15*
%TO.C,R76*%
X264668000Y-233871000D03*
X264668000Y-235521000D03*
%TD*%
D22*
%TO.C,D158*%
X305816000Y-102712000D03*
X305816000Y-102012000D03*
%TD*%
D13*
%TO.C,U45*%
X85330400Y-220921999D03*
X85330400Y-221422000D03*
X85330400Y-221922000D03*
X85330400Y-222422001D03*
X88073600Y-222422001D03*
X88073600Y-221922000D03*
X88073600Y-221422000D03*
X88073600Y-220921999D03*
%TD*%
D20*
%TO.C,D34*%
X71024000Y-143256000D03*
X71724000Y-143256000D03*
%TD*%
D11*
%TO.C,C162*%
X95786000Y-93222000D03*
X96746000Y-93222000D03*
%TD*%
D20*
%TO.C,D167*%
X188118000Y-75438000D03*
X188818000Y-75438000D03*
%TD*%
D15*
%TO.C,R15*%
X47752000Y-203137000D03*
X47752000Y-204787000D03*
%TD*%
D18*
%TO.C,R222*%
X290927500Y-97790000D03*
X292752500Y-97790000D03*
%TD*%
D11*
%TO.C,C140*%
X125359500Y-95372000D03*
X126319500Y-95372000D03*
%TD*%
D14*
%TO.C,R236*%
X236448000Y-52196500D03*
X238098000Y-52196500D03*
%TD*%
D21*
%TO.C,C186*%
X295720000Y-56134000D03*
X294760000Y-56134000D03*
%TD*%
%TO.C,C184*%
X267720000Y-56228000D03*
X266760000Y-56228000D03*
%TD*%
D11*
%TO.C,C127*%
X173120000Y-110400000D03*
X174080000Y-110400000D03*
%TD*%
D21*
%TO.C,C173*%
X267946000Y-40222000D03*
X266986000Y-40222000D03*
%TD*%
D17*
%TO.C,R148*%
X207235001Y-225465002D03*
X207235001Y-223815002D03*
%TD*%
D11*
%TO.C,C83*%
X174830000Y-205736999D03*
X175790000Y-205736999D03*
%TD*%
D21*
%TO.C,C72*%
X200562000Y-106206000D03*
X199602000Y-106206000D03*
%TD*%
D23*
%TO.C,R35*%
X84681500Y-63053498D03*
X82856500Y-63053498D03*
%TD*%
D18*
%TO.C,R229*%
X236377000Y-45791500D03*
X238202000Y-45791500D03*
%TD*%
D24*
%TO.C,D116*%
X304059000Y-222305500D03*
X304059000Y-220705500D03*
%TD*%
D19*
%TO.C,R161*%
X139981000Y-70784000D03*
X138331000Y-70784000D03*
%TD*%
D22*
%TO.C,D155*%
X114046000Y-64866000D03*
X114046000Y-64166000D03*
%TD*%
D24*
%TO.C,D118*%
X273304000Y-123990000D03*
X273304000Y-122390000D03*
%TD*%
D25*
%TO.C,C43*%
X173037999Y-221230999D03*
X174937999Y-221230999D03*
%TD*%
D21*
%TO.C,C185*%
X240212000Y-75015000D03*
X239252000Y-75015000D03*
%TD*%
D22*
%TO.C,D53*%
X285496000Y-55976000D03*
X285496000Y-55276000D03*
%TD*%
%TO.C,D46*%
X277876000Y-55214000D03*
X277876000Y-54514000D03*
%TD*%
D26*
%TO.C,U10*%
X117349450Y-194563999D03*
X117349450Y-195514000D03*
X117349450Y-196464001D03*
X120054550Y-196464001D03*
X120054550Y-194563999D03*
%TD*%
D20*
%TO.C,D99*%
X306386000Y-90170000D03*
X307086000Y-90170000D03*
%TD*%
D17*
%TO.C,R241*%
X242774000Y-55657000D03*
X242774000Y-54007000D03*
%TD*%
D14*
%TO.C,R32*%
X91377000Y-39300001D03*
X93027000Y-39300001D03*
%TD*%
D17*
%TO.C,R121*%
X47102001Y-226123000D03*
X47102001Y-224473000D03*
%TD*%
D22*
%TO.C,D31*%
X68580000Y-159162000D03*
X68580000Y-159862000D03*
%TD*%
D20*
%TO.C,D184*%
X228696000Y-78486000D03*
X227996000Y-78486000D03*
%TD*%
D23*
%TO.C,R224*%
X264088500Y-82068000D03*
X262263500Y-82068000D03*
%TD*%
D20*
%TO.C,D121*%
X104141489Y-178686044D03*
X104841489Y-178686044D03*
%TD*%
D19*
%TO.C,R247*%
X273391000Y-99108000D03*
X271741000Y-99108000D03*
%TD*%
D27*
%TO.C,U86*%
X50841001Y-51193700D03*
X51490999Y-51193700D03*
X52141001Y-51193700D03*
X52790999Y-51193700D03*
X52790999Y-46850300D03*
X52141001Y-46850300D03*
X51490999Y-46850300D03*
X50841001Y-46850300D03*
%TD*%
D23*
%TO.C,R130*%
X174952500Y-224532999D03*
X173127500Y-224532999D03*
%TD*%
%TO.C,R58*%
X322580000Y-119126000D03*
X320755000Y-119126000D03*
%TD*%
%TO.C,R227*%
X264080500Y-98092000D03*
X262255500Y-98092000D03*
%TD*%
D21*
%TO.C,C68*%
X149543800Y-157382000D03*
X148583800Y-157382000D03*
%TD*%
D14*
%TO.C,R135*%
X111321000Y-220274000D03*
X112971000Y-220274000D03*
%TD*%
D21*
%TO.C,C129*%
X205057000Y-202692000D03*
X204097000Y-202692000D03*
%TD*%
D11*
%TO.C,C194*%
X274634000Y-49116000D03*
X275594000Y-49116000D03*
%TD*%
D19*
%TO.C,R143*%
X178081000Y-70769000D03*
X176431000Y-70769000D03*
%TD*%
D17*
%TO.C,R72*%
X102870000Y-140525000D03*
X102870000Y-138875000D03*
%TD*%
D14*
%TO.C,R108*%
X77915000Y-193548000D03*
X79565000Y-193548000D03*
%TD*%
D17*
%TO.C,R274*%
X220426000Y-74457000D03*
X220426000Y-72807000D03*
%TD*%
D22*
%TO.C,D126*%
X110236000Y-199390000D03*
X110236000Y-198690000D03*
%TD*%
D10*
%TO.C,U82*%
X143196500Y-96840000D03*
X143196500Y-97790000D03*
X143196500Y-98740000D03*
X145486500Y-98740000D03*
X145486500Y-96840000D03*
%TD*%
D16*
%TO.C,R47*%
X273812000Y-129032000D03*
X273812000Y-130857000D03*
%TD*%
D18*
%TO.C,R70*%
X267343500Y-29558000D03*
X269168500Y-29558000D03*
%TD*%
D17*
%TO.C,R259*%
X247352000Y-71014000D03*
X247352000Y-69364000D03*
%TD*%
D14*
%TO.C,R154*%
X214567000Y-212852000D03*
X216217000Y-212852000D03*
%TD*%
D18*
%TO.C,R46*%
X308289500Y-118672000D03*
X310114500Y-118672000D03*
%TD*%
D11*
%TO.C,C207*%
X249730000Y-49248000D03*
X250690000Y-49248000D03*
%TD*%
%TO.C,C205*%
X95786000Y-58424000D03*
X96746000Y-58424000D03*
%TD*%
%TO.C,C148*%
X121094000Y-126758000D03*
X122054000Y-126758000D03*
%TD*%
D23*
%TO.C,R257*%
X245074500Y-66294000D03*
X243249500Y-66294000D03*
%TD*%
D28*
%TO.C,U17*%
X268072000Y-34765000D03*
X268072000Y-36035000D03*
X268072000Y-37305000D03*
X268072000Y-38575000D03*
X273012000Y-38575000D03*
X273012000Y-37305000D03*
X273012000Y-36035000D03*
X273012000Y-34765000D03*
%TD*%
D11*
%TO.C,C182*%
X274888000Y-33114000D03*
X275848000Y-33114000D03*
%TD*%
D14*
%TO.C,R105*%
X71057000Y-193548000D03*
X72707000Y-193548000D03*
%TD*%
D11*
%TO.C,C155*%
X121122000Y-124472000D03*
X122082000Y-124472000D03*
%TD*%
D28*
%TO.C,U37*%
X245130000Y-50895000D03*
X245130000Y-52165000D03*
X245130000Y-53435000D03*
X245130000Y-54705000D03*
X250070000Y-54705000D03*
X250070000Y-53435000D03*
X250070000Y-52165000D03*
X250070000Y-50895000D03*
%TD*%
D16*
%TO.C,R184*%
X290068000Y-176784000D03*
X290068000Y-178609000D03*
%TD*%
D18*
%TO.C,R41*%
X79300500Y-60767498D03*
X81125500Y-60767498D03*
%TD*%
D17*
%TO.C,R75*%
X102870000Y-161099000D03*
X102870000Y-159449000D03*
%TD*%
D20*
%TO.C,D134*%
X145587452Y-212090000D03*
X146287452Y-212090000D03*
%TD*%
D18*
%TO.C,R214*%
X243917000Y-99435000D03*
X245742000Y-99435000D03*
%TD*%
D25*
%TO.C,C28*%
X78125000Y-164084002D03*
X80025000Y-164084002D03*
%TD*%
D29*
%TO.C,R185*%
X304038000Y-218170000D03*
X304038000Y-216345000D03*
%TD*%
D30*
%TO.C,C16*%
X291592000Y-216175895D03*
X291592000Y-210831507D03*
%TD*%
D11*
%TO.C,C211*%
X275650000Y-83088000D03*
X276610000Y-83088000D03*
%TD*%
D17*
%TO.C,R192*%
X302860000Y-68135000D03*
X302860000Y-66485000D03*
%TD*%
D31*
%TO.C,C40*%
X64120001Y-223708000D03*
X64120001Y-221808000D03*
%TD*%
D18*
%TO.C,R256*%
X294835500Y-78112000D03*
X296660500Y-78112000D03*
%TD*%
%TO.C,R205*%
X93321500Y-154178000D03*
X95146500Y-154178000D03*
%TD*%
D20*
%TO.C,D138*%
X112785750Y-210287191D03*
X112085750Y-210287191D03*
%TD*%
D27*
%TO.C,U85*%
X73701001Y-51193700D03*
X74350999Y-51193700D03*
X75001001Y-51193700D03*
X75650999Y-51193700D03*
X75650999Y-46850300D03*
X75001001Y-46850300D03*
X74350999Y-46850300D03*
X73701001Y-46850300D03*
%TD*%
D20*
%TO.C,D37*%
X71024000Y-123698000D03*
X71724000Y-123698000D03*
%TD*%
D11*
%TO.C,C122*%
X206383000Y-202696000D03*
X207343000Y-202696000D03*
%TD*%
%TO.C,C121*%
X88762000Y-219386000D03*
X89722000Y-219386000D03*
%TD*%
D22*
%TO.C,D106*%
X47244000Y-39528000D03*
X47244000Y-40228000D03*
%TD*%
D20*
%TO.C,D10*%
X317150000Y-210566000D03*
X317850000Y-210566000D03*
%TD*%
D11*
%TO.C,C164*%
X275896000Y-99362000D03*
X276856000Y-99362000D03*
%TD*%
D21*
%TO.C,C135*%
X87436000Y-224390000D03*
X86476000Y-224390000D03*
%TD*%
D18*
%TO.C,R114*%
X105259500Y-227838000D03*
X107084500Y-227838000D03*
%TD*%
%TO.C,R66*%
X71050500Y-160306004D03*
X72875500Y-160306004D03*
%TD*%
D32*
%TO.C,L2*%
X319800000Y-149400000D03*
X319800000Y-146600000D03*
%TD*%
D29*
%TO.C,R7*%
X293878000Y-116990500D03*
X293878000Y-115165500D03*
%TD*%
D20*
%TO.C,D76*%
X104806000Y-164084000D03*
X105506000Y-164084000D03*
%TD*%
D23*
%TO.C,R209*%
X238376000Y-99435000D03*
X236551000Y-99435000D03*
%TD*%
D17*
%TO.C,R264*%
X311602000Y-83997000D03*
X311602000Y-82347000D03*
%TD*%
D21*
%TO.C,C126*%
X182921500Y-94772000D03*
X181961500Y-94772000D03*
%TD*%
D17*
%TO.C,R29*%
X191487001Y-225465002D03*
X191487001Y-223815002D03*
%TD*%
D18*
%TO.C,R179*%
X267089500Y-62070000D03*
X268914500Y-62070000D03*
%TD*%
D17*
%TO.C,R85*%
X302860000Y-39496000D03*
X302860000Y-37846000D03*
%TD*%
D20*
%TO.C,D105*%
X250698000Y-75438000D03*
X251398000Y-75438000D03*
%TD*%
%TO.C,D145*%
X210374000Y-211328000D03*
X211074000Y-211328000D03*
%TD*%
D22*
%TO.C,D98*%
X250698000Y-65628000D03*
X250698000Y-64928000D03*
%TD*%
D20*
%TO.C,D139*%
X114501656Y-214376000D03*
X115201656Y-214376000D03*
%TD*%
D11*
%TO.C,C201*%
X250316000Y-33144000D03*
X251276000Y-33144000D03*
%TD*%
%TO.C,C71*%
X146165500Y-94772000D03*
X147125500Y-94772000D03*
%TD*%
D29*
%TO.C,R55*%
X277622000Y-222654500D03*
X277622000Y-220829500D03*
%TD*%
D33*
%TO.C,C46*%
X229930500Y-41549000D03*
X228030500Y-41549000D03*
%TD*%
D21*
%TO.C,C59*%
X198186450Y-202130550D03*
X197226450Y-202130550D03*
%TD*%
D14*
%TO.C,R107*%
X77915000Y-184404000D03*
X79565000Y-184404000D03*
%TD*%
D18*
%TO.C,R251*%
X291025500Y-80398000D03*
X292850500Y-80398000D03*
%TD*%
D20*
%TO.C,D89*%
X277876000Y-90678000D03*
X278576000Y-90678000D03*
%TD*%
D22*
%TO.C,D123*%
X110490000Y-188310000D03*
X110490000Y-187610000D03*
%TD*%
D12*
%TO.C,U42*%
X86170001Y-197160400D03*
X85670000Y-197160400D03*
X85170000Y-197160400D03*
X84669999Y-197160400D03*
X84669999Y-199903600D03*
X85170000Y-199903600D03*
X85670000Y-199903600D03*
X86170001Y-199903600D03*
%TD*%
D11*
%TO.C,C163*%
X219254000Y-86606000D03*
X220214000Y-86606000D03*
%TD*%
%TO.C,C187*%
X170488000Y-47112000D03*
X171448000Y-47112000D03*
%TD*%
D18*
%TO.C,R213*%
X243689500Y-83058000D03*
X245514500Y-83058000D03*
%TD*%
D11*
%TO.C,C206*%
X275142000Y-65118000D03*
X276102000Y-65118000D03*
%TD*%
D14*
%TO.C,R104*%
X70994000Y-184150000D03*
X72644000Y-184150000D03*
%TD*%
D25*
%TO.C,C50*%
X93032501Y-42856001D03*
X94932501Y-42856001D03*
%TD*%
%TO.C,C35*%
X309600000Y-231600000D03*
X311500000Y-231600000D03*
%TD*%
D17*
%TO.C,R217*%
X248028000Y-91014000D03*
X248028000Y-89364000D03*
%TD*%
D21*
%TO.C,C216*%
X85570000Y-162302000D03*
X84610000Y-162302000D03*
%TD*%
%TO.C,C203*%
X295466000Y-89034000D03*
X294506000Y-89034000D03*
%TD*%
D17*
%TO.C,R239*%
X302860000Y-102425000D03*
X302860000Y-100775000D03*
%TD*%
D20*
%TO.C,D169*%
X179990000Y-75438000D03*
X180690000Y-75438000D03*
%TD*%
D17*
%TO.C,R92*%
X293208000Y-53403000D03*
X293208000Y-51753000D03*
%TD*%
D34*
%TO.C,U55*%
X170052200Y-207514999D03*
X170052200Y-208784999D03*
X170052200Y-210054999D03*
X170052200Y-211324999D03*
X170052200Y-212594999D03*
X170052200Y-213864999D03*
X170052200Y-215134999D03*
X174979800Y-215134999D03*
X174979800Y-213864999D03*
X174979800Y-212594999D03*
X174979800Y-211324999D03*
X174979800Y-210054999D03*
X174979800Y-208784999D03*
X174979800Y-207514999D03*
%TD*%
D28*
%TO.C,U31*%
X295564000Y-66675000D03*
X295564000Y-67945000D03*
X295564000Y-69215000D03*
X295564000Y-70485000D03*
X300504000Y-70485000D03*
X300504000Y-69215000D03*
X300504000Y-67945000D03*
X300504000Y-66675000D03*
%TD*%
D14*
%TO.C,R136*%
X141148000Y-212086999D03*
X142798000Y-212086999D03*
%TD*%
D22*
%TO.C,D82*%
X277622000Y-80010000D03*
X277622000Y-79310000D03*
%TD*%
%TO.C,D183*%
X223012000Y-89346000D03*
X223012000Y-88646000D03*
%TD*%
D35*
%TO.C,U122*%
X207221000Y-115674999D03*
X207221000Y-115025001D03*
X207221000Y-114374999D03*
X207221000Y-113725001D03*
X207221000Y-113075002D03*
X207221000Y-112425001D03*
X207221000Y-111775002D03*
X207221000Y-111125001D03*
X201379000Y-111125001D03*
X201379000Y-111774999D03*
X201379000Y-112425001D03*
X201379000Y-113074999D03*
X201379000Y-113724998D03*
X201379000Y-114374999D03*
X201379000Y-115024998D03*
X201379000Y-115674999D03*
%TD*%
D15*
%TO.C,R12*%
X47752000Y-192977000D03*
X47752000Y-194627000D03*
%TD*%
D27*
%TO.C,U67*%
X170727001Y-53343700D03*
X171376999Y-53343700D03*
X172027001Y-53343700D03*
X172676999Y-53343700D03*
X172676999Y-49000300D03*
X172027001Y-49000300D03*
X171376999Y-49000300D03*
X170727001Y-49000300D03*
%TD*%
D29*
%TO.C,R73*%
X271272000Y-130857000D03*
X271272000Y-129032000D03*
%TD*%
D31*
%TO.C,C38*%
X45070001Y-223708000D03*
X45070001Y-221808000D03*
%TD*%
D14*
%TO.C,R132*%
X158229000Y-212086999D03*
X159879000Y-212086999D03*
%TD*%
D11*
%TO.C,C172*%
X95120000Y-139700000D03*
X96080000Y-139700000D03*
%TD*%
D14*
%TO.C,R25*%
X98149001Y-228088999D03*
X99799001Y-228088999D03*
%TD*%
D18*
%TO.C,R44*%
X86262000Y-95057498D03*
X88087000Y-95057498D03*
%TD*%
D36*
%TO.C,U2*%
X295910000Y-156337000D03*
X290830000Y-156337000D03*
D37*
X293370000Y-167347900D03*
%TD*%
D21*
%TO.C,C176*%
X99512000Y-164334000D03*
X98552000Y-164334000D03*
%TD*%
D28*
%TO.C,U57*%
X212438000Y-88257000D03*
X212438000Y-89527000D03*
X212438000Y-90797000D03*
X212438000Y-92067000D03*
X217378000Y-92067000D03*
X217378000Y-90797000D03*
X217378000Y-89527000D03*
X217378000Y-88257000D03*
%TD*%
D18*
%TO.C,R181*%
X298495000Y-47498000D03*
X300320000Y-47498000D03*
%TD*%
D17*
%TO.C,R276*%
X219734000Y-93019000D03*
X219734000Y-91369000D03*
%TD*%
D20*
%TO.C,D62*%
X73922001Y-228600000D03*
X73222001Y-228600000D03*
%TD*%
D22*
%TO.C,D147*%
X122936000Y-57308000D03*
X122936000Y-58008000D03*
%TD*%
D38*
%TO.C,U27*%
X87780850Y-158369002D03*
X87780850Y-159639002D03*
X87780850Y-160909002D03*
X87780850Y-162179002D03*
X93229150Y-162179002D03*
X93229150Y-160909002D03*
X93229150Y-159639002D03*
X93229150Y-158369002D03*
%TD*%
D18*
%TO.C,R38*%
X71223500Y-61468000D03*
X73048500Y-61468000D03*
%TD*%
D21*
%TO.C,C81*%
X119944000Y-192466000D03*
X118984000Y-192466000D03*
%TD*%
D39*
%TO.C,C89*%
X87710000Y-201958400D03*
X87710000Y-200998400D03*
%TD*%
D14*
%TO.C,R33*%
X112650000Y-39300001D03*
X114300000Y-39300001D03*
%TD*%
D20*
%TO.C,D166*%
X159924000Y-75438000D03*
X160624000Y-75438000D03*
%TD*%
D19*
%TO.C,R163*%
X151701000Y-70452000D03*
X150051000Y-70452000D03*
%TD*%
D25*
%TO.C,C52*%
X135946001Y-42856001D03*
X137846001Y-42856001D03*
%TD*%
D18*
%TO.C,R137*%
X176355500Y-39263000D03*
X178180500Y-39263000D03*
%TD*%
D21*
%TO.C,C82*%
X119242000Y-206568000D03*
X118282000Y-206568000D03*
%TD*%
D11*
%TO.C,C199*%
X220446000Y-47358000D03*
X221406000Y-47358000D03*
%TD*%
D15*
%TO.C,R167*%
X48609500Y-48300500D03*
X48609500Y-49950500D03*
%TD*%
D28*
%TO.C,U41*%
X295310000Y-83573000D03*
X295310000Y-84843000D03*
X295310000Y-86113000D03*
X295310000Y-87383000D03*
X300250000Y-87383000D03*
X300250000Y-86113000D03*
X300250000Y-84843000D03*
X300250000Y-83573000D03*
%TD*%
D20*
%TO.C,D85*%
X189805001Y-228450002D03*
X189105001Y-228450002D03*
%TD*%
D17*
%TO.C,R253*%
X283702000Y-83972000D03*
X283702000Y-82322000D03*
%TD*%
D11*
%TO.C,C144*%
X236620000Y-216920000D03*
X237580000Y-216920000D03*
%TD*%
D28*
%TO.C,U33*%
X240732000Y-86252000D03*
X240732000Y-87522000D03*
X240732000Y-88792000D03*
X240732000Y-90062000D03*
X245672000Y-90062000D03*
X245672000Y-88792000D03*
X245672000Y-87522000D03*
X245672000Y-86252000D03*
%TD*%
D18*
%TO.C,R36*%
X82706000Y-80325498D03*
X84531000Y-80325498D03*
%TD*%
D14*
%TO.C,R34*%
X135171001Y-39300001D03*
X136821001Y-39300001D03*
%TD*%
D27*
%TO.C,U30*%
X99780999Y-158102300D03*
X99131001Y-158102300D03*
X98480999Y-158102300D03*
X97831001Y-158102300D03*
X97831001Y-162445700D03*
X98480999Y-162445700D03*
X99131001Y-162445700D03*
X99780999Y-162445700D03*
%TD*%
D24*
%TO.C,D117*%
X304846000Y-118672000D03*
X306446000Y-118672000D03*
%TD*%
D40*
%TO.C,C2*%
X281178000Y-169958000D03*
X281178000Y-161258000D03*
%TD*%
D19*
%TO.C,R183*%
X216193000Y-38755000D03*
X214543000Y-38755000D03*
%TD*%
D18*
%TO.C,R42*%
X86516000Y-78039498D03*
X88341000Y-78039498D03*
%TD*%
D15*
%TO.C,R88*%
X283602000Y-35411000D03*
X283602000Y-37061000D03*
%TD*%
D18*
%TO.C,R168*%
X167235500Y-227838000D03*
X169060500Y-227838000D03*
%TD*%
D27*
%TO.C,U81*%
X146727001Y-53343700D03*
X147376999Y-53343700D03*
X148027001Y-53343700D03*
X148676999Y-53343700D03*
X148676999Y-49000300D03*
X148027001Y-49000300D03*
X147376999Y-49000300D03*
X146727001Y-49000300D03*
%TD*%
D31*
%TO.C,C47*%
X185899001Y-223050002D03*
X185899001Y-221150002D03*
%TD*%
D18*
%TO.C,R231*%
X294737500Y-95504000D03*
X296562500Y-95504000D03*
%TD*%
D33*
%TO.C,C26*%
X88661000Y-167386000D03*
X86761000Y-167386000D03*
%TD*%
D15*
%TO.C,R54*%
X93726000Y-78758000D03*
X93726000Y-80408000D03*
%TD*%
D18*
%TO.C,R64*%
X78004500Y-140562002D03*
X79829500Y-140562002D03*
%TD*%
%TO.C,R212*%
X246292500Y-31496000D03*
X248117500Y-31496000D03*
%TD*%
D17*
%TO.C,R124*%
X75804001Y-226123000D03*
X75804001Y-224473000D03*
%TD*%
D14*
%TO.C,R102*%
X77915000Y-196596000D03*
X79565000Y-196596000D03*
%TD*%
D18*
%TO.C,R200*%
X86386500Y-114300000D03*
X88211500Y-114300000D03*
%TD*%
D33*
%TO.C,C31*%
X73340000Y-205994000D03*
X71440000Y-205994000D03*
%TD*%
D22*
%TO.C,D111*%
X44450000Y-116332000D03*
X44450000Y-115632000D03*
%TD*%
D18*
%TO.C,R157*%
X128225501Y-42856001D03*
X130050501Y-42856001D03*
%TD*%
%TO.C,R165*%
X68281501Y-39554001D03*
X70106501Y-39554001D03*
%TD*%
D17*
%TO.C,R84*%
X302860000Y-36131000D03*
X302860000Y-34481000D03*
%TD*%
D20*
%TO.C,D164*%
X194914000Y-58166000D03*
X194214000Y-58166000D03*
%TD*%
D14*
%TO.C,R116*%
X77915000Y-215900000D03*
X79565000Y-215900000D03*
%TD*%
D22*
%TO.C,D136*%
X110689358Y-201432116D03*
X110689358Y-202132116D03*
%TD*%
%TO.C,D65*%
X314198000Y-72232000D03*
X314198000Y-71532000D03*
%TD*%
D11*
%TO.C,C181*%
X146714000Y-47112000D03*
X147674000Y-47112000D03*
%TD*%
%TO.C,C73*%
X121842000Y-194498000D03*
X122802000Y-194498000D03*
%TD*%
D28*
%TO.C,U39*%
X271112000Y-101013000D03*
X271112000Y-102283000D03*
X271112000Y-103553000D03*
X271112000Y-104823000D03*
X276052000Y-104823000D03*
X276052000Y-103553000D03*
X276052000Y-102283000D03*
X276052000Y-101013000D03*
%TD*%
D17*
%TO.C,R221*%
X250726000Y-39557000D03*
X250726000Y-37907000D03*
%TD*%
D21*
%TO.C,C158*%
X149112000Y-143412000D03*
X148152000Y-143412000D03*
%TD*%
D20*
%TO.C,D141*%
X198024000Y-212852000D03*
X198724000Y-212852000D03*
%TD*%
%TO.C,D156*%
X245014000Y-238506000D03*
X245714000Y-238506000D03*
%TD*%
D18*
%TO.C,R201*%
X86386500Y-134112000D03*
X88211500Y-134112000D03*
%TD*%
D20*
%TO.C,D135*%
X162880000Y-212090000D03*
X163580000Y-212090000D03*
%TD*%
D11*
%TO.C,C151*%
X151200000Y-145190000D03*
X152160000Y-145190000D03*
%TD*%
D33*
%TO.C,C7*%
X285644000Y-134366000D03*
X283744000Y-134366000D03*
%TD*%
D22*
%TO.C,D154*%
X112014000Y-64962000D03*
X112014000Y-64262000D03*
%TD*%
D41*
%TO.C,Q1*%
X288036000Y-198365999D03*
X288036000Y-197366001D03*
X286512000Y-197866000D03*
%TD*%
D42*
%TO.C,C11*%
X268812000Y-138684000D03*
X266112000Y-138684000D03*
%TD*%
D11*
%TO.C,C55*%
X136359500Y-98058000D03*
X137319500Y-98058000D03*
%TD*%
D43*
%TO.C,U32*%
X108890000Y-108750000D03*
X108890000Y-109700000D03*
X108890000Y-110650000D03*
X111400000Y-110650000D03*
X111400000Y-109700000D03*
X111400000Y-108750000D03*
%TD*%
D18*
%TO.C,R180*%
X295193000Y-61468000D03*
X297018000Y-61468000D03*
%TD*%
D22*
%TO.C,D152*%
X105410000Y-60802000D03*
X105410000Y-60102000D03*
%TD*%
%TO.C,D146*%
X135636000Y-58324000D03*
X135636000Y-59024000D03*
%TD*%
D44*
%TO.C,D1*%
X290626500Y-196112000D03*
X290626500Y-194032000D03*
D45*
X294431500Y-195072000D03*
%TD*%
D20*
%TO.C,D178*%
X167690000Y-217678000D03*
X168390000Y-217678000D03*
%TD*%
D33*
%TO.C,C54*%
X70144001Y-41840001D03*
X68244001Y-41840001D03*
%TD*%
D28*
%TO.C,U38*%
X271120000Y-84735000D03*
X271120000Y-86005000D03*
X271120000Y-87275000D03*
X271120000Y-88545000D03*
X276060000Y-88545000D03*
X276060000Y-87275000D03*
X276060000Y-86005000D03*
X276060000Y-84735000D03*
%TD*%
D23*
%TO.C,R258*%
X300470500Y-80398000D03*
X298645500Y-80398000D03*
%TD*%
D11*
%TO.C,C67*%
X194460450Y-202138550D03*
X195420450Y-202138550D03*
%TD*%
D18*
%TO.C,R78*%
X267089500Y-46068000D03*
X268914500Y-46068000D03*
%TD*%
D15*
%TO.C,R142*%
X218466000Y-50347000D03*
X218466000Y-51997000D03*
%TD*%
D23*
%TO.C,R5*%
X316634500Y-141732000D03*
X314809500Y-141732000D03*
%TD*%
D11*
%TO.C,C161*%
X50800000Y-44954000D03*
X51760000Y-44954000D03*
%TD*%
D14*
%TO.C,R27*%
X140567001Y-228088999D03*
X142217001Y-228088999D03*
%TD*%
D22*
%TO.C,D58*%
X306070000Y-71058000D03*
X306070000Y-70358000D03*
%TD*%
D21*
%TO.C,C128*%
X87408000Y-219386000D03*
X86448000Y-219386000D03*
%TD*%
D27*
%TO.C,U22*%
X95799001Y-99453700D03*
X96448999Y-99453700D03*
X97099001Y-99453700D03*
X97748999Y-99453700D03*
X97748999Y-95110300D03*
X97099001Y-95110300D03*
X96448999Y-95110300D03*
X95799001Y-95110300D03*
%TD*%
D46*
%TO.C,U6*%
X263652000Y-216759998D03*
X264922000Y-216759998D03*
X266192000Y-216759998D03*
X267462000Y-216759998D03*
X268732000Y-216759998D03*
X270002000Y-216759998D03*
X271272000Y-216759998D03*
X272542000Y-216759998D03*
X273812000Y-216759998D03*
X275082000Y-216759998D03*
X276352000Y-216759998D03*
D47*
X270002000Y-207010000D03*
%TD*%
D15*
%TO.C,R17*%
X47752000Y-213551000D03*
X47752000Y-215201000D03*
%TD*%
D21*
%TO.C,C179*%
X295720000Y-40132000D03*
X294760000Y-40132000D03*
%TD*%
D33*
%TO.C,C45*%
X204126000Y-41549000D03*
X202226000Y-41549000D03*
%TD*%
%TO.C,C21*%
X81012500Y-82611498D03*
X79112500Y-82611498D03*
%TD*%
D48*
%TO.C,L1*%
X270510000Y-184020000D03*
X270510000Y-186820000D03*
%TD*%
D22*
%TO.C,D63*%
X314960000Y-56992000D03*
X314960000Y-56292000D03*
%TD*%
D10*
%TO.C,U71*%
X181042500Y-96840000D03*
X181042500Y-97790000D03*
X181042500Y-98740000D03*
X183332500Y-98740000D03*
X183332500Y-96840000D03*
%TD*%
D18*
%TO.C,R202*%
X86290500Y-154178000D03*
X88115500Y-154178000D03*
%TD*%
D17*
%TO.C,R263*%
X256902000Y-68728000D03*
X256902000Y-67078000D03*
%TD*%
D21*
%TO.C,C192*%
X247114000Y-56356000D03*
X246154000Y-56356000D03*
%TD*%
D33*
%TO.C,C27*%
X79829000Y-143864002D03*
X77929000Y-143864002D03*
%TD*%
D11*
%TO.C,C169*%
X95532000Y-44962000D03*
X96492000Y-44962000D03*
%TD*%
D22*
%TO.C,D45*%
X305816000Y-38608000D03*
X305816000Y-37908000D03*
%TD*%
D16*
%TO.C,R281*%
X276606000Y-122531500D03*
X276606000Y-124356500D03*
%TD*%
D23*
%TO.C,R203*%
X95146500Y-114300000D03*
X93321500Y-114300000D03*
%TD*%
D18*
%TO.C,R139*%
X228068000Y-39263000D03*
X229893000Y-39263000D03*
%TD*%
D21*
%TO.C,C111*%
X174062500Y-94968000D03*
X173102500Y-94968000D03*
%TD*%
D15*
%TO.C,R159*%
X93313500Y-48197000D03*
X93313500Y-49847000D03*
%TD*%
D17*
%TO.C,R22*%
X60310001Y-226069000D03*
X60310001Y-224419000D03*
%TD*%
D33*
%TO.C,C29*%
X73277000Y-187198000D03*
X71377000Y-187198000D03*
%TD*%
D20*
%TO.C,D88*%
X278384000Y-107950000D03*
X279084000Y-107950000D03*
%TD*%
D22*
%TO.C,D119*%
X91195464Y-181405361D03*
X91195464Y-182105361D03*
%TD*%
D20*
%TO.C,D157*%
X245714000Y-235458000D03*
X245014000Y-235458000D03*
%TD*%
D29*
%TO.C,R198*%
X84505000Y-138680502D03*
X84505000Y-136855502D03*
%TD*%
D20*
%TO.C,D172*%
X142398000Y-75438000D03*
X143098000Y-75438000D03*
%TD*%
D21*
%TO.C,C141*%
X162679500Y-95172000D03*
X161719500Y-95172000D03*
%TD*%
D17*
%TO.C,R275*%
X219734000Y-89717000D03*
X219734000Y-88067000D03*
%TD*%
D18*
%TO.C,R97*%
X291383000Y-63754000D03*
X293208000Y-63754000D03*
%TD*%
D13*
%TO.C,U46*%
X85330400Y-225921999D03*
X85330400Y-226422000D03*
X85330400Y-226922000D03*
X85330400Y-227422001D03*
X88073600Y-227422001D03*
X88073600Y-226922000D03*
X88073600Y-226422000D03*
X88073600Y-225921999D03*
%TD*%
D18*
%TO.C,R119*%
X125325500Y-227838000D03*
X127150500Y-227838000D03*
%TD*%
D39*
%TO.C,C66*%
X87710000Y-189004400D03*
X87710000Y-188044400D03*
%TD*%
D17*
%TO.C,R110*%
X299044000Y-237557001D03*
X299044000Y-235907001D03*
%TD*%
D14*
%TO.C,R115*%
X71057000Y-209708500D03*
X72707000Y-209708500D03*
%TD*%
D22*
%TO.C,D51*%
X285242000Y-41656000D03*
X285242000Y-40956000D03*
%TD*%
D14*
%TO.C,R118*%
X77915000Y-213106000D03*
X79565000Y-213106000D03*
%TD*%
D25*
%TO.C,C34*%
X77790000Y-199898000D03*
X79690000Y-199898000D03*
%TD*%
D49*
%TO.C,C4*%
X258064000Y-216217000D03*
X258064000Y-211011000D03*
%TD*%
D11*
%TO.C,C177*%
X220270000Y-68171000D03*
X221230000Y-68171000D03*
%TD*%
D17*
%TO.C,R112*%
X266700000Y-235521000D03*
X266700000Y-233871000D03*
%TD*%
D14*
%TO.C,R134*%
X104843000Y-202240000D03*
X106493000Y-202240000D03*
%TD*%
D20*
%TO.C,D165*%
X178150000Y-75438000D03*
X177450000Y-75438000D03*
%TD*%
D21*
%TO.C,C202*%
X271296000Y-106474000D03*
X270336000Y-106474000D03*
%TD*%
D18*
%TO.C,R204*%
X93321500Y-134112000D03*
X95146500Y-134112000D03*
%TD*%
D28*
%TO.C,U19*%
X267818000Y-50767000D03*
X267818000Y-52037000D03*
X267818000Y-53307000D03*
X267818000Y-54577000D03*
X272758000Y-54577000D03*
X272758000Y-53307000D03*
X272758000Y-52037000D03*
X272758000Y-50767000D03*
%TD*%
D19*
%TO.C,R20*%
X313406500Y-196500500D03*
X311756500Y-196500500D03*
%TD*%
D28*
%TO.C,U24*%
X267818000Y-66769000D03*
X267818000Y-68039000D03*
X267818000Y-69309000D03*
X267818000Y-70579000D03*
X272758000Y-70579000D03*
X272758000Y-69309000D03*
X272758000Y-68039000D03*
X272758000Y-66769000D03*
%TD*%
D43*
%TO.C,U50*%
X131656500Y-96840000D03*
X131656500Y-97790000D03*
X131656500Y-98740000D03*
X134166500Y-98740000D03*
X134166500Y-97790000D03*
X134166500Y-96840000D03*
%TD*%
D22*
%TO.C,D130*%
X92198477Y-204271273D03*
X92198477Y-204971273D03*
%TD*%
D18*
%TO.C,R69*%
X263533500Y-48354000D03*
X265358500Y-48354000D03*
%TD*%
D21*
%TO.C,C215*%
X213356000Y-75283000D03*
X212396000Y-75283000D03*
%TD*%
D15*
%TO.C,R194*%
X311602000Y-51647000D03*
X311602000Y-53297000D03*
%TD*%
D19*
%TO.C,R145*%
X190527000Y-70799000D03*
X188877000Y-70799000D03*
%TD*%
D17*
%TO.C,R16*%
X50038000Y-204787000D03*
X50038000Y-203137000D03*
%TD*%
D18*
%TO.C,R80*%
X298749000Y-31496000D03*
X300574000Y-31496000D03*
%TD*%
D11*
%TO.C,C150*%
X189111000Y-202946000D03*
X190071000Y-202946000D03*
%TD*%
D50*
%TO.C,C214*%
X262636000Y-127428000D03*
X262636000Y-130128000D03*
%TD*%
D19*
%TO.C,R246*%
X273399000Y-82830000D03*
X271749000Y-82830000D03*
%TD*%
D14*
%TO.C,R111*%
X305341000Y-231600000D03*
X306991000Y-231600000D03*
%TD*%
D21*
%TO.C,C84*%
X309062000Y-235970001D03*
X308102000Y-235970001D03*
%TD*%
D20*
%TO.C,D173*%
X154844000Y-75438000D03*
X155544000Y-75438000D03*
%TD*%
D12*
%TO.C,U11*%
X86174001Y-187406800D03*
X85674000Y-187406800D03*
X85174000Y-187406800D03*
X84673999Y-187406800D03*
X84673999Y-190150000D03*
X85174000Y-190150000D03*
X85674000Y-190150000D03*
X86174001Y-190150000D03*
%TD*%
D17*
%TO.C,R260*%
X247352000Y-74316000D03*
X247352000Y-72666000D03*
%TD*%
D33*
%TO.C,C44*%
X178218000Y-41549000D03*
X176318000Y-41549000D03*
%TD*%
D17*
%TO.C,R18*%
X49784000Y-215201000D03*
X49784000Y-213551000D03*
%TD*%
%TO.C,R87*%
X275114000Y-55529000D03*
X275114000Y-53879000D03*
%TD*%
D13*
%TO.C,U52*%
X211841400Y-204481999D03*
X211841400Y-204982000D03*
X211841400Y-205482000D03*
X211841400Y-205982001D03*
X214584600Y-205982001D03*
X214584600Y-205482000D03*
X214584600Y-204982000D03*
X214584600Y-204481999D03*
%TD*%
D14*
%TO.C,R99*%
X70994000Y-181102000D03*
X72644000Y-181102000D03*
%TD*%
D18*
%TO.C,R164*%
X52088501Y-39554001D03*
X53913501Y-39554001D03*
%TD*%
%TO.C,R267*%
X208661500Y-66421000D03*
X210486500Y-66421000D03*
%TD*%
D28*
%TO.C,U56*%
X213130000Y-69695000D03*
X213130000Y-70965000D03*
X213130000Y-72235000D03*
X213130000Y-73505000D03*
X218070000Y-73505000D03*
X218070000Y-72235000D03*
X218070000Y-70965000D03*
X218070000Y-69695000D03*
%TD*%
D17*
%TO.C,R193*%
X302860000Y-71437000D03*
X302860000Y-69787000D03*
%TD*%
D13*
%TO.C,U59*%
X238471600Y-215638001D03*
X238471600Y-215138000D03*
X238471600Y-214638000D03*
X238471600Y-214137999D03*
X235728400Y-214137999D03*
X235728400Y-214638000D03*
X235728400Y-215138000D03*
X235728400Y-215638001D03*
%TD*%
D31*
%TO.C,C39*%
X54722001Y-223708000D03*
X54722001Y-221808000D03*
%TD*%
D20*
%TO.C,D64*%
X282956000Y-75692000D03*
X283656000Y-75692000D03*
%TD*%
D17*
%TO.C,R49*%
X265525000Y-37749000D03*
X265525000Y-36099000D03*
%TD*%
D27*
%TO.C,U28*%
X99780999Y-117462300D03*
X99131001Y-117462300D03*
X98480999Y-117462300D03*
X97831001Y-117462300D03*
X97831001Y-121805700D03*
X98480999Y-121805700D03*
X99131001Y-121805700D03*
X99780999Y-121805700D03*
%TD*%
D20*
%TO.C,D148*%
X135540000Y-75438000D03*
X136240000Y-75438000D03*
%TD*%
D15*
%TO.C,R141*%
X168654000Y-50347000D03*
X168654000Y-51997000D03*
%TD*%
D14*
%TO.C,R233*%
X262343000Y-105458000D03*
X263993000Y-105458000D03*
%TD*%
D11*
%TO.C,C136*%
X215273000Y-202696000D03*
X216233000Y-202696000D03*
%TD*%
D17*
%TO.C,R248*%
X237700000Y-72284000D03*
X237700000Y-70634000D03*
%TD*%
%TO.C,R261*%
X302606000Y-85033000D03*
X302606000Y-83383000D03*
%TD*%
%TO.C,R146*%
X187931001Y-225465002D03*
X187931001Y-223815002D03*
%TD*%
D51*
%TO.C,L3*%
X280978000Y-149610000D03*
X280978000Y-147830000D03*
%TD*%
D22*
%TO.C,D127*%
X109437399Y-194564317D03*
X109437399Y-193864317D03*
%TD*%
D17*
%TO.C,R240*%
X302860000Y-105727000D03*
X302860000Y-104077000D03*
%TD*%
D11*
%TO.C,C57*%
X121724000Y-181512000D03*
X122684000Y-181512000D03*
%TD*%
D14*
%TO.C,R133*%
X104843000Y-207828000D03*
X106493000Y-207828000D03*
%TD*%
D52*
%TO.C,C213*%
X319706000Y-127254000D03*
X322406000Y-127254000D03*
%TD*%
D17*
%TO.C,R206*%
X238376000Y-88982000D03*
X238376000Y-87332000D03*
%TD*%
D19*
%TO.C,R171*%
X48533000Y-119820002D03*
X46883000Y-119820002D03*
%TD*%
D17*
%TO.C,R19*%
X299044000Y-232477001D03*
X299044000Y-230827001D03*
%TD*%
%TO.C,R11*%
X50038000Y-184721000D03*
X50038000Y-183071000D03*
%TD*%
D22*
%TO.C,D153*%
X115062000Y-58770000D03*
X115062000Y-58070000D03*
%TD*%
D21*
%TO.C,C91*%
X232218000Y-199486000D03*
X231258000Y-199486000D03*
%TD*%
D22*
%TO.C,D57*%
X278130000Y-70866000D03*
X278130000Y-70166000D03*
%TD*%
D20*
%TO.C,D180*%
X149606000Y-212090000D03*
X150306000Y-212090000D03*
%TD*%
D13*
%TO.C,U43*%
X305800400Y-237506000D03*
X305800400Y-238006001D03*
X305800400Y-238506001D03*
X305800400Y-239006002D03*
X308543600Y-239006002D03*
X308543600Y-238506001D03*
X308543600Y-238006001D03*
X308543600Y-237506000D03*
%TD*%
D18*
%TO.C,R250*%
X235629500Y-66548000D03*
X237454500Y-66548000D03*
%TD*%
D53*
%TO.C,U1*%
X298017499Y-176022000D03*
X299917501Y-176022000D03*
X298967500Y-173990000D03*
%TD*%
D18*
%TO.C,R60*%
X71050500Y-140240004D03*
X72875500Y-140240004D03*
%TD*%
%TO.C,R61*%
X79470500Y-127354002D03*
X81295500Y-127354002D03*
%TD*%
D27*
%TO.C,U68*%
X195227001Y-53343700D03*
X195876999Y-53343700D03*
X196527001Y-53343700D03*
X197176999Y-53343700D03*
X197176999Y-49000300D03*
X196527001Y-49000300D03*
X195876999Y-49000300D03*
X195227001Y-49000300D03*
%TD*%
D54*
%TO.C,U4*%
X296183900Y-204459000D03*
X296183900Y-203809000D03*
X296183900Y-203159000D03*
X296183900Y-202509000D03*
X296183900Y-201859000D03*
X296183900Y-201209000D03*
X296183900Y-200559000D03*
X296183900Y-199909000D03*
X290443900Y-199909000D03*
X290443900Y-200559000D03*
X290443900Y-201209000D03*
X290443900Y-201859000D03*
X290443900Y-202509000D03*
X290443900Y-203159000D03*
X290443900Y-203809000D03*
X290443900Y-204459000D03*
%TD*%
D21*
%TO.C,C197*%
X271530000Y-90196000D03*
X270570000Y-90196000D03*
%TD*%
D43*
%TO.C,U15*%
X156444800Y-154908000D03*
X156444800Y-155858000D03*
X156444800Y-156808000D03*
X158954800Y-156808000D03*
X158954800Y-155858000D03*
X158954800Y-154908000D03*
%TD*%
D17*
%TO.C,R149*%
X189709001Y-225465002D03*
X189709001Y-223815002D03*
%TD*%
D25*
%TO.C,C6*%
X314772000Y-144272000D03*
X316672000Y-144272000D03*
%TD*%
D18*
%TO.C,R65*%
X79528500Y-167386002D03*
X81353500Y-167386002D03*
%TD*%
D20*
%TO.C,D61*%
X63962001Y-228600000D03*
X63262001Y-228600000D03*
%TD*%
D22*
%TO.C,D182*%
X222504000Y-73818000D03*
X222504000Y-74518000D03*
%TD*%
%TO.C,D49*%
X46482000Y-209612000D03*
X46482000Y-210312000D03*
%TD*%
D18*
%TO.C,R178*%
X294835500Y-45466000D03*
X296660500Y-45466000D03*
%TD*%
D20*
%TO.C,D168*%
X167544000Y-75438000D03*
X168244000Y-75438000D03*
%TD*%
D21*
%TO.C,C180*%
X293700000Y-106426000D03*
X292740000Y-106426000D03*
%TD*%
D17*
%TO.C,R125*%
X48880001Y-226123000D03*
X48880001Y-224473000D03*
%TD*%
D11*
%TO.C,C92*%
X303712000Y-198882000D03*
X304672000Y-198882000D03*
%TD*%
%TO.C,C147*%
X113127000Y-109833600D03*
X114087000Y-109833600D03*
%TD*%
D17*
%TO.C,R220*%
X250726000Y-36255000D03*
X250726000Y-34605000D03*
%TD*%
%TO.C,R86*%
X275114000Y-52227000D03*
X275114000Y-50577000D03*
%TD*%
D21*
%TO.C,C166*%
X99822000Y-123694000D03*
X98862000Y-123694000D03*
%TD*%
D55*
%TO.C,C9*%
X272796000Y-220030000D03*
X272796000Y-221930000D03*
%TD*%
D17*
%TO.C,R273*%
X220426000Y-71155000D03*
X220426000Y-69505000D03*
%TD*%
D20*
%TO.C,D104*%
X232167000Y-238506000D03*
X232867000Y-238506000D03*
%TD*%
D56*
%TO.C,C58*%
X87710000Y-190330400D03*
X87710000Y-191290400D03*
%TD*%
D21*
%TO.C,C208*%
X240860000Y-108325000D03*
X239900000Y-108325000D03*
%TD*%
D33*
%TO.C,C36*%
X73340000Y-215804500D03*
X71440000Y-215804500D03*
%TD*%
D17*
%TO.C,R262*%
X302606000Y-88589000D03*
X302606000Y-86939000D03*
%TD*%
D21*
%TO.C,C191*%
X267974000Y-72480000D03*
X267014000Y-72480000D03*
%TD*%
D19*
%TO.C,R144*%
X165127000Y-70754000D03*
X163477000Y-70754000D03*
%TD*%
D11*
%TO.C,C165*%
X73688000Y-45021000D03*
X74648000Y-45021000D03*
%TD*%
D20*
%TO.C,D181*%
X155143382Y-212089510D03*
X154443382Y-212089510D03*
%TD*%
D17*
%TO.C,R30*%
X201139001Y-225465002D03*
X201139001Y-223815002D03*
%TD*%
D22*
%TO.C,D128*%
X137668000Y-221930000D03*
X137668000Y-221230000D03*
%TD*%
D57*
%TO.C,K1*%
X302621200Y-188707900D03*
X302621200Y-185507899D03*
X302621200Y-183307899D03*
X302621200Y-181107900D03*
X295661600Y-181107900D03*
X295661600Y-183307899D03*
X295661600Y-185507899D03*
X295661600Y-188707900D03*
%TD*%
D22*
%TO.C,D149*%
X122174000Y-63342000D03*
X122174000Y-62642000D03*
%TD*%
D21*
%TO.C,C204*%
X86078000Y-122174000D03*
X85118000Y-122174000D03*
%TD*%
D17*
%TO.C,R242*%
X268827000Y-89751000D03*
X268827000Y-88101000D03*
%TD*%
D18*
%TO.C,R77*%
X295089500Y-29464000D03*
X296914500Y-29464000D03*
%TD*%
D25*
%TO.C,C42*%
X131268000Y-220976999D03*
X133168000Y-220976999D03*
%TD*%
D14*
%TO.C,R106*%
X71057000Y-202946000D03*
X72707000Y-202946000D03*
%TD*%
D19*
%TO.C,R113*%
X48533000Y-159285502D03*
X46883000Y-159285502D03*
%TD*%
D23*
%TO.C,R57*%
X320698500Y-116840000D03*
X318873500Y-116840000D03*
%TD*%
D18*
%TO.C,R68*%
X291533500Y-31496000D03*
X293358500Y-31496000D03*
%TD*%
D33*
%TO.C,C53*%
X53951001Y-41840001D03*
X52051001Y-41840001D03*
%TD*%
D22*
%TO.C,D132*%
X96848426Y-216222228D03*
X96848426Y-216922228D03*
%TD*%
D28*
%TO.C,U35*%
X243430000Y-34795000D03*
X243430000Y-36065000D03*
X243430000Y-37335000D03*
X243430000Y-38605000D03*
X248370000Y-38605000D03*
X248370000Y-37335000D03*
X248370000Y-36065000D03*
X248370000Y-34795000D03*
%TD*%
D22*
%TO.C,D150*%
X148590000Y-58166000D03*
X148590000Y-57466000D03*
%TD*%
D18*
%TO.C,R40*%
X86412500Y-60767498D03*
X88237500Y-60767498D03*
%TD*%
D15*
%TO.C,R56*%
X93726000Y-96457000D03*
X93726000Y-98107000D03*
%TD*%
D19*
%TO.C,R152*%
X189000000Y-212800000D03*
X187350000Y-212800000D03*
%TD*%
D22*
%TO.C,D103*%
X228318820Y-243996170D03*
X228318820Y-243296170D03*
%TD*%
D18*
%TO.C,R268*%
X208153500Y-85082000D03*
X209978500Y-85082000D03*
%TD*%
D34*
%TO.C,U8*%
X144136200Y-145190000D03*
X144136200Y-146460000D03*
X144136200Y-147730000D03*
X144136200Y-149000000D03*
X144136200Y-150270000D03*
X144136200Y-151540000D03*
X144136200Y-152810000D03*
X149063800Y-152810000D03*
X149063800Y-151540000D03*
X149063800Y-150270000D03*
X149063800Y-149000000D03*
X149063800Y-147730000D03*
X149063800Y-146460000D03*
X149063800Y-145190000D03*
%TD*%
D18*
%TO.C,R52*%
X263533500Y-31590000D03*
X265358500Y-31590000D03*
%TD*%
%TO.C,R79*%
X271153500Y-31590000D03*
X272978500Y-31590000D03*
%TD*%
%TO.C,R255*%
X239439500Y-64262000D03*
X241264500Y-64262000D03*
%TD*%
D17*
%TO.C,R127*%
X67930001Y-226123000D03*
X67930001Y-224473000D03*
%TD*%
D11*
%TO.C,C99*%
X234080000Y-200756000D03*
X235040000Y-200756000D03*
%TD*%
D17*
%TO.C,R190*%
X275368000Y-68229000D03*
X275368000Y-66579000D03*
%TD*%
D11*
%TO.C,C63*%
X136359500Y-95772000D03*
X137319500Y-95772000D03*
%TD*%
D21*
%TO.C,C170*%
X99568000Y-143760000D03*
X98608000Y-143760000D03*
%TD*%
D14*
%TO.C,R234*%
X236511000Y-55244500D03*
X238161000Y-55244500D03*
%TD*%
D34*
%TO.C,U9*%
X144136200Y-159160000D03*
X144136200Y-160430000D03*
X144136200Y-161700000D03*
X144136200Y-162970000D03*
X144136200Y-164240000D03*
X144136200Y-165510000D03*
X144136200Y-166780000D03*
X149063800Y-166780000D03*
X149063800Y-165510000D03*
X149063800Y-164240000D03*
X149063800Y-162970000D03*
X149063800Y-161700000D03*
X149063800Y-160430000D03*
X149063800Y-159160000D03*
%TD*%
D14*
%TO.C,R282*%
X297117000Y-206502000D03*
X298767000Y-206502000D03*
%TD*%
D19*
%TO.C,R162*%
X127535000Y-70769000D03*
X125885000Y-70769000D03*
%TD*%
D17*
%TO.C,R189*%
X302860000Y-55435000D03*
X302860000Y-53785000D03*
%TD*%
D21*
%TO.C,C198*%
X212622000Y-93718000D03*
X211662000Y-93718000D03*
%TD*%
%TO.C,C107*%
X232500000Y-209646000D03*
X231540000Y-209646000D03*
%TD*%
%TO.C,C79*%
X144839500Y-94772000D03*
X143879500Y-94772000D03*
%TD*%
D31*
%TO.C,C49*%
X205203001Y-223050002D03*
X205203001Y-221150002D03*
%TD*%
D58*
%TO.C,D2*%
X312698000Y-187447000D03*
X310618000Y-187447000D03*
D59*
X311658000Y-183642000D03*
%TD*%
D60*
%TO.C,C12*%
X275082000Y-146558000D03*
X275082000Y-139446000D03*
%TD*%
D11*
%TO.C,C167*%
X302380000Y-81922000D03*
X303340000Y-81922000D03*
%TD*%
D27*
%TO.C,U80*%
X121227001Y-53343700D03*
X121876999Y-53343700D03*
X122527001Y-53343700D03*
X123176999Y-53343700D03*
X123176999Y-49000300D03*
X122527001Y-49000300D03*
X121876999Y-49000300D03*
X121227001Y-49000300D03*
%TD*%
D17*
%TO.C,R83*%
X275368000Y-39527000D03*
X275368000Y-37877000D03*
%TD*%
D19*
%TO.C,R174*%
X110792000Y-136906000D03*
X109142000Y-136906000D03*
%TD*%
D15*
%TO.C,R277*%
X228760000Y-70351000D03*
X228760000Y-72001000D03*
%TD*%
D33*
%TO.C,C20*%
X81075000Y-65339498D03*
X79175000Y-65339498D03*
%TD*%
D11*
%TO.C,C115*%
X233798000Y-210662000D03*
X234758000Y-210662000D03*
%TD*%
D15*
%TO.C,R4*%
X288036000Y-204661000D03*
X288036000Y-206311000D03*
%TD*%
D18*
%TO.C,R269*%
X212471500Y-64135000D03*
X214296500Y-64135000D03*
%TD*%
D14*
%TO.C,R169*%
X129075001Y-39300001D03*
X130725001Y-39300001D03*
%TD*%
D22*
%TO.C,D97*%
X306012000Y-80518000D03*
X306012000Y-79818000D03*
%TD*%
D14*
%TO.C,R98*%
X71057000Y-190500000D03*
X72707000Y-190500000D03*
%TD*%
D31*
%TO.C,C13*%
X283718000Y-214564000D03*
X283718000Y-212664000D03*
%TD*%
D11*
%TO.C,C195*%
X247126000Y-67903000D03*
X248086000Y-67903000D03*
%TD*%
%TO.C,C178*%
X94920000Y-159700000D03*
X95880000Y-159700000D03*
%TD*%
D22*
%TO.C,D107*%
X90424000Y-175260000D03*
X90424000Y-175960000D03*
%TD*%
D18*
%TO.C,R138*%
X202263500Y-39263000D03*
X204088500Y-39263000D03*
%TD*%
D17*
%TO.C,R94*%
X293208000Y-69405000D03*
X293208000Y-67755000D03*
%TD*%
D22*
%TO.C,D41*%
X46482000Y-189258002D03*
X46482000Y-189958002D03*
%TD*%
D16*
%TO.C,R74*%
X276606000Y-129135500D03*
X276606000Y-130960500D03*
%TD*%
D15*
%TO.C,R166*%
X71469500Y-48260000D03*
X71469500Y-49910000D03*
%TD*%
D18*
%TO.C,R81*%
X270645500Y-48354000D03*
X272470500Y-48354000D03*
%TD*%
D39*
%TO.C,C113*%
X87710000Y-208562400D03*
X87710000Y-207602400D03*
%TD*%
D17*
%TO.C,R51*%
X265462000Y-53497000D03*
X265462000Y-51847000D03*
%TD*%
%TO.C,R252*%
X257812000Y-50310000D03*
X257812000Y-48660000D03*
%TD*%
D18*
%TO.C,R272*%
X215265500Y-85082000D03*
X217090500Y-85082000D03*
%TD*%
D21*
%TO.C,C114*%
X133626000Y-202942999D03*
X132666000Y-202942999D03*
%TD*%
D20*
%TO.C,D101*%
X230028000Y-235712000D03*
X230728000Y-235712000D03*
%TD*%
D22*
%TO.C,D52*%
X314706000Y-39878000D03*
X314706000Y-39178000D03*
%TD*%
D18*
%TO.C,R37*%
X82757000Y-97161496D03*
X84582000Y-97161496D03*
%TD*%
D14*
%TO.C,R235*%
X262351000Y-89180000D03*
X264001000Y-89180000D03*
%TD*%
D18*
%TO.C,R226*%
X262255500Y-95806000D03*
X264080500Y-95806000D03*
%TD*%
D19*
%TO.C,R170*%
X48533000Y-139282502D03*
X46883000Y-139282502D03*
%TD*%
D11*
%TO.C,C149*%
X120734000Y-199582000D03*
X121694000Y-199582000D03*
%TD*%
D10*
%TO.C,U65*%
X131493000Y-212152999D03*
X131493000Y-213102999D03*
X131493000Y-214052999D03*
X133783000Y-214052999D03*
X133783000Y-212152999D03*
%TD*%
D11*
%TO.C,C104*%
X193645500Y-94872000D03*
X194605500Y-94872000D03*
%TD*%
D27*
%TO.C,U29*%
X99780999Y-137528300D03*
X99131001Y-137528300D03*
X98480999Y-137528300D03*
X97831001Y-137528300D03*
X97831001Y-141871700D03*
X98480999Y-141871700D03*
X99131001Y-141871700D03*
X99780999Y-141871700D03*
%TD*%
D38*
%TO.C,U25*%
X87876850Y-118337002D03*
X87876850Y-119607002D03*
X87876850Y-120877002D03*
X87876850Y-122147002D03*
X93325150Y-122147002D03*
X93325150Y-120877002D03*
X93325150Y-119607002D03*
X93325150Y-118337002D03*
%TD*%
D11*
%TO.C,C133*%
X125359500Y-97662000D03*
X126319500Y-97662000D03*
%TD*%
D21*
%TO.C,C174*%
X240888000Y-91713000D03*
X239928000Y-91713000D03*
%TD*%
D17*
%TO.C,R218*%
X248028000Y-104324000D03*
X248028000Y-102674000D03*
%TD*%
D33*
%TO.C,C22*%
X81012500Y-99629498D03*
X79112500Y-99629498D03*
%TD*%
D20*
%TO.C,D102*%
X236677000Y-238506000D03*
X235977000Y-238506000D03*
%TD*%
D61*
%TO.C,C10*%
X279400000Y-215089000D03*
X279400000Y-212139000D03*
%TD*%
D25*
%TO.C,C8*%
X288570000Y-134366000D03*
X290470000Y-134366000D03*
%TD*%
D14*
%TO.C,R28*%
X160719000Y-228092000D03*
X162369000Y-228092000D03*
%TD*%
D23*
%TO.C,R186*%
X272724500Y-64102000D03*
X270899500Y-64102000D03*
%TD*%
D35*
%TO.C,U121*%
X207321000Y-104674999D03*
X207321000Y-104025001D03*
X207321000Y-103374999D03*
X207321000Y-102725001D03*
X207321000Y-102075002D03*
X207321000Y-101425001D03*
X207321000Y-100775002D03*
X207321000Y-100125001D03*
X201479000Y-100125001D03*
X201479000Y-100774999D03*
X201479000Y-101425001D03*
X201479000Y-102074999D03*
X201479000Y-102724998D03*
X201479000Y-103374999D03*
X201479000Y-104024998D03*
X201479000Y-104674999D03*
%TD*%
D33*
%TO.C,C23*%
X88445000Y-127354002D03*
X86545000Y-127354002D03*
%TD*%
D11*
%TO.C,C64*%
X160581800Y-153838000D03*
X161541800Y-153838000D03*
%TD*%
D19*
%TO.C,R2*%
X306178500Y-202692000D03*
X304528500Y-202692000D03*
%TD*%
D29*
%TO.C,R228*%
X267994000Y-102306500D03*
X267994000Y-100481500D03*
%TD*%
D17*
%TO.C,R71*%
X102870000Y-120459000D03*
X102870000Y-118809000D03*
%TD*%
D11*
%TO.C,C168*%
X95220000Y-119700000D03*
X96180000Y-119700000D03*
%TD*%
D22*
%TO.C,D78*%
X252064000Y-46324000D03*
X252064000Y-45624000D03*
%TD*%
D17*
%TO.C,R208*%
X240820000Y-37525000D03*
X240820000Y-35875000D03*
%TD*%
D23*
%TO.C,R187*%
X300828000Y-63500000D03*
X299003000Y-63500000D03*
%TD*%
D19*
%TO.C,R175*%
X110807000Y-116840000D03*
X109157000Y-116840000D03*
%TD*%
D17*
%TO.C,R243*%
X268756000Y-106029000D03*
X268756000Y-104379000D03*
%TD*%
D11*
%TO.C,C190*%
X243388000Y-40132000D03*
X244348000Y-40132000D03*
%TD*%
%TO.C,C106*%
X134952000Y-202942999D03*
X135912000Y-202942999D03*
%TD*%
D18*
%TO.C,R270*%
X211709500Y-82796000D03*
X213534500Y-82796000D03*
%TD*%
D20*
%TO.C,D144*%
X200056000Y-210312000D03*
X200756000Y-210312000D03*
%TD*%
D11*
%TO.C,C75*%
X177370000Y-207514999D03*
X178330000Y-207514999D03*
%TD*%
D20*
%TO.C,D170*%
X193960000Y-75438000D03*
X194660000Y-75438000D03*
%TD*%
%TO.C,D137*%
X110740366Y-208219754D03*
X110040366Y-208219754D03*
%TD*%
D11*
%TO.C,C193*%
X194988000Y-47112000D03*
X195948000Y-47112000D03*
%TD*%
D33*
%TO.C,C24*%
X79867000Y-123798002D03*
X77967000Y-123798002D03*
%TD*%
D22*
%TO.C,D77*%
X110236000Y-169576000D03*
X110236000Y-170276000D03*
%TD*%
D28*
%TO.C,U40*%
X240056000Y-69554000D03*
X240056000Y-70824000D03*
X240056000Y-72094000D03*
X240056000Y-73364000D03*
X244996000Y-73364000D03*
X244996000Y-72094000D03*
X244996000Y-70824000D03*
X244996000Y-69554000D03*
%TD*%
D33*
%TO.C,C1*%
X306115500Y-204978000D03*
X304215500Y-204978000D03*
%TD*%
D25*
%TO.C,C32*%
X77790000Y-181102000D03*
X79690000Y-181102000D03*
%TD*%
D21*
%TO.C,C98*%
X133367600Y-210562999D03*
X132407600Y-210562999D03*
%TD*%
D33*
%TO.C,C18*%
X88378500Y-82611498D03*
X86478500Y-82611498D03*
%TD*%
D28*
%TO.C,U36*%
X295564000Y-100965000D03*
X295564000Y-102235000D03*
X295564000Y-103505000D03*
X295564000Y-104775000D03*
X300504000Y-104775000D03*
X300504000Y-103505000D03*
X300504000Y-102235000D03*
X300504000Y-100965000D03*
%TD*%
D14*
%TO.C,R177*%
X107739001Y-39300001D03*
X109389001Y-39300001D03*
%TD*%
D17*
%TO.C,R254*%
X284202000Y-101597000D03*
X284202000Y-99947000D03*
%TD*%
D13*
%TO.C,U48*%
X189959900Y-97039999D03*
X189959900Y-97540000D03*
X189959900Y-98040000D03*
X189959900Y-98540001D03*
X192703100Y-98540001D03*
X192703100Y-98040000D03*
X192703100Y-97540000D03*
X192703100Y-97039999D03*
%TD*%
D28*
%TO.C,U18*%
X295564000Y-34671000D03*
X295564000Y-35941000D03*
X295564000Y-37211000D03*
X295564000Y-38481000D03*
X300504000Y-38481000D03*
X300504000Y-37211000D03*
X300504000Y-35941000D03*
X300504000Y-34671000D03*
%TD*%
D17*
%TO.C,R50*%
X292449500Y-38671000D03*
X292449500Y-37021000D03*
%TD*%
D18*
%TO.C,R223*%
X262263500Y-79782000D03*
X264088500Y-79782000D03*
%TD*%
D35*
%TO.C,U12*%
X240021000Y-199474999D03*
X240021000Y-198825001D03*
X240021000Y-198174999D03*
X240021000Y-197525001D03*
X240021000Y-196875002D03*
X240021000Y-196225001D03*
X240021000Y-195575002D03*
X240021000Y-194925001D03*
X234179000Y-194925001D03*
X234179000Y-195574999D03*
X234179000Y-196225001D03*
X234179000Y-196874999D03*
X234179000Y-197524998D03*
X234179000Y-198174999D03*
X234179000Y-198824998D03*
X234179000Y-199474999D03*
%TD*%
D11*
%TO.C,C142*%
X89016000Y-224386000D03*
X89976000Y-224386000D03*
%TD*%
D17*
%TO.C,R93*%
X265462000Y-69499000D03*
X265462000Y-67849000D03*
%TD*%
D21*
%TO.C,C130*%
X149910000Y-202688999D03*
X148950000Y-202688999D03*
%TD*%
D14*
%TO.C,R176*%
X86149001Y-39300001D03*
X87799001Y-39300001D03*
%TD*%
D18*
%TO.C,R156*%
X106635501Y-42856001D03*
X108460501Y-42856001D03*
%TD*%
D20*
%TO.C,D86*%
X199711001Y-228450002D03*
X199011001Y-228450002D03*
%TD*%
D22*
%TO.C,D54*%
X305816000Y-55468000D03*
X305816000Y-54768000D03*
%TD*%
%TO.C,D75*%
X109728000Y-148494000D03*
X109728000Y-149194000D03*
%TD*%
D23*
%TO.C,R230*%
X238202000Y-48077500D03*
X236377000Y-48077500D03*
%TD*%
D18*
%TO.C,R63*%
X79528500Y-147420002D03*
X81353500Y-147420002D03*
%TD*%
D22*
%TO.C,D109*%
X44704000Y-154748000D03*
X44704000Y-155448000D03*
%TD*%
D14*
%TO.C,R131*%
X111321000Y-214432000D03*
X112971000Y-214432000D03*
%TD*%
D33*
%TO.C,C30*%
X73340000Y-196596000D03*
X71440000Y-196596000D03*
%TD*%
D11*
%TO.C,C123*%
X151462000Y-202688999D03*
X152422000Y-202688999D03*
%TD*%
D33*
%TO.C,C25*%
X88503000Y-147320000D03*
X86603000Y-147320000D03*
%TD*%
D29*
%TO.C,R225*%
X268002000Y-86028500D03*
X268002000Y-84203500D03*
%TD*%
D21*
%TO.C,C157*%
X187531000Y-202946000D03*
X186571000Y-202946000D03*
%TD*%
D18*
%TO.C,R48*%
X79084000Y-95057498D03*
X80909000Y-95057498D03*
%TD*%
D11*
%TO.C,C103*%
X175134500Y-94972000D03*
X176094500Y-94972000D03*
%TD*%
%TO.C,C200*%
X302634000Y-49022000D03*
X303594000Y-49022000D03*
%TD*%
D17*
%TO.C,R207*%
X238376000Y-105594000D03*
X238376000Y-103944000D03*
%TD*%
D21*
%TO.C,C137*%
X235266000Y-216920000D03*
X234306000Y-216920000D03*
%TD*%
D19*
%TO.C,R245*%
X247479000Y-48990000D03*
X245829000Y-48990000D03*
%TD*%
D31*
%TO.C,C41*%
X73518001Y-223708000D03*
X73518001Y-221808000D03*
%TD*%
D20*
%TO.C,D59*%
X45074001Y-228600000D03*
X44374001Y-228600000D03*
%TD*%
D62*
%TO.C,C3*%
X314706000Y-135382000D03*
X321818000Y-135382000D03*
%TD*%
D20*
%TO.C,D100*%
X240295000Y-238506000D03*
X240995000Y-238506000D03*
%TD*%
D14*
%TO.C,R238*%
X262343000Y-102410000D03*
X263993000Y-102410000D03*
%TD*%
D17*
%TO.C,R150*%
X199361001Y-225465002D03*
X199361001Y-223815002D03*
%TD*%
D11*
%TO.C,C183*%
X247802000Y-84601000D03*
X248762000Y-84601000D03*
%TD*%
D22*
%TO.C,D90*%
X306070000Y-96870000D03*
X306070000Y-96170000D03*
%TD*%
D14*
%TO.C,R101*%
X77915000Y-187198000D03*
X79565000Y-187198000D03*
%TD*%
D15*
%TO.C,R195*%
X283602000Y-67610000D03*
X283602000Y-69260000D03*
%TD*%
%TO.C,R14*%
X47752000Y-183071000D03*
X47752000Y-184721000D03*
%TD*%
D10*
%TO.C,U63*%
X148511000Y-204278999D03*
X148511000Y-205228999D03*
X148511000Y-206178999D03*
X150801000Y-206178999D03*
X150801000Y-204278999D03*
%TD*%
%TO.C,U77*%
X203432000Y-204282000D03*
X203432000Y-205232000D03*
X203432000Y-206182000D03*
X205722000Y-206182000D03*
X205722000Y-204282000D03*
%TD*%
D35*
%TO.C,U13*%
X240021000Y-209634999D03*
X240021000Y-208985001D03*
X240021000Y-208334999D03*
X240021000Y-207685001D03*
X240021000Y-207035002D03*
X240021000Y-206385001D03*
X240021000Y-205735002D03*
X240021000Y-205085001D03*
X234179000Y-205085001D03*
X234179000Y-205734999D03*
X234179000Y-206385001D03*
X234179000Y-207034999D03*
X234179000Y-207684998D03*
X234179000Y-208334999D03*
X234179000Y-208984998D03*
X234179000Y-209634999D03*
%TD*%
D11*
%TO.C,C209*%
X95814000Y-75523000D03*
X96774000Y-75523000D03*
%TD*%
D17*
%TO.C,R151*%
X209013001Y-225465002D03*
X209013001Y-223815002D03*
%TD*%
D30*
%TO.C,C15*%
X297180000Y-216175895D03*
X297180000Y-210831507D03*
%TD*%
D11*
%TO.C,C96*%
X202804000Y-117210000D03*
X203764000Y-117210000D03*
%TD*%
D20*
%TO.C,D163*%
X177196000Y-58420000D03*
X177896000Y-58420000D03*
%TD*%
D11*
%TO.C,C154*%
X113127000Y-107293600D03*
X114087000Y-107293600D03*
%TD*%
D17*
%TO.C,R266*%
X210082000Y-92257000D03*
X210082000Y-90607000D03*
%TD*%
%TO.C,R191*%
X275368000Y-71531000D03*
X275368000Y-69881000D03*
%TD*%
D62*
%TO.C,C5*%
X284988000Y-141478000D03*
X292100000Y-141478000D03*
%TD*%
D22*
%TO.C,D108*%
X64262000Y-39528000D03*
X64262000Y-40228000D03*
%TD*%
D14*
%TO.C,R26*%
X118746000Y-228092000D03*
X120396000Y-228092000D03*
%TD*%
D18*
%TO.C,R211*%
X236323500Y-83058000D03*
X238148500Y-83058000D03*
%TD*%
D56*
%TO.C,C105*%
X87710000Y-209860400D03*
X87710000Y-210820400D03*
%TD*%
D14*
%TO.C,R103*%
X77915000Y-205994000D03*
X79565000Y-205994000D03*
%TD*%
D11*
%TO.C,C87*%
X154167500Y-94461500D03*
X155127500Y-94461500D03*
%TD*%
%TO.C,C65*%
X121922000Y-178972000D03*
X122882000Y-178972000D03*
%TD*%
D18*
%TO.C,R59*%
X70954500Y-120174004D03*
X72779500Y-120174004D03*
%TD*%
D21*
%TO.C,C100*%
X302386000Y-198882000D03*
X301426000Y-198882000D03*
%TD*%
D18*
%TO.C,R271*%
X216281500Y-66421000D03*
X218106500Y-66421000D03*
%TD*%
D15*
%TO.C,R196*%
X311602000Y-67747000D03*
X311602000Y-69397000D03*
%TD*%
D17*
%TO.C,R128*%
X77582001Y-226123000D03*
X77582001Y-224473000D03*
%TD*%
%TO.C,R82*%
X275368000Y-36225000D03*
X275368000Y-34575000D03*
%TD*%
%TO.C,R31*%
X210791001Y-225465002D03*
X210791001Y-223815002D03*
%TD*%
D10*
%TO.C,U64*%
X117557000Y-201422000D03*
X117557000Y-202372000D03*
X117557000Y-203322000D03*
X119847000Y-203322000D03*
X119847000Y-201422000D03*
%TD*%
D14*
%TO.C,R153*%
X203137000Y-212852000D03*
X204787000Y-212852000D03*
%TD*%
D15*
%TO.C,R160*%
X144654000Y-50347000D03*
X144654000Y-51997000D03*
%TD*%
D11*
%TO.C,C56*%
X160581800Y-156108000D03*
X161541800Y-156108000D03*
%TD*%
D27*
%TO.C,U21*%
X95799001Y-81754700D03*
X96448999Y-81754700D03*
X97099001Y-81754700D03*
X97748999Y-81754700D03*
X97748999Y-77411300D03*
X97099001Y-77411300D03*
X96448999Y-77411300D03*
X95799001Y-77411300D03*
%TD*%
D18*
%TO.C,R39*%
X71172500Y-78024002D03*
X72997500Y-78024002D03*
%TD*%
D22*
%TO.C,D129*%
X169292256Y-224788000D03*
X169292256Y-224088000D03*
%TD*%
D33*
%TO.C,C17*%
X88187000Y-65377498D03*
X86287000Y-65377498D03*
%TD*%
D17*
%TO.C,R122*%
X56754001Y-226069000D03*
X56754001Y-224419000D03*
%TD*%
D22*
%TO.C,D73*%
X108204000Y-128174000D03*
X108204000Y-128874000D03*
%TD*%
D11*
%TO.C,C60*%
X151123800Y-159160000D03*
X152083800Y-159160000D03*
%TD*%
D18*
%TO.C,R232*%
X298547500Y-97790000D03*
X300372500Y-97790000D03*
%TD*%
D17*
%TO.C,R215*%
X292954000Y-103695000D03*
X292954000Y-102045000D03*
%TD*%
D15*
%TO.C,R278*%
X228660000Y-87051000D03*
X228660000Y-88701000D03*
%TD*%
D14*
%TO.C,R237*%
X262351000Y-86132000D03*
X264001000Y-86132000D03*
%TD*%
D15*
%TO.C,R91*%
X283602000Y-51801000D03*
X283602000Y-53451000D03*
%TD*%
D17*
%TO.C,R123*%
X66152001Y-226123000D03*
X66152001Y-224473000D03*
%TD*%
D13*
%TO.C,U58*%
X161003900Y-97039999D03*
X161003900Y-97540000D03*
X161003900Y-98040000D03*
X161003900Y-98540001D03*
X163747100Y-98540001D03*
X163747100Y-98040000D03*
X163747100Y-97540000D03*
X163747100Y-97039999D03*
%TD*%
D53*
%TO.C,U14*%
X292927999Y-225298000D03*
X294828001Y-225298000D03*
X293878000Y-223266000D03*
%TD*%
D22*
%TO.C,D47*%
X46482000Y-198882000D03*
X46482000Y-199582000D03*
%TD*%
D11*
%TO.C,C74*%
X120794000Y-206572000D03*
X121754000Y-206572000D03*
%TD*%
D20*
%TO.C,D87*%
X209363001Y-228450002D03*
X208663001Y-228450002D03*
%TD*%
%TO.C,D140*%
X183700803Y-210900136D03*
X183000803Y-210900136D03*
%TD*%
D22*
%TO.C,D122*%
X105918000Y-183388000D03*
X105918000Y-184088000D03*
%TD*%
D11*
%TO.C,C119*%
X184275500Y-94772000D03*
X185235500Y-94772000D03*
%TD*%
%TO.C,C76*%
X310642000Y-235970001D03*
X311602000Y-235970001D03*
%TD*%
D20*
%TO.C,D131*%
X91948877Y-213909348D03*
X92648877Y-213909348D03*
%TD*%
D18*
%TO.C,R95*%
X291279500Y-47498000D03*
X293104500Y-47498000D03*
%TD*%
D17*
%TO.C,R21*%
X50658001Y-226069000D03*
X50658001Y-224419000D03*
%TD*%
D25*
%TO.C,C51*%
X114472001Y-42856001D03*
X116372001Y-42856001D03*
%TD*%
D20*
%TO.C,D71*%
X105156000Y-143764000D03*
X105856000Y-143764000D03*
%TD*%
D17*
%TO.C,R244*%
X311912000Y-101409000D03*
X311912000Y-99759000D03*
%TD*%
D22*
%TO.C,D125*%
X91809774Y-192592214D03*
X91809774Y-193292214D03*
%TD*%
D27*
%TO.C,U69*%
X220713001Y-53343700D03*
X221362999Y-53343700D03*
X222013001Y-53343700D03*
X222662999Y-53343700D03*
X222662999Y-49000300D03*
X222013001Y-49000300D03*
X221362999Y-49000300D03*
X220713001Y-49000300D03*
%TD*%
D20*
%TO.C,D171*%
X130968000Y-75438000D03*
X131668000Y-75438000D03*
%TD*%
%TO.C,D151*%
X148748000Y-75438000D03*
X149448000Y-75438000D03*
%TD*%
%TO.C,D66*%
X105314000Y-123952000D03*
X106014000Y-123952000D03*
%TD*%
D43*
%TO.C,U16*%
X121003500Y-96840000D03*
X121003500Y-97790000D03*
X121003500Y-98740000D03*
X123513500Y-98740000D03*
X123513500Y-97790000D03*
X123513500Y-96840000D03*
%TD*%
D11*
%TO.C,C80*%
X202142000Y-106206000D03*
X203102000Y-106206000D03*
%TD*%
D25*
%TO.C,C33*%
X77790000Y-190246000D03*
X79690000Y-190246000D03*
%TD*%
D15*
%TO.C,R53*%
X93726000Y-61659000D03*
X93726000Y-63309000D03*
%TD*%
D17*
%TO.C,R188*%
X302860000Y-52133000D03*
X302860000Y-50483000D03*
%TD*%
D20*
%TO.C,D185*%
X227172000Y-96266000D03*
X226472000Y-96266000D03*
%TD*%
D15*
%TO.C,R90*%
X311602000Y-35289000D03*
X311602000Y-36939000D03*
%TD*%
D11*
%TO.C,C90*%
X134698000Y-210562999D03*
X135658000Y-210562999D03*
%TD*%
D21*
%TO.C,C112*%
X192291500Y-94876000D03*
X191331500Y-94876000D03*
%TD*%
D34*
%TO.C,U54*%
X165936200Y-110390000D03*
X165936200Y-111660000D03*
X165936200Y-112930000D03*
X165936200Y-114200000D03*
X165936200Y-115470000D03*
X165936200Y-116740000D03*
X165936200Y-118010000D03*
X170863800Y-118010000D03*
X170863800Y-116740000D03*
X170863800Y-115470000D03*
X170863800Y-114200000D03*
X170863800Y-112930000D03*
X170863800Y-111660000D03*
X170863800Y-110390000D03*
%TD*%
D23*
%TO.C,R129*%
X133160501Y-224532999D03*
X131335501Y-224532999D03*
%TD*%
D17*
%TO.C,R23*%
X69708001Y-226123000D03*
X69708001Y-224473000D03*
%TD*%
D20*
%TO.C,D84*%
X252476000Y-56896000D03*
X253176000Y-56896000D03*
%TD*%
D43*
%TO.C,U53*%
X116616000Y-125288000D03*
X116616000Y-126238000D03*
X116616000Y-127188000D03*
X119126000Y-127188000D03*
X119126000Y-126238000D03*
X119126000Y-125288000D03*
%TD*%
D14*
%TO.C,R100*%
X71057000Y-200152000D03*
X72707000Y-200152000D03*
%TD*%
D22*
%TO.C,D162*%
X168148000Y-58262000D03*
X168148000Y-57562000D03*
%TD*%
D15*
%TO.C,R140*%
X193002000Y-50247000D03*
X193002000Y-51897000D03*
%TD*%
D18*
%TO.C,R67*%
X78162500Y-160528002D03*
X79987500Y-160528002D03*
%TD*%
D38*
%TO.C,U26*%
X87876850Y-138403002D03*
X87876850Y-139673002D03*
X87876850Y-140943002D03*
X87876850Y-142213002D03*
X93325150Y-142213002D03*
X93325150Y-140943002D03*
X93325150Y-139673002D03*
X93325150Y-138403002D03*
%TD*%
D21*
%TO.C,C88*%
X201224000Y-117210000D03*
X200264000Y-117210000D03*
%TD*%
%TO.C,C120*%
X172200000Y-108612000D03*
X171240000Y-108612000D03*
%TD*%
%TO.C,C95*%
X152841500Y-94461500D03*
X151881500Y-94461500D03*
%TD*%
D17*
%TO.C,R216*%
X248028000Y-87712000D03*
X248028000Y-86062000D03*
%TD*%
D22*
%TO.C,D39*%
X46228000Y-179228000D03*
X46228000Y-179928000D03*
%TD*%
%TO.C,D110*%
X44196000Y-136240000D03*
X44196000Y-135540000D03*
%TD*%
D43*
%TO.C,U49*%
X117447000Y-180594000D03*
X117447000Y-181544000D03*
X117447000Y-182494000D03*
X119957000Y-182494000D03*
X119957000Y-181544000D03*
X119957000Y-180594000D03*
%TD*%
D31*
%TO.C,C14*%
X286004000Y-214564000D03*
X286004000Y-212664000D03*
%TD*%
D18*
%TO.C,R45*%
X71083500Y-95146000D03*
X72908500Y-95146000D03*
%TD*%
D11*
%TO.C,C171*%
X247802000Y-101213000D03*
X248762000Y-101213000D03*
%TD*%
D63*
%TO.C,J8*%
X262632000Y-237517000D03*
X263132000Y-237517000D03*
X263632000Y-237517000D03*
X264132000Y-237517000D03*
X264632000Y-237517000D03*
X265132000Y-237517000D03*
X266132000Y-237517000D03*
X266632000Y-237517000D03*
X267132000Y-237517000D03*
X267632000Y-237517000D03*
X268132000Y-237517000D03*
X268632000Y-237517000D03*
D64*
X268732000Y-238817000D03*
D63*
X267882000Y-238817000D03*
X267382000Y-238817000D03*
X266882000Y-238817000D03*
X266382000Y-238817000D03*
X265882000Y-238817000D03*
X265382000Y-238817000D03*
X264882000Y-238817000D03*
X264382000Y-238817000D03*
X263882000Y-238817000D03*
X263382000Y-238817000D03*
D64*
X262532000Y-238817000D03*
%TD*%
D29*
%TO.C,R197*%
X84251000Y-118614502D03*
X84251000Y-116789502D03*
%TD*%
D33*
%TO.C,C19*%
X88124500Y-99629498D03*
X86224500Y-99629498D03*
%TD*%
D29*
%TO.C,R199*%
X84409000Y-158646500D03*
X84409000Y-156821500D03*
%TD*%
D25*
%TO.C,C37*%
X77790000Y-209804000D03*
X79690000Y-209804000D03*
%TD*%
D21*
%TO.C,C196*%
X295720000Y-72136000D03*
X294760000Y-72136000D03*
%TD*%
D10*
%TO.C,U62*%
X117557000Y-208280000D03*
X117557000Y-209230000D03*
X117557000Y-210180000D03*
X119847000Y-210180000D03*
X119847000Y-208280000D03*
%TD*%
D11*
%TO.C,C134*%
X164259500Y-95172000D03*
X165219500Y-95172000D03*
%TD*%
D22*
%TO.C,D133*%
X96932000Y-222046781D03*
X96932000Y-222746781D03*
%TD*%
D10*
%TO.C,U70*%
X172152500Y-96840000D03*
X172152500Y-97790000D03*
X172152500Y-98740000D03*
X174442500Y-98740000D03*
X174442500Y-96840000D03*
%TD*%
D18*
%TO.C,R210*%
X238926500Y-31496000D03*
X240751500Y-31496000D03*
%TD*%
D14*
%TO.C,R117*%
X71057000Y-212756500D03*
X72707000Y-212756500D03*
%TD*%
D17*
%TO.C,R13*%
X50038000Y-194627000D03*
X50038000Y-192977000D03*
%TD*%
D10*
%TO.C,U83*%
X151324500Y-96840000D03*
X151324500Y-97790000D03*
X151324500Y-98740000D03*
X153614500Y-98740000D03*
X153614500Y-96840000D03*
%TD*%
D21*
%TO.C,C156*%
X119400000Y-199578000D03*
X118440000Y-199578000D03*
%TD*%
D11*
%TO.C,C188*%
X302634000Y-33020000D03*
X303594000Y-33020000D03*
%TD*%
D31*
%TO.C,C48*%
X195551001Y-223050002D03*
X195551001Y-221150002D03*
%TD*%
D17*
%TO.C,R147*%
X197583001Y-225465002D03*
X197583001Y-223815002D03*
%TD*%
D27*
%TO.C,U20*%
X95799001Y-64655700D03*
X96448999Y-64655700D03*
X97099001Y-64655700D03*
X97748999Y-64655700D03*
X97748999Y-60312300D03*
X97099001Y-60312300D03*
X96448999Y-60312300D03*
X95799001Y-60312300D03*
%TD*%
D29*
%TO.C,R6*%
X277622000Y-226972500D03*
X277622000Y-225147500D03*
%TD*%
D11*
%TO.C,C189*%
X302634000Y-99060000D03*
X303594000Y-99060000D03*
%TD*%
D10*
%TO.C,U76*%
X194288000Y-204282000D03*
X194288000Y-205232000D03*
X194288000Y-206182000D03*
X196578000Y-206182000D03*
X196578000Y-204282000D03*
%TD*%
D18*
%TO.C,R96*%
X263533500Y-64102000D03*
X265358500Y-64102000D03*
%TD*%
D22*
%TO.C,D83*%
X278638000Y-97632000D03*
X278638000Y-96932000D03*
%TD*%
D18*
%TO.C,R62*%
X78004500Y-120496002D03*
X79829500Y-120496002D03*
%TD*%
D17*
%TO.C,R24*%
X79360001Y-226123000D03*
X79360001Y-224473000D03*
%TD*%
%TO.C,R126*%
X58532001Y-226069000D03*
X58532001Y-224419000D03*
%TD*%
D19*
%TO.C,R173*%
X110807000Y-157226000D03*
X109157000Y-157226000D03*
%TD*%
%TO.C,R1*%
X319386500Y-195135000D03*
X317736500Y-195135000D03*
%TD*%
D18*
%TO.C,R120*%
X146915500Y-227838000D03*
X148740500Y-227838000D03*
%TD*%
D24*
%TO.C,D115*%
X290068000Y-173406000D03*
X290068000Y-175006000D03*
%TD*%
D17*
%TO.C,R249*%
X292700000Y-86303000D03*
X292700000Y-84653000D03*
%TD*%
D28*
%TO.C,U23*%
X295564000Y-50673000D03*
X295564000Y-51943000D03*
X295564000Y-53213000D03*
X295564000Y-54483000D03*
X300504000Y-54483000D03*
X300504000Y-53213000D03*
X300504000Y-51943000D03*
X300504000Y-50673000D03*
%TD*%
D11*
%TO.C,C210*%
X302888000Y-65024000D03*
X303848000Y-65024000D03*
%TD*%
D18*
%TO.C,R43*%
X79150000Y-78039498D03*
X80975000Y-78039498D03*
%TD*%
D28*
%TO.C,U34*%
X240732000Y-102864000D03*
X240732000Y-104134000D03*
X240732000Y-105404000D03*
X240732000Y-106674000D03*
X245672000Y-106674000D03*
X245672000Y-105404000D03*
X245672000Y-104134000D03*
X245672000Y-102864000D03*
%TD*%
D19*
%TO.C,R172*%
X165139000Y-39009000D03*
X163489000Y-39009000D03*
%TD*%
D27*
%TO.C,U79*%
X95545001Y-51193700D03*
X96194999Y-51193700D03*
X96845001Y-51193700D03*
X97494999Y-51193700D03*
X97494999Y-46850300D03*
X96845001Y-46850300D03*
X96194999Y-46850300D03*
X95545001Y-46850300D03*
%TD*%
D39*
%TO.C,C97*%
X87710000Y-199672400D03*
X87710000Y-198712400D03*
%TD*%
D22*
%TO.C,D44*%
X278130000Y-38704000D03*
X278130000Y-38004000D03*
%TD*%
M02*
