M48
; DRILL file {KiCad (6.0.10)} date Mon Aug 19 09:21:59 2024
; FORMAT={-:-/ absolute / inch / decimal}
; #@! TF.CreationDate,2024-08-19T09:21:59-04:00
; #@! TF.GenerationSoftware,Kicad,Pcbnew,(6.0.10)
; #@! TF.FileFunction,Plated,1,4,PTH
FMAT,2
INCH
; #@! TA.AperFunction,Plated,PTH,ViaDrill
T1C0.0157
; #@! TA.AperFunction,Plated,PTH,ComponentDrill
T2C0.0236
; #@! TA.AperFunction,Plated,PTH,ComponentDrill
T3C0.0281
; #@! TA.AperFunction,Plated,PTH,ComponentDrill
T4C0.0394
; #@! TA.AperFunction,Plated,PTH,ComponentDrill
T5C0.0409
; #@! TA.AperFunction,Plated,PTH,ComponentDrill
T6C0.0433
; #@! TA.AperFunction,Plated,PTH,ComponentDrill
T7C0.0512
; #@! TA.AperFunction,Plated,PTH,ComponentDrill
T8C0.0540
; #@! TA.AperFunction,Plated,PTH,ComponentDrill
T9C0.0551
; #@! TA.AperFunction,Plated,PTH,ComponentDrill
T10C0.0571
; #@! TA.AperFunction,Plated,PTH,ComponentDrill
T11C0.0591
; #@! TA.AperFunction,Plated,PTH,ComponentDrill
T12C0.0630
%
G90
G05
T1
X1.4764Y-5.3504
X1.4803Y-6.1417
X1.4921Y-4.5512
X1.689Y-9.0
X1.74Y-5.28
X1.75Y-4.48
X1.76Y-6.18
X1.77Y-4.9
X1.7756Y-8.6732
X1.78Y-4.27
X1.79Y-1.58
X1.79Y-3.9
X1.79Y-5.65
X1.7992Y-4.7165
X1.7992Y-5.4843
X1.7992Y-6.2717
X1.8Y-6.46
X1.81Y-3.23
X1.81Y-5.85
X1.82Y-5.2
X1.82Y-7.14
X1.83Y-7.53
X1.83Y-7.92
X1.83Y-8.33
X1.84Y-2.56
X1.8543Y-8.78
X1.87Y-3.81
X1.88Y-3.13
X1.88Y-7.34
X1.88Y-7.74
X1.88Y-8.13
X1.88Y-8.54
X1.9Y-2.46
X1.9Y-6.04
X1.9135Y-1.8454
X1.96Y-4.51
X1.96Y-4.92
X1.96Y-5.33
X1.96Y-8.35
X1.96Y-8.61
X1.9626Y-5.7146
X1.97Y-6.5
X1.97Y-7.14
X1.97Y-7.52
X1.97Y-7.93
X1.99Y-1.6485
X1.9961Y-8.7874
X2.0709Y-8.9961
X2.0788Y-1.7706
X2.14Y-2.01
X2.1535Y-8.6811
X2.189Y-2.099
X2.2362Y-8.7874
X2.3044Y-8.6444
X2.3649Y-7.66
X2.374Y-8.7874
X2.3749Y-7.29
X2.3749Y-7.54
X2.3749Y-7.92
X2.3749Y-8.07
X2.3749Y-8.28
X2.3749Y-8.41
X2.3849Y-7.16
X2.4409Y-9.0
X2.46Y-1.58
X2.5Y-2.48
X2.5157Y-3.19
X2.5157Y-3.87
X2.5197Y-8.6811
X2.59Y-3.81
X2.59Y-3.92
X2.59Y-4.04
X2.59Y-5.92
X2.5957Y-2.43
X2.5957Y-2.54
X2.5957Y-2.68
X2.6Y-5.16
X2.6024Y-8.7835
X2.61Y-4.54
X2.6143Y-1.6446
X2.6157Y-3.12
X2.6257Y-3.24
X2.6257Y-3.38
X2.65Y-6.46
X2.67Y-5.45
X2.67Y-6.15
X2.6744Y-8.6644
X2.7Y-6.39
X2.7441Y-8.7913
X2.75Y-1.93
X2.8052Y-8.0424
X2.8091Y-7.3061
X2.8131Y-7.6762
X2.8131Y-8.4361
X2.815Y-1.8414
X2.8465Y-9.0
X2.8603Y-7.0817
X2.8603Y-8.3101
X2.87Y-5.58
X2.88Y-5.64
X2.89Y-4.87
X2.8937Y-8.6772
X2.9036Y-7.8809
X2.9076Y-7.4991
X2.9115Y-7.251
X2.9115Y-7.6211
X2.921Y-6.3091
X2.9213Y-4.7323
X2.929Y-3.7498
X2.931Y-2.4158
X2.9408Y-3.0727
X2.95Y-2.1
X2.9804Y-1.7627
X2.9843Y-8.7953
X3.0157Y-5.6654
X3.02Y-2.01
X3.0236Y-4.874
X3.0539Y-3.2505
X3.0579Y-3.9237
X3.0618Y-2.6008
X3.065Y-8.1565
X3.0748Y-5.0157
X3.0787Y-6.5866
X3.0827Y-5.8071
X3.09Y-2.09
X3.126Y-8.7913
X3.128Y-7.6802
X3.132Y-7.318
X3.132Y-8.4479
X3.1359Y-7.9361
X3.1359Y-8.0502
X3.1398Y-7.0699
X3.1398Y-7.5542
X3.1398Y-8.3298
X3.193Y-7.438
X3.1949Y-7.6211
X3.2047Y-6.4567
X3.25Y-4.7
X3.2589Y-3.1024
X3.2589Y-3.7724
X3.2913Y-6.3898
X3.292Y-7.8724
X3.2999Y-7.7583
X3.3031Y-8.69
X3.3031Y-8.7362
X3.3039Y-7.3764
X3.3039Y-8.1402
X3.306Y-8.1924
X3.3071Y-5.6024
X3.315Y-4.81
X3.316Y-7.3055
X3.3177Y-3.2505
X3.33Y-1.55
X3.3314Y-7.5378
X3.3334Y-2.5772
X3.336Y-8.3024
X3.3413Y-3.9224
X3.3432Y-7.2228
X3.3437Y-6.6127
X3.35Y-5.8
X3.3511Y-7.6992
X3.3543Y-5.0118
X3.355Y-7.4315
X3.3583Y-8.6378
X3.3583Y-8.8
X3.3589Y-2.6524
X3.3598Y-4.7598
X3.3622Y-8.9843
X3.3708Y-7.8094
X3.3708Y-7.9472
X3.3768Y-2.4827
X3.3889Y-3.3324
X3.3927Y-7.26
X3.3944Y-8.0496
X3.3989Y-4.0124
X3.4134Y-6.4252
X3.422Y-7.4669
X3.422Y-7.8921
X3.422Y-8.2386
X3.4528Y-4.8543
X3.4535Y-7.5654
X3.4535Y-7.7858
X3.4535Y-8.1362
X3.4535Y-8.337
X3.46Y-1.47
X3.46Y-2.91
X3.4685Y-8.6654
X3.47Y-3.59
X3.4724Y-8.8583
X3.476Y-7.3424
X3.4928Y-7.9118
X3.5086Y-7.5378
X3.5118Y-6.2835
X3.5118Y-6.3386
X3.52Y-5.6
X3.5236Y-5.5
X3.5236Y-5.5472
X3.5236Y-8.9409
X3.53Y-2.7938
X3.53Y-3.48
X3.53Y-4.17
X3.53Y-4.33
X3.53Y-8.58
X3.5465Y-1.5461
X3.55Y-1.38
X3.56Y-4.8
X3.56Y-6.99
X3.56Y-8.72
X3.5787Y-8.8307
X3.59Y-3.39
X3.59Y-3.54
X3.59Y-4.09
X3.59Y-4.24
X3.5904Y-7.2504
X3.5923Y-2.8762
X3.6Y-2.7038
X3.6142Y-6.2874
X3.6142Y-6.3346
X3.6149Y-7.6752
X3.6181Y-4.7087
X3.622Y-5.4961
X3.622Y-5.5472
X3.63Y-8.14
X3.64Y-6.44
X3.64Y-6.51
X3.65Y-4.89
X3.655Y-5.715
X3.67Y-5.14
X3.6733Y-1.8493
X3.686Y-2.3729
X3.6898Y-3.0465
X3.6898Y-3.7423
X3.7042Y-3.6242
X3.71Y-8.42
X3.7113Y-2.9244
X3.7205Y-2.2559
X3.73Y-7.93
X3.7362Y-5.5984
X3.7441Y-4.8071
X3.76Y-3.3342
X3.76Y-3.98
X3.76Y-6.37
X3.775Y-2.655
X3.7835Y-5.4567
X3.7913Y-4.6693
X3.7977Y-7.2244
X3.8136Y-8.5997
X3.816Y-8.8273
X3.82Y-2.6102
X3.83Y-1.67
X3.8387Y-1.7706
X3.84Y-5.99
X3.8425Y-5.6575
X3.85Y-2.3
X3.8504Y-4.563
X3.8504Y-6.1561
X3.8513Y-2.9756
X3.8513Y-3.6754
X3.8543Y-4.8661
X3.8543Y-5.3583
X3.86Y-6.51
X3.8622Y-8.9291
X3.8859Y-1.2548
X3.89Y-2.02
X3.91Y-3.2132
X3.91Y-5.89
X3.92Y-3.92
X3.93Y-1.34
X3.93Y-9.07
X3.94Y-1.85
X3.97Y-6.44
X3.9843Y-4.7953
X3.9882Y-5.57
X3.9926Y-2.5426
X4.0203Y-9.1351
X4.0265Y-2.4535
X4.063Y-2.603
X4.07Y-8.97
X4.08Y-4.33
X4.0996Y-2.4996
X4.17Y-7.3
X4.1724Y-1.5472
X4.1742Y-7.0346
X4.18Y-2.31
X4.18Y-2.64
X4.19Y-2.52
X4.1914Y-7.9173
X4.1914Y-8.1378
X4.2Y-1.38
X4.21Y-4.82
X4.22Y-6.46
X4.23Y-5.66
X4.2351Y-4.3196
X4.26Y-5.13
X4.27Y-8.2
X4.31Y-1.46
X4.31Y-7.57
X4.32Y-5.93
X4.34Y-6.77
X4.34Y-7.76
X4.34Y-8.31
X4.35Y-7.33
X4.3585Y-8.0104
X4.3864Y-1.5472
X4.41Y-2.47
X4.4488Y-8.3937
X4.4488Y-8.626
X4.45Y-5.7
X4.47Y-6.52
X4.49Y-2.47
X4.49Y-4.38
X4.5Y-4.5984
X4.5Y-6.15
X4.52Y-5.39
X4.52Y-7.6181
X4.523Y-7.187
X4.5264Y-4.2251
X4.5394Y-4.9685
X4.5669Y-8.0039
X4.5709Y-7.7362
X4.5709Y-8.2756
X4.5748Y-7.1496
X4.5748Y-7.8268
X4.5827Y-8.0827
X4.59Y-4.27
X4.59Y-8.44
X4.6001Y-3.3599
X4.615Y-4.755
X4.62Y-5.42
X4.622Y-7.0669
X4.622Y-8.1339
X4.626Y-7.8583
X4.64Y-7.59
X4.6576Y-1.6879
X4.66Y-2.29
X4.66Y-6.42
X4.67Y-3.47
X4.6755Y-8.9332
X4.693Y-1.928
X4.6969Y-4.874
X4.7062Y-3.8504
X4.7244Y-7.8937
X4.7244Y-8.1575
X4.74Y-3.61
X4.74Y-5.05
X4.7402Y-7.0669
X4.7402Y-7.622
X4.7402Y-1.2587
X4.78Y-9.08
X4.7835Y-7.1024
X4.7953Y-7.9646
X4.8Y-3.49
X4.8071Y-4.8661
X4.8071Y-4.9449
X4.81Y-2.4
X4.8307Y-7.8583
X4.8307Y-8.1299
X4.8386Y-7.0945
X4.84Y-2.34
X4.8425Y-8.0591
X4.8465Y-1.8572
X4.866Y-8.9701
X4.88Y-3.62
X4.88Y-9.12
X4.89Y-7.62
X4.9038Y-1.38
X4.9094Y-2.7874
X4.91Y-2.1
X4.9345Y-3.8858
X4.97Y-3.52
X4.97Y-9.07
X4.9764Y-7.5827
X4.985Y-7.185
X4.99Y-3.32
X5.0133Y-3.7559
X5.0133Y-3.8465
X5.02Y-1.92
X5.02Y-2.7
X5.02Y-5.0984
X5.0272Y-1.5472
X5.0472Y-6.3189
X5.05Y-1.39
X5.06Y-9.12
X5.08Y-8.79
X5.1Y-2.67
X5.1Y-8.53
X5.1024Y-7.4724
X5.1063Y-3.55
X5.1142Y-7.315
X5.1142Y-8.4291
X5.1314Y-3.8504
X5.15Y-1.47
X5.1654Y-8.2913
X5.1772Y-8.1496
X5.185Y-7.9921
X5.21Y-3.32
X5.24Y-2.97
X5.2481Y-1.5461
X5.27Y-3.58
X5.2756Y-8.3189
X5.2874Y-8.0157
X5.2889Y-3.7638
X5.29Y-2.32
X5.3071Y-8.7008
X5.3307Y-7.185
X5.3361Y-3.8937
X5.35Y-8.85
X5.3504Y-6.3661
X5.378Y-8.2874
X5.38Y-8.0906
X5.3858Y-7.9921
X5.3976Y-2.7874
X5.42Y-2.97
X5.42Y-8.63
X5.4464Y-3.7717
X5.4464Y-3.8622
X5.5079Y-5.7165
X5.5118Y-7.6063
X5.5158Y-1.6879
X5.5354Y-8.9331
X5.5433Y-7.5
X5.5472Y-7.2913
X5.5802Y-3.8898
X5.59Y-4.81
X5.5984Y-6.5669
X5.6Y-9.08
X5.6024Y-5.7165
X5.6024Y-6.0157
X5.6024Y-6.0984
X5.6102Y-7.5
X5.6235Y-3.7283
X5.626Y-7.2598
X5.63Y-2.02
X5.6356Y-1.2644
X5.6627Y-9.139
X5.6654Y-8.3504
X5.6732Y-6.1732
X5.7Y-2.97
X5.7009Y-1.928
X5.73Y-8.97
X5.7362Y-6.3189
X5.74Y-3.77
X5.748Y-6.3661
X5.77Y-5.04
X5.7835Y-7.7965
X5.7874Y-8.1142
X5.8Y-1.42
X5.8Y-4.91
X5.8031Y-6.1969
X5.81Y-8.35
X5.82Y-2.21
X5.8268Y-7.9803
X5.8322Y-3.7323
X5.84Y-5.59
X5.8543Y-2.1811
X5.8544Y-1.8572
X5.89Y-8.2717
X5.8991Y-3.8858
X5.9Y-2.24
X5.9Y-2.71
X5.91Y-3.65
X5.9173Y-5.6732
X5.9213Y-6.2244
X5.937Y-8.0079
X5.9448Y-3.7201
X5.95Y-2.97
X5.9606Y-6.4685
X5.9646Y-6.4173
X5.9738Y-8.35
X5.99Y-1.92
X5.9921Y-5.685
X6.01Y-2.7
X6.0315Y-6.2677
X6.0433Y-7.9803
X6.05Y-2.79
X6.0591Y-5.0609
X6.0591Y-5.7087
X6.0669Y-7.8131
X6.0684Y-3.7599
X6.08Y-7.47
X6.0827Y-5.7627
X6.1Y-3.25
X6.1Y-4.83
X6.1Y-6.1378
X6.1063Y-6.22
X6.11Y-6.06
X6.14Y-4.76
X6.1456Y-3.7201
X6.1517Y-3.5883
X6.1575Y-8.2875
X6.18Y-1.49
X6.18Y-4.94
X6.19Y-2.97
X6.2598Y-6.0591
X6.26Y-3.6144
X6.26Y-4.81
X6.28Y-1.34
X6.281Y-3.8819
X6.29Y-3.21
X6.311Y-6.1024
X6.3274Y-8.9332
X6.3282Y-3.748
X6.3425Y-8.3504
X6.3504Y-6.2638
X6.3583Y-6.1024
X6.3701Y-5.063
X6.3898Y-2.7874
X6.39Y-2.97
X6.44Y-9.07
X6.4528Y-4.6457
X6.4528Y-5.685
X6.4528Y-6.2874
X6.4975Y-3.8189
X6.4975Y-3.8583
X6.5Y-8.35
X6.52Y-6.16
X6.52Y-9.1204
X6.5241Y-8.9701
X6.53Y-8.85
X6.5487Y-3.7469
X6.5512Y-5.6614
X6.57Y-1.37
X6.5749Y-1.5343
X6.6102Y-4.5472
X6.62Y-2.21
X6.64Y-3.45
X6.6418Y-1.9241
X6.65Y-3.26
X6.6535Y-5.6339
X6.6656Y-8.7527
X6.68Y-1.55
X6.69Y-2.97
X6.69Y-3.49
X6.695Y-7.465
X6.72Y-3.65
X6.72Y-8.57
X6.7359Y-9.1004
X6.7425Y-4.2402
X6.752Y-4.7953
X6.752Y-5.5945
X6.7638Y-8.2205
X6.7638Y-8.2677
X6.7677Y-8.3228
X6.77Y-3.19
X6.7795Y-3.937
X6.7795Y-8.1693
X6.78Y-8.4685
X6.7835Y-4.3189
X6.7839Y-6.0829
X6.7992Y-2.185
X6.7993Y-1.8532
X6.8071Y-4.4724
X6.81Y-9.03
X6.815Y-2.752
X6.815Y-3.6969
X6.8189Y-3.6417
X6.8504Y-5.5669
X6.8543Y-4.3819
X6.8661Y-2.55
X6.87Y-1.6358
X6.8701Y-3.68
X6.8858Y-8.6378
X6.8937Y-3.7756
X6.8976Y-2.7874
X6.91Y-2.97
X6.92Y-1.908
X6.92Y-6.11
X6.9213Y-8.063
X6.9331Y-3.6929
X6.94Y-6.17
X6.9409Y-8.1378
X6.9646Y-8.2992
X6.9646Y-8.3937
X7.0236Y-8.1299
X7.0669Y-3.8898
X7.07Y-2.3
X7.126Y-3.7283
X7.14Y-3.4894
X7.1464Y-8.3035
X7.1535Y-4.8071
X7.16Y-7.3
X7.19Y-1.5362
X7.19Y-2.97
X7.19Y-8.78
X7.2283Y-3.7677
X7.2559Y-7.2913
X7.2598Y-8.0906
X7.29Y-1.35
X7.29Y-8.16
X7.2913Y-3.7717
X7.3Y-8.26
X7.3071Y-2.752
X7.311Y-3.6929
X7.311Y-7.9921
X7.3189Y-8.6496
X7.3504Y-2.5396
X7.3504Y-4.8268
X7.3504Y-6.311
X7.36Y-3.7
X7.36Y-7.33
X7.3616Y-8.03
X7.378Y-8.3346
X7.3976Y-8.7677
X7.4Y-8.17
X7.4016Y-8.9921
X7.4094Y-8.2913
X7.4173Y-8.0157
X7.437Y-2.7323
X7.4488Y-6.3346
X7.45Y-7.22
X7.48Y-3.75
X7.4803Y-3.9213
X7.5Y-2.97
X7.5157Y-7.9882
X7.5354Y-4.69
X7.5394Y-8.7677
X7.5472Y-8.1102
X7.55Y-8.39
X7.5512Y-4.8455
X7.5513Y-1.5343
X7.5514Y-6.3786
X7.5514Y-7.3186
X7.57Y-3.93
X7.57Y-4.3
X7.59Y-2.29
X7.59Y-3.49
X7.5906Y-3.7795
X7.5984Y-4.8984
X7.5985Y-1.9241
X7.6Y-1.39
X7.6Y-4.3997
X7.6003Y-4.1197
X7.6063Y-7.8189
X7.6378Y-3.8622
X7.6452Y-4.2252
X7.6452Y-4.5148
X7.6496Y-7.2283
X7.6496Y-8.1614
X7.65Y-3.78
X7.67Y-3.2
X7.69Y-1.55
X7.69Y-4.1
X7.6969Y-8.6575
X7.7Y-4.62
X7.7Y-8.28
X7.7279Y-7.931
X7.7393Y-7.9975
X7.74Y-2.97
X7.75Y-3.28
X7.75Y-4.47
X7.7599Y-1.8572
X7.76Y-3.2
X7.76Y-3.39
X7.76Y-4.21
X7.76Y-7.38
X7.78Y-8.24
X7.78Y-8.76
X7.79Y-8.29
X7.7935Y-5.3965
X7.7992Y-8.9961
X7.8031Y-5.46
X7.8031Y-7.1535
X7.81Y-2.1
X7.8378Y-5.3622
X7.8465Y-4.6142
X7.8583Y-4.2244
X7.87Y-3.32
X7.87Y-3.47
X7.88Y-8.38
X7.8898Y-7.8465
X7.89Y-3.67
X7.8942Y-1.6358
X7.9016Y-7.1614
X7.9173Y-8.7677
X7.92Y-1.94
X7.92Y-4.32
X7.9291Y-4.1535
X7.93Y-3.91
X7.937Y-5.4331
X7.94Y-2.682
X7.95Y-8.12
X7.95Y-8.28
X7.9528Y-4.5906
X7.96Y-3.44
X7.96Y-3.78
X7.98Y-2.77
X7.99Y-8.78
X7.9921Y-7.9803
X8.0Y-3.36
X8.0Y-3.93
X8.0Y-3.9921
X8.0Y-4.45
X8.01Y-3.52
X8.01Y-3.67
X8.0354Y-4.1811
X8.04Y-4.4017
X8.063Y-4.6142
X8.0748Y-8.6575
X8.09Y-3.07
X8.0984Y-8.0039
X8.1024Y-4.0945
X8.1063Y-4.4803
X8.1063Y-4.5197
X8.1098Y-6.4004
X8.11Y-8.84
X8.1102Y-4.0472
X8.117Y-8.3798
X8.12Y-2.94
X8.14Y-3.73
X8.15Y-4.6
X8.1772Y-8.9882
X8.185Y-5.0827
X8.2Y-5.43
X8.2008Y-7.9764
X8.2205Y-4.5
X8.2244Y-3.9685
X8.2244Y-4.4016
X8.225Y-3.795
X8.23Y-4.0709
X8.24Y-1.39
X8.2441Y-7.374
X8.25Y-8.37
X8.2598Y-5.3858
X8.2849Y-4.5551
X8.29Y-8.16
X8.2992Y-8.7638
X8.3031Y-6.4331
X8.3172Y-2.9647
X8.33Y-1.33
X8.3346Y-4.5
X8.3662Y-8.32
X8.39Y-3.73
X8.4Y-6.46
X8.43Y-4.0709
X8.437Y-3.5748
X8.4409Y-3.6929
X8.4409Y-7.9449
X8.4409Y-8.0118
X8.4567Y-2.9685
X8.4724Y-2.8425
X8.5Y-5.0945
X8.5039Y-6.52
X8.51Y-8.11
X8.53Y-1.98
X8.54Y-5.76
X8.5574Y-3.6852
X8.5624Y-8.378
X8.5653Y-3.4135
X8.5709Y-1.5258
X8.5889Y-2.9529
X8.59Y-1.4
X8.6024Y-1.9241
X8.61Y-8.1757
X8.6239Y-8.0197
X8.6322Y-2.6931
X8.64Y-5.73
X8.6676Y-3.3663
X8.69Y-1.53
X8.7109Y-2.6458
X8.72Y-2.18
X8.73Y-3.84
X8.74Y-8.25
X8.75Y-5.72
X8.76Y-3.11
X8.76Y-8.02
X8.7678Y-1.865
X8.7717Y-7.8701
X8.78Y-3.44
X8.79Y-4.69
X8.8Y-8.21
X8.82Y-2.1
X8.86Y-3.79
X8.9Y-1.92
X8.91Y-1.64
X8.92Y-3.11
X8.95Y-7.69
X8.99Y-9.53
X8.9961Y-7.0787
X8.9969Y-6.43
X9.0Y-7.67
X9.0023Y-3.5395
X9.0591Y-4.7441
X9.06Y-2.84
X9.07Y-3.21
X9.0704Y-7.8535
X9.08Y-3.12
X9.08Y-7.7039
X9.08Y-8.28
X9.0861Y-3.42
X9.09Y-7.76
X9.0906Y-9.3858
X9.1024Y-6.2976
X9.11Y-3.6811
X9.11Y-7.93
X9.14Y-7.8
X9.1457Y-6.3346
X9.15Y-7.67
X9.15Y-8.21
X9.157Y-8.2984
X9.16Y-3.26
X9.16Y-3.98
X9.1627Y-9.2806
X9.1649Y-7.9008
X9.189Y-6.2869
X9.19Y-3.09
X9.2Y-3.35
X9.2Y-8.4929
X9.2087Y-9.3898
X9.2244Y-4.33
X9.2256Y-8.4518
X9.2256Y-8.5817
X9.23Y-1.38
X9.23Y-2.41
X9.23Y-6.52
X9.24Y-8.34
X9.2559Y-9.3898
X9.26Y-4.37
X9.27Y-6.4
X9.2874Y-7.7795
X9.2874Y-7.8282
X9.29Y-5.63
X9.2992Y-4.4016
X9.2992Y-4.8224
X9.3Y-8.19
X9.3Y-8.26
X9.31Y-8.12
X9.311Y-2.2323
X9.34Y-5.6
X9.3515Y-8.5778
X9.36Y-7.96
X9.37Y-5.5709
X9.37Y-8.06
X9.374Y-2.9528
X9.378Y-7.7992
X9.4Y-3.61
X9.4016Y-7.88
X9.4055Y-4.2047
X9.42Y-5.66
X9.43Y-3.0984
X9.4381Y-8.44
X9.45Y-8.3
X9.4567Y-4.5315
X9.4567Y-4.89
X9.47Y-1.83
X9.4882Y-2.9528
X9.5Y-4.31
X9.5Y-6.46
X9.5074Y-7.6843
X9.5074Y-8.0858
X9.5157Y-7.9685
X9.52Y-8.14
X9.52Y-8.2
X9.5236Y-3.6102
X9.5236Y-4.2638
X9.5236Y-9.3898
X9.53Y-1.58
X9.53Y-2.84
X9.5398Y-1.9257
X9.5433Y-6.2638
X9.55Y-3.5
X9.56Y-2.26
X9.56Y-4.15
X9.57Y-3.05
X9.5787Y-6.3583
X9.6Y-7.89
X9.6Y-8.03
X9.6Y-8.2
X9.64Y-2.22
X9.64Y-4.52
X9.6457Y-2.9449
X9.66Y-1.74
X9.67Y-1.58
X9.6732Y-3.5984
X9.6732Y-3.9843
X9.6732Y-4.248
X9.68Y-1.42
X9.68Y-4.55
X9.68Y-9.13
X9.685Y-2.689
X9.71Y-4.58
X9.71Y-4.8
X9.7165Y-3.3425
X9.7169Y-2.1029
X9.72Y-6.1
X9.76Y-4.61
X9.76Y-4.86
X9.76Y-7.1535
X9.7677Y-2.6299
X9.7794Y-1.572
X9.7913Y-6.7008
X9.7917Y-1.9375
X9.7953Y-3.2913
X9.7953Y-3.937
X9.8149Y-1.32
X9.8268Y-6.1732
X9.83Y-3.19
X9.87Y-1.9
X9.87Y-2.51
X9.87Y-8.88
X9.8739Y-7.19
X9.874Y-7.0787
X9.9Y-3.37
X9.9Y-9.03
X9.92Y-1.75
X9.9291Y-1.3043
X9.95Y-2.97
X9.99Y-3.97
X10.002Y-9.065
X10.02Y-2.24
X10.03Y-1.38
X10.08Y-4.2953
X10.1142Y-2.5945
X10.12Y-2.3085
X10.15Y-8.03
X10.16Y-9.1024
X10.185Y-3.1457
X10.2051Y-1.9178
X10.22Y-2.43
X10.25Y-8.03
X10.26Y-1.0056
X10.26Y-1.31
X10.27Y-2.99
X10.28Y-1.8
X10.3346Y-3.0827
X10.3386Y-3.7126
X10.3395Y-9.3104
X10.34Y-5.21
X10.35Y-9.21
X10.3646Y-9.2778
X10.4Y-5.46
X10.42Y-5.02
X10.46Y-8.92
X10.4606Y-2.2126
X10.4724Y-1.5827
X10.4724Y-2.8543
X10.4764Y-4.1063
X10.4843Y-3.3858
X10.4843Y-4.0276
X10.5Y-3.46
X10.5167Y-9.3143
X10.5516Y-7.17
X10.552Y-7.2514
X10.57Y-9.21
X10.5718Y-9.3143
X10.59Y-8.92
X10.5982Y-2.5745
X10.6024Y-2.2126
X10.6063Y-3.4173
X10.6063Y-4.063
X10.61Y-2.73
X10.61Y-4.98
X10.6102Y-2.8543
X10.6181Y-1.5866
X10.63Y-1.4685
X10.63Y-4.9
X10.64Y-5.21
X10.6457Y-4.2339
X10.6496Y-3.5984
X10.6654Y-2.1496
X10.7283Y-3.5512
X10.7362Y-4.189
X10.74Y-7.17
X10.74Y-7.25
X10.74Y-8.79
X10.7402Y-2.8307
X10.748Y-1.3031
X10.748Y-1.563
X10.75Y-8.92
X10.7598Y-4.0709
X10.7756Y-1.9409
X10.78Y-3.45
X10.7953Y-2.5827
X10.82Y-4.82
X10.8316Y-5.9
X10.85Y-3.19
X10.8504Y-1.8898
X10.86Y-3.87
X10.8622Y-1.2677
X10.9016Y-2.626
X10.9055Y-3.2205
X10.9134Y-2.563
X10.93Y-3.08
X10.94Y-2.09
X10.94Y-3.91
X10.9409Y-3.6811
X10.95Y-1.4538
X10.95Y-2.72
X10.97Y-3.77
X10.9773Y-5.8991
X10.9773Y-5.97
X10.99Y-6.21
X10.99Y-6.41
X10.99Y-8.02
X11.02Y-2.41
X11.02Y-3.57
X11.03Y-1.8
X11.04Y-4.25
X11.1Y-5.29
X11.1Y-8.02
X11.11Y-1.18
X11.1466Y-5.8991
X11.1466Y-5.97
X11.15Y-6.21
X11.15Y-6.41
X11.1654Y-1.5039
X11.1654Y-2.1496
X11.1693Y-3.189
X11.189Y-3.8898
X11.2165Y-4.2795
X11.22Y-2.73
X11.23Y-1.57
X11.23Y-2.98
X11.24Y-2.12
X11.3268Y-4.2441
X11.34Y-3.14
X11.34Y-3.27
X11.35Y-1.87
X11.35Y-2.28
X11.35Y-2.47
X11.35Y-3.02
X11.3596Y-6.8268
X11.36Y-3.66
X11.36Y-3.94
X11.37Y-1.06
X11.37Y-1.35
X11.3799Y-6.0551
X11.38Y-6.18
X11.3976Y-4.3543
X11.4Y-7.81
X11.4Y-8.12
X11.4853Y-4.189
X11.4961Y-5.2874
X11.52Y-8.05
X11.53Y-8.95
X11.55Y-3.51
X11.5551Y-2.8386
X11.5591Y-4.126
X11.563Y-1.5787
X11.563Y-2.2087
X11.61Y-8.95
X11.63Y-8.13
X11.6417Y-2.252
X11.67Y-5.57
X11.6732Y-3.5039
X11.6746Y-6.9914
X11.6811Y-2.8386
X11.6811Y-4.2031
X11.685Y-1.5787
X11.6967Y-9.3867
X11.7017Y-9.5133
X11.7077Y-7.4291
X11.7106Y-6.0551
X11.7106Y-6.18
X11.7271Y-2.6012
X11.73Y-7.68
X11.7441Y-3.437
X11.7441Y-7.8701
X11.75Y-7.9467
X11.752Y-2.1417
X11.752Y-2.7756
X11.752Y-4.126
X11.7559Y-1.5157
X11.7717Y-9.0394
X11.7717Y-9.2402
X11.8228Y-3.2205
X11.83Y-7.83
X11.8307Y-1.9291
X11.8307Y-2.5591
X11.8307Y-3.9134
X11.84Y-7.71
X11.8636Y-6.9914
X11.8661Y-1.2992
X11.87Y-7.18
X11.87Y-7.26
X11.87Y-9.13
X11.9016Y-9.091
X11.9173Y-8.0669
X11.9291Y-7.7956
X11.9331Y-3.8543
X11.9409Y-3.185
X11.9528Y-1.252
X11.9528Y-1.8937
X11.9528Y-4.6732
X11.9646Y-2.5197
X11.97Y-7.18
X11.97Y-7.26
X11.97Y-8.81
X11.97Y-9.41
X11.9764Y-9.1142
X11.9843Y-2.6142
X12.0Y-4.2008
X12.01Y-1.14
X12.0315Y-7.8271
X12.04Y-1.44
X12.04Y-2.0962
X12.04Y-3.97
X12.0477Y-3.0862
X12.05Y-2.7238
X12.05Y-3.7462
X12.087Y-9.2874
X12.1Y-7.69
X12.1Y-8.79
X12.13Y-8.32
X12.13Y-8.95
X12.1462Y-3.55
X12.16Y-4.21
X12.17Y-9.21
X12.21Y-9.35
X12.22Y-8.4838
X12.2205Y-7.7362
X12.2286Y-7.4461
X12.23Y-4.26
X12.23Y-9.39
X12.2677Y-3.189
X12.2717Y-2.7835
X12.2805Y-3.8819
X12.3035Y-9.2874
X12.3152Y-7.4461
X12.32Y-1.45
X12.32Y-2.1
X12.32Y-4.31
X12.3205Y-9.1152
X12.37Y-2.76
X12.39Y-1.5
X12.4Y-2.16
X12.41Y-4.38
X12.44Y-4.53
X12.4606Y-7.6811
X12.47Y-8.68
X12.49Y-4.75
X12.49Y-5.87
X12.4921Y-5.9567
X12.5Y-2.46
X12.5Y-3.29
X12.53Y-5.58
X12.54Y-5.68
X12.5604Y-8.1704
X12.5662Y-7.7938
X12.5662Y-8.29
X12.61Y-1.84
X12.62Y-4.15
X12.6323Y-7.868
X12.65Y-8.92
X12.69Y-5.87
X12.69Y-9.04
X12.6929Y-5.9567
X12.78Y-4.69
X12.79Y-5.01
X12.8Y-5.33
T3
X1.46Y-1.83
X1.46Y-2.03
X1.56Y-1.93
X2.36Y-1.82
X2.36Y-2.02
X2.46Y-1.92
X3.27Y-1.83
X3.27Y-2.03
X3.37Y-1.93
X4.2511Y-1.9146
X4.2511Y-2.1146
X4.3511Y-2.0146
X5.255Y-1.9246
X5.255Y-2.1246
X5.355Y-2.0246
X6.1999Y-1.9146
X6.1999Y-2.1146
X6.2999Y-2.0146
X7.1645Y-1.9146
X7.1645Y-2.1146
X7.2645Y-2.0146
X8.1379Y-1.9146
X8.1379Y-2.1146
X8.2379Y-2.0146
T4
X2.7778Y-4.0757
X2.7816Y-4.5662
X2.7824Y-5.0522
X2.7824Y-5.3522
X2.7824Y-5.8422
X2.7824Y-6.1422
X2.7824Y-6.6422
X2.7872Y-2.8928
X2.7872Y-3.3928
X2.7872Y-3.5728
X2.788Y-2.7218
X2.79Y-2.24
X2.8778Y-4.0757
X2.8816Y-4.5662
X2.8824Y-5.0522
X2.8824Y-5.3522
X2.8824Y-5.8422
X2.8824Y-6.1422
X2.8824Y-6.6422
X2.8872Y-2.8928
X2.8872Y-3.3928
X2.8872Y-3.5728
X2.888Y-2.7218
X2.89Y-2.24
X3.2025Y-3.467
X3.2065Y-2.7898
X3.2065Y-4.1599
X3.3025Y-3.467
X3.3065Y-2.7898
X3.3065Y-4.1599
X3.4025Y-3.467
X3.4065Y-2.7898
X3.4065Y-4.1599
X3.8002Y-7.3622
X3.8002Y-7.5822
X3.8007Y-7.8022
X3.8007Y-8.0422
X3.8007Y-8.2722
X3.8102Y-6.9122
X3.8102Y-7.1422
X3.9002Y-7.3622
X3.9002Y-7.5822
X3.9007Y-7.8022
X3.9007Y-8.0422
X3.9007Y-8.2722
X3.9102Y-6.9122
X3.9102Y-7.1422
X3.9194Y-6.58
X3.9394Y-4.99
X3.9394Y-5.78
X4.0002Y-7.3622
X4.0002Y-7.5822
X4.0007Y-7.8022
X4.0007Y-8.0422
X4.0007Y-8.2722
X4.0102Y-6.9122
X4.0102Y-7.1422
X4.0194Y-6.58
X4.0394Y-4.99
X4.0394Y-5.78
X4.0658Y-8.7422
X4.0664Y-8.5122
X4.1194Y-6.58
X4.1394Y-4.99
X4.1394Y-5.78
X4.1658Y-8.7422
X4.1664Y-8.5122
X4.23Y-5.5
X4.2306Y-4.71
X4.2306Y-6.31
X4.2658Y-8.7422
X4.2664Y-8.5122
X4.2986Y-2.3968
X4.2986Y-2.4968
X4.2986Y-2.5968
X4.33Y-5.5
X4.3306Y-4.71
X4.3306Y-6.31
X4.43Y-5.5
X4.4306Y-4.71
X4.4306Y-6.31
X4.6486Y-2.3962
X4.6486Y-2.4962
X4.6486Y-2.5962
X4.902Y-8.5399
X4.902Y-8.6399
X4.902Y-8.7399
X4.9886Y-2.3968
X4.9886Y-2.4968
X4.9886Y-2.5968
X5.2386Y-2.5268
X5.2386Y-2.6268
X5.2386Y-2.7268
X5.4786Y-2.3968
X5.4786Y-2.4968
X5.4786Y-2.5968
X5.592Y-8.5393
X5.592Y-8.6393
X5.592Y-8.7393
X5.7286Y-2.5274
X5.7286Y-2.6274
X5.7286Y-2.7274
X5.812Y-8.5393
X5.812Y-8.6393
X5.812Y-8.7393
X5.9686Y-2.3968
X5.9686Y-2.4968
X5.9686Y-2.5968
X6.042Y-8.5393
X6.042Y-8.6393
X6.042Y-8.7393
X6.1886Y-2.5274
X6.1886Y-2.6274
X6.1886Y-2.7274
X6.262Y-8.5393
X6.262Y-8.6393
X6.262Y-8.7393
X6.4686Y-2.4062
X6.4686Y-2.5062
X6.4686Y-2.6062
X6.492Y-8.5393
X6.492Y-8.6393
X6.492Y-8.7393
X6.7186Y-2.5274
X6.7186Y-2.6274
X6.7186Y-2.7274
X6.9786Y-2.4068
X6.9786Y-2.5068
X6.9786Y-2.6068
X7.2186Y-2.5268
X7.2186Y-2.6268
X7.2186Y-2.7268
X7.3142Y-8.49
X7.4142Y-8.49
X7.4686Y-2.4074
X7.4686Y-2.5074
X7.4686Y-2.6074
X7.5142Y-8.49
X7.7186Y-2.5268
X7.7186Y-2.6268
X7.7186Y-2.7268
X7.7348Y-8.49
X7.8348Y-8.49
X7.9348Y-8.49
X8.1342Y-8.49
X8.2342Y-8.49
X8.3342Y-8.49
X8.8882Y-2.7089
X8.8882Y-2.8089
X8.8882Y-2.9089
X8.8882Y-3.3591
X8.8882Y-3.4591
X8.8882Y-3.5591
X9.1552Y-9.5
X9.2552Y-9.5
X9.3552Y-9.5
X9.4552Y-9.5
X9.5552Y-9.5
X9.6552Y-9.5
X9.9883Y-2.5839
X9.9883Y-2.6839
X9.9883Y-2.7839
X10.028Y-1.8487
X10.028Y-1.9487
X10.028Y-2.0487
X10.45Y-4.81
X10.55Y-4.81
X10.65Y-4.81
X11.0513Y-1.3231
X11.0513Y-1.4231
X11.0513Y-1.5231
X11.0513Y-1.9731
X11.0513Y-2.0731
X11.0513Y-2.1731
X11.0513Y-2.5937
X11.0513Y-2.6937
X11.0513Y-2.7937
X11.0513Y-3.1741
X11.0513Y-3.2741
X11.0513Y-3.3741
X11.0594Y-6.99
X11.0709Y-3.8625
X11.0709Y-3.9625
X11.0709Y-4.0625
X11.1594Y-6.99
X11.1753Y-8.7
X11.1753Y-8.8
X11.1753Y-8.9
X11.2594Y-6.99
X11.3453Y-8.6994
X11.3453Y-8.7994
X11.3453Y-8.8994
X11.994Y-4.495
X12.094Y-4.495
X12.1536Y-1.3194
X12.1536Y-1.4194
X12.1536Y-1.5194
X12.1536Y-1.9694
X12.1536Y-2.0694
X12.1536Y-2.1694
X12.1536Y-2.5994
X12.1536Y-2.6994
X12.1536Y-2.7994
X12.1536Y-3.1753
X12.1536Y-3.2753
X12.1536Y-3.3753
X12.1536Y-3.8606
X12.1536Y-3.9606
X12.1536Y-4.0606
X12.194Y-4.495
X12.3906Y-8.4
X12.4906Y-8.4
X12.5906Y-8.4
T5
X6.2514Y-5.1721
X6.2514Y-5.2721
X6.2514Y-6.9724
X6.2514Y-7.0724
X6.3514Y-5.1721
X6.3514Y-5.2721
X6.3514Y-6.9724
X6.3514Y-7.0724
X6.4514Y-5.1721
X6.4514Y-5.2721
X6.4514Y-6.9724
X6.4514Y-7.0724
X6.5514Y-5.1721
X6.5514Y-5.2721
X6.5514Y-6.9724
X6.5514Y-7.0724
X6.6514Y-5.1721
X6.6514Y-5.2721
X6.6514Y-6.9724
X6.6514Y-7.0724
X6.7514Y-5.1721
X6.7514Y-5.2721
X6.7514Y-6.9724
X6.7514Y-7.0724
X6.8514Y-5.1721
X6.8514Y-5.2721
X6.8514Y-6.9724
X6.8514Y-7.0724
X6.9514Y-5.1721
X6.9514Y-5.2721
X6.9514Y-6.9724
X6.9514Y-7.0724
X7.0514Y-5.1721
X7.0514Y-5.2721
X7.0514Y-6.9724
X7.0514Y-7.0724
X7.1514Y-5.1721
X7.1514Y-5.2721
X7.1514Y-6.9724
X7.1514Y-7.0724
X7.2514Y-5.1721
X7.2514Y-5.2721
X7.2514Y-6.9724
X7.2514Y-7.0724
X7.3514Y-5.1721
X7.3514Y-5.2721
X7.3514Y-6.9724
X7.3514Y-7.0724
X7.4514Y-5.1721
X7.4514Y-5.2721
X7.4514Y-6.9724
X7.4514Y-7.0724
X7.5514Y-5.1721
X7.5514Y-5.2721
X7.5514Y-6.9724
X7.5514Y-7.0724
X7.6514Y-5.1721
X7.6514Y-5.2721
X7.6514Y-6.9724
X7.6514Y-7.0724
X7.7514Y-6.9724
X7.7514Y-7.0724
X7.8514Y-5.1722
X7.8514Y-5.2722
X7.8514Y-6.9724
X7.8514Y-7.0724
X7.9514Y-5.1722
X7.9514Y-5.2722
X8.0098Y-6.9724
X8.0098Y-7.0724
X8.0514Y-5.1722
X8.0514Y-5.2722
X8.1098Y-6.9724
X8.1098Y-7.0724
X8.1514Y-5.1722
X8.1514Y-5.2722
X8.2098Y-6.9724
X8.2098Y-7.0724
X8.2514Y-5.1722
X8.2514Y-5.2722
X8.3098Y-6.9724
X8.3098Y-7.0724
X8.3514Y-5.1722
X8.3514Y-5.2722
X8.4098Y-6.9724
X8.4098Y-7.0724
X8.4514Y-5.1722
X8.4514Y-5.2722
X8.5098Y-6.9724
X8.5098Y-7.0724
X8.5514Y-5.1722
X8.5514Y-5.2722
X8.6098Y-6.9724
X8.6098Y-7.0724
X8.7098Y-6.9724
X8.7098Y-7.0724
X8.8098Y-6.9724
X8.8098Y-7.0724
X8.9098Y-6.9724
X8.9098Y-7.0724
T6
X11.6871Y-4.808
X11.6871Y-5.683
X12.1871Y-4.808
X12.1871Y-5.058
X12.1871Y-5.183
X12.1871Y-5.308
X12.1871Y-5.683
T7
X11.0484Y-4.535
X11.0484Y-5.16
X11.2984Y-5.16
X11.4234Y-4.535
X11.4234Y-5.16
T8
X10.5199Y-5.0782
X10.5199Y-5.1782
X10.5199Y-5.2782
X12.4305Y-4.8293
X12.5305Y-4.8293
X12.6305Y-4.8293
T9
X1.4063Y-7.2349
X1.4077Y-7.6149
X1.4077Y-7.9949
X1.4097Y-8.3749
X1.6228Y-7.2349
X1.6242Y-7.6149
X1.6242Y-7.9949
X1.6255Y-2.3046
X1.6255Y-2.47
X1.6255Y-2.6354
X1.6255Y-2.9746
X1.6255Y-3.14
X1.6255Y-3.3054
X1.6255Y-3.6446
X1.6255Y-3.81
X1.6255Y-3.9754
X1.6263Y-8.3749
X1.8898Y-9.18
X1.8898Y-9.3965
X1.9188Y-1.2584
X2.0842Y-1.2584
X2.2495Y-1.2584
X2.2698Y-9.18
X2.2698Y-9.3965
X2.2714Y-7.2449
X2.2735Y-7.6249
X2.2735Y-8.0049
X2.2735Y-8.3849
X2.3589Y-3.6546
X2.3589Y-3.82
X2.3589Y-3.9854
X2.36Y-2.3046
X2.36Y-2.47
X2.36Y-2.6354
X2.36Y-2.9746
X2.36Y-3.14
X2.36Y-3.3054
X2.4013Y-6.0995
X2.4013Y-6.2649
X2.4013Y-6.4302
X2.4032Y-4.7609
X2.4032Y-4.9263
X2.4032Y-5.0917
X2.4032Y-5.432
X2.4032Y-5.5973
X2.4032Y-5.7627
X2.488Y-7.2449
X2.49Y-7.6249
X2.49Y-8.0049
X2.49Y-8.3849
X2.5988Y-1.2584
X2.6498Y-9.18
X2.6498Y-9.3965
X2.7642Y-1.2584
X2.9295Y-1.2584
X3.0298Y-9.18
X3.0298Y-9.3965
X3.2861Y-1.2584
X3.4515Y-1.2584
X3.6169Y-1.2584
X3.7822Y-1.2584
X3.8059Y-9.2576
X3.9713Y-9.2576
X4.1361Y-1.2584
X4.1366Y-9.2576
X4.3015Y-1.2584
X4.302Y-9.2576
X4.4669Y-1.2584
X4.6322Y-1.2584
X4.6386Y-9.2587
X4.8039Y-9.2587
X4.9693Y-9.2587
X4.9961Y-1.2584
X5.1346Y-9.2587
X5.1615Y-1.2584
X5.3269Y-1.2584
X5.4659Y-9.2576
X5.4922Y-1.2584
X5.6313Y-9.2576
X5.7966Y-9.2576
X5.962Y-9.2576
X6.3032Y-9.2587
X6.3464Y-1.2443
X6.4686Y-9.2587
X6.5117Y-1.2443
X6.6339Y-9.2587
X6.6771Y-1.2443
X6.7993Y-9.2587
X6.8424Y-1.2443
X7.0078Y-1.2443
X7.3583Y-1.2469
X7.5237Y-1.2469
X7.5989Y-9.1741
X7.5989Y-9.3906
X7.6891Y-1.2469
X7.8544Y-1.2469
X7.9789Y-9.1741
X7.9789Y-9.3906
X8.0198Y-1.2469
X8.3583Y-1.2469
X8.3642Y-9.172
X8.3642Y-9.3886
X8.5237Y-1.2469
X8.6891Y-1.2469
X8.7542Y-9.172
X8.7542Y-9.3886
X8.8544Y-1.2469
X9.0198Y-1.2469
X10.9654Y-9.3626
X11.1654Y-9.3626
X11.5534Y-9.1702
X11.5534Y-9.3867
X12.3435Y-8.82
X12.3438Y-7.96
X12.56Y-8.82
X12.5604Y-7.96
X12.5704Y-7.2
X12.5704Y-7.4
X12.5807Y-6.44
X12.5807Y-6.64
T10
X1.3846Y-4.5496
X1.3846Y-4.715
X1.3846Y-4.8803
X1.3846Y-5.0457
X1.3849Y-5.3493
X1.3849Y-5.5146
X1.3849Y-5.68
X1.3849Y-5.8454
X1.3867Y-6.1396
X1.3867Y-6.305
X1.3867Y-6.4703
X1.3867Y-6.6357
X1.6011Y-4.5496
X1.6011Y-4.715
X1.6011Y-4.8803
X1.6011Y-5.0457
X1.6015Y-5.3493
X1.6015Y-5.5146
X1.6015Y-5.68
X1.6015Y-5.8454
X1.6032Y-6.1396
X1.6032Y-6.305
X1.6032Y-6.4703
X1.6032Y-6.6357
T11
X12.1204Y-5.9951
X12.1204Y-6.8849
T12
X1.72Y-1.79
X1.72Y-2.06
X2.62Y-1.81
X2.62Y-2.05
X2.828Y-3.9118
X2.838Y-2.5618
X2.838Y-3.2318
X3.2Y-6.86
X3.52Y-1.82
X3.52Y-2.04
X3.74Y-5.04
X3.75Y-5.87
X3.75Y-6.69
X3.767Y-4.1596
X3.77Y-2.79
X3.77Y-3.48
X3.85Y-4.33
X3.9Y-5.2
X3.96Y-6.02
X4.13Y-3.15
X4.5Y-1.86
X4.51Y-2.16
X4.7205Y-7.3307
X4.73Y-4.4803
X4.79Y-5.28
X5.0748Y-4.0354
X5.14Y-7.7362
X5.4843Y-4.0354
X5.505Y-1.9
X5.505Y-2.15
X5.64Y-8.02
X6.08Y-4.0394
X6.28Y-8.0199
X6.4499Y-1.9
X6.4499Y-2.14
X6.51Y-4.04
X6.563Y-8.0118
X7.3976Y-4.0394
X7.4245Y-1.88
X7.4245Y-2.12
X8.4079Y-1.86
X8.4079Y-2.1046
X8.82Y-4.02
X8.86Y-8.02
X9.12Y-2.51
X9.64Y-7.65
X9.64Y-8.67
X9.98Y-3.31
X9.98Y-3.5
X9.9883Y-3.8492
X9.9883Y-4.2035
X10.0748Y-1.5202
X10.08Y-1.28
X10.28Y-4.7
X10.31Y-5.53
X10.51Y-6.34
X11.1496Y-7.18
X11.17Y-2.41
X11.21Y-1.8
X11.248Y-7.5787
X11.25Y-1.18
X11.4Y-7.36
X11.794Y-4.4685
X11.8Y-8.83
X12.16Y-1.1
X12.1614Y-7.5827
X12.54Y-4.36
X12.6064Y-2.7824
X12.61Y-2.46
X12.62Y-2.0
X12.62Y-3.29
X12.62Y-4.02
X12.7165Y-6.9173
X12.73Y-9.13
X12.76Y-8.4
T2
G00X10.2879Y-9.3475
M15
G01X10.2879Y-9.3869
M16
G05
G00X10.2879Y-9.5487
M15
G01X10.2879Y-9.6078
M16
G05
G00X10.628Y-9.3475
M15
G01X10.628Y-9.3869
M16
G05
G00X10.628Y-9.5487
M15
G01X10.628Y-9.6078
M16
G05
T0
M30
