%TF.GenerationSoftware,KiCad,Pcbnew,(6.0.10)*%
%TF.CreationDate,2024-08-19T09:22:01-04:00*%
%TF.ProjectId,ExoFlex_Kicad,45786f46-6c65-4785-9f4b-696361642e6b,rev?*%
%TF.SameCoordinates,Original*%
%TF.FileFunction,Drillmap*%
%TF.FilePolarity,Positive*%
%FSLAX45Y45*%
G04 Gerber Fmt 4.5, Leading zero omitted, Abs format (unit mm)*
G04 Created by KiCad (PCBNEW (6.0.10)) date 2024-08-19 09:22:01*
%MOMM*%
%LPD*%
G01*
G04 APERTURE LIST*
%ADD10C,0.150000*%
%ADD11C,0.200000*%
%ADD12C,0.299999*%
%ADD13C,0.430000*%
G04 APERTURE END LIST*
D10*
X2870200Y-2117200D02*
X32870200Y-2117200D01*
X32870200Y-24717200D02*
X2870200Y-24717200D01*
X32870200Y-2117200D02*
X32870200Y-24717200D01*
X2870200Y-24717200D02*
X2870200Y-2117200D01*
D11*
D12*
X3423700Y-6333801D02*
X3723700Y-6633800D01*
X3723700Y-6333801D02*
X3423700Y-6633800D01*
X3423700Y-8035601D02*
X3723700Y-8335600D01*
X3723700Y-8035601D02*
X3423700Y-8335600D01*
X3423700Y-9737401D02*
X3723700Y-10037400D01*
X3723700Y-9737401D02*
X3423700Y-10037400D01*
X4363700Y-5703801D02*
X4663700Y-6003800D01*
X4663700Y-5703801D02*
X4363700Y-6003800D01*
X4363700Y-7405601D02*
X4663700Y-7705600D01*
X4663700Y-7405601D02*
X4363700Y-7705600D01*
X4363700Y-9107401D02*
X4663700Y-9407400D01*
X4663700Y-9107401D02*
X4363700Y-9407400D01*
X4933800Y-2491300D02*
X5233800Y-2791300D01*
X5233800Y-2491300D02*
X4933800Y-2791300D01*
X5286500Y-9762800D02*
X5586500Y-10062800D01*
X5586500Y-9762800D02*
X5286500Y-10062800D01*
X5289400Y-6333801D02*
X5589400Y-6633800D01*
X5589400Y-6333801D02*
X5289400Y-6633800D01*
X5289400Y-8035601D02*
X5589400Y-8335600D01*
X5589400Y-8035601D02*
X5289400Y-8335600D01*
X5394300Y-15972801D02*
X5694300Y-16272800D01*
X5694300Y-15972801D02*
X5394300Y-16272800D01*
X5399100Y-12572801D02*
X5699100Y-12872800D01*
X5699100Y-12572801D02*
X5399100Y-12872800D01*
X5399100Y-14277200D02*
X5699100Y-14577200D01*
X5699100Y-14277200D02*
X5399100Y-14577200D01*
X5563800Y-3431300D02*
X5863800Y-3731300D01*
X5863800Y-3431300D02*
X5563800Y-3731300D01*
X6226500Y-9132800D02*
X6526500Y-9432800D01*
X6526500Y-9132800D02*
X6226500Y-9432800D01*
X6229400Y-5703801D02*
X6529400Y-6003800D01*
X6529400Y-5703801D02*
X6229400Y-6003800D01*
X6229400Y-7405601D02*
X6529400Y-7705600D01*
X6529400Y-7405601D02*
X6229400Y-7705600D01*
X6334300Y-15342801D02*
X6634300Y-15642800D01*
X6634300Y-15342801D02*
X6334300Y-15642800D01*
X6339100Y-11942801D02*
X6639100Y-12242800D01*
X6639100Y-11942801D02*
X6339100Y-12242800D01*
X6339100Y-13647200D02*
X6639100Y-13947200D01*
X6639100Y-13647200D02*
X6339100Y-13947200D01*
X6661000Y-2491300D02*
X6961000Y-2791300D01*
X6961000Y-2491300D02*
X6661000Y-2791300D01*
X7291000Y-3431300D02*
X7591000Y-3731300D01*
X7591000Y-3431300D02*
X7291000Y-3731300D01*
X8406800Y-2491300D02*
X8706800Y-2791300D01*
X8706800Y-2491300D02*
X8406800Y-2791300D01*
X9456798Y-3431300D02*
X9756798Y-3731300D01*
X9756798Y-3431300D02*
X9456798Y-3731300D01*
X9517003Y-22979300D02*
X9817002Y-23279300D01*
X9817002Y-22979300D02*
X9517003Y-23279300D01*
X10565800Y-2491300D02*
X10865800Y-2791300D01*
X10865800Y-2491300D02*
X10565800Y-2791300D01*
X10567000Y-23919300D02*
X10867000Y-24219300D01*
X10867000Y-23919300D02*
X10567000Y-24219300D01*
X11615798Y-3431300D02*
X11915798Y-3731300D01*
X11915798Y-3431300D02*
X11615798Y-3731300D01*
X11632002Y-22982200D02*
X11932002Y-23282200D01*
X11932002Y-22982200D02*
X11632002Y-23282200D01*
X12682000Y-23922200D02*
X12982000Y-24222200D01*
X12982000Y-23922200D02*
X12682000Y-24222200D01*
X12750200Y-2491300D02*
X13050200Y-2791300D01*
X13050200Y-2491300D02*
X12750200Y-2791300D01*
X13733402Y-22979300D02*
X14033402Y-23279300D01*
X14033402Y-22979300D02*
X13733402Y-23279300D01*
X13800198Y-3431300D02*
X14100198Y-3731300D01*
X14100198Y-3431300D02*
X13800198Y-3731300D01*
X14783400Y-23919300D02*
X15083400Y-24219300D01*
X15083400Y-23919300D02*
X14783400Y-24219300D01*
X15860203Y-22982200D02*
X16160202Y-23282200D01*
X16160202Y-22982200D02*
X15860203Y-23282200D01*
X16179800Y-2455500D02*
X16479800Y-2755500D01*
X16479800Y-2455500D02*
X16179800Y-2755500D01*
X16910200Y-23922200D02*
X17210200Y-24222200D01*
X17210200Y-23922200D02*
X16910200Y-24222200D01*
X17649797Y-3395500D02*
X17949797Y-3695500D01*
X17949797Y-3395500D02*
X17649797Y-3695500D01*
X18750200Y-2462200D02*
X19050200Y-2762200D01*
X19050200Y-2462200D02*
X18750200Y-2762200D01*
X20220197Y-3402200D02*
X20520197Y-3702200D01*
X20520197Y-3402200D02*
X20220197Y-3702200D01*
X21290200Y-2462200D02*
X21590200Y-2762200D01*
X21590200Y-2462200D02*
X21290200Y-2762200D01*
X22760197Y-3402200D02*
X23060197Y-3702200D01*
X23060197Y-3402200D02*
X22760197Y-3702200D01*
D13*
X3935200Y-2967200D02*
G75*
G03*
X3935200Y-2967200I-215000J0D01*
G01*
X3935200Y-23867200D02*
G75*
G03*
X3935200Y-23867200I-215000J0D01*
G01*
X6135200Y-11117200D02*
G75*
G03*
X6135200Y-11117200I-215000J0D01*
G01*
X6135200Y-17367200D02*
G75*
G03*
X6135200Y-17367200I-215000J0D01*
G01*
X8935200Y-23867200D02*
G75*
G03*
X8935200Y-23867200I-215000J0D01*
G01*
X15235200Y-2967200D02*
G75*
G03*
X15235200Y-2967200I-215000J0D01*
G01*
X15235200Y-11117200D02*
G75*
G03*
X15235200Y-11117200I-215000J0D01*
G01*
X18485200Y-23867200D02*
G75*
G03*
X18485200Y-23867200I-215000J0D01*
G01*
X22135200Y-11117200D02*
G75*
G03*
X22135200Y-11117200I-215000J0D01*
G01*
X25585200Y-23867200D02*
G75*
G03*
X25585200Y-23867200I-215000J0D01*
G01*
X27285200Y-17367200D02*
G75*
G03*
X27285200Y-17367200I-215000J0D01*
G01*
X32235200Y-2967200D02*
G75*
G03*
X32235200Y-2967200I-215000J0D01*
G01*
X32235200Y-23867200D02*
G75*
G03*
X32235200Y-23867200I-215000J0D01*
G01*
D11*
X3120319Y-25035176D02*
X3120319Y-24835176D01*
X3167938Y-24835176D01*
X3196509Y-24844700D01*
X3215557Y-24863748D01*
X3225081Y-24882795D01*
X3234605Y-24920890D01*
X3234605Y-24949462D01*
X3225081Y-24987557D01*
X3215557Y-25006605D01*
X3196509Y-25025652D01*
X3167938Y-25035176D01*
X3120319Y-25035176D01*
X3320319Y-25035176D02*
X3320319Y-24901843D01*
X3320319Y-24939938D02*
X3329843Y-24920890D01*
X3339367Y-24911367D01*
X3358414Y-24901843D01*
X3377462Y-24901843D01*
X3444128Y-25035176D02*
X3444128Y-24901843D01*
X3444128Y-24835176D02*
X3434605Y-24844700D01*
X3444128Y-24854224D01*
X3453652Y-24844700D01*
X3444128Y-24835176D01*
X3444128Y-24854224D01*
X3567938Y-25035176D02*
X3548890Y-25025652D01*
X3539367Y-25006605D01*
X3539367Y-24835176D01*
X3672700Y-25035176D02*
X3653652Y-25025652D01*
X3644128Y-25006605D01*
X3644128Y-24835176D01*
X3901271Y-25035176D02*
X3901271Y-24835176D01*
X3967938Y-24978033D01*
X4034605Y-24835176D01*
X4034605Y-25035176D01*
X4215557Y-25035176D02*
X4215557Y-24930414D01*
X4206033Y-24911367D01*
X4186986Y-24901843D01*
X4148890Y-24901843D01*
X4129843Y-24911367D01*
X4215557Y-25025652D02*
X4196510Y-25035176D01*
X4148890Y-25035176D01*
X4129843Y-25025652D01*
X4120319Y-25006605D01*
X4120319Y-24987557D01*
X4129843Y-24968509D01*
X4148890Y-24958986D01*
X4196510Y-24958986D01*
X4215557Y-24949462D01*
X4310795Y-24901843D02*
X4310795Y-25101843D01*
X4310795Y-24911367D02*
X4329843Y-24901843D01*
X4367938Y-24901843D01*
X4386986Y-24911367D01*
X4396510Y-24920890D01*
X4406033Y-24939938D01*
X4406033Y-24997081D01*
X4396510Y-25016128D01*
X4386986Y-25025652D01*
X4367938Y-25035176D01*
X4329843Y-25035176D01*
X4310795Y-25025652D01*
X4491748Y-25016128D02*
X4501271Y-25025652D01*
X4491748Y-25035176D01*
X4482224Y-25025652D01*
X4491748Y-25016128D01*
X4491748Y-25035176D01*
X4491748Y-24911367D02*
X4501271Y-24920890D01*
X4491748Y-24930414D01*
X4482224Y-24920890D01*
X4491748Y-24911367D01*
X4491748Y-24930414D01*
X2662700Y-25264700D02*
X2862700Y-25464700D01*
X2862700Y-25264700D02*
X2662700Y-25464700D01*
X3101271Y-25255176D02*
X3225081Y-25255176D01*
X3158414Y-25331367D01*
X3186986Y-25331367D01*
X3206033Y-25340890D01*
X3215557Y-25350414D01*
X3225081Y-25369462D01*
X3225081Y-25417081D01*
X3215557Y-25436128D01*
X3206033Y-25445652D01*
X3186986Y-25455176D01*
X3129843Y-25455176D01*
X3110795Y-25445652D01*
X3101271Y-25436128D01*
X3310795Y-25436128D02*
X3320319Y-25445652D01*
X3310795Y-25455176D01*
X3301271Y-25445652D01*
X3310795Y-25436128D01*
X3310795Y-25455176D01*
X3444128Y-25255176D02*
X3463176Y-25255176D01*
X3482224Y-25264700D01*
X3491748Y-25274224D01*
X3501271Y-25293271D01*
X3510795Y-25331367D01*
X3510795Y-25378986D01*
X3501271Y-25417081D01*
X3491748Y-25436128D01*
X3482224Y-25445652D01*
X3463176Y-25455176D01*
X3444128Y-25455176D01*
X3425081Y-25445652D01*
X3415557Y-25436128D01*
X3406033Y-25417081D01*
X3396509Y-25378986D01*
X3396509Y-25331367D01*
X3406033Y-25293271D01*
X3415557Y-25274224D01*
X3425081Y-25264700D01*
X3444128Y-25255176D01*
X3634605Y-25255176D02*
X3653652Y-25255176D01*
X3672700Y-25264700D01*
X3682224Y-25274224D01*
X3691748Y-25293271D01*
X3701271Y-25331367D01*
X3701271Y-25378986D01*
X3691748Y-25417081D01*
X3682224Y-25436128D01*
X3672700Y-25445652D01*
X3653652Y-25455176D01*
X3634605Y-25455176D01*
X3615557Y-25445652D01*
X3606033Y-25436128D01*
X3596509Y-25417081D01*
X3586986Y-25378986D01*
X3586986Y-25331367D01*
X3596509Y-25293271D01*
X3606033Y-25274224D01*
X3615557Y-25264700D01*
X3634605Y-25255176D01*
X3825081Y-25255176D02*
X3844128Y-25255176D01*
X3863176Y-25264700D01*
X3872700Y-25274224D01*
X3882224Y-25293271D01*
X3891748Y-25331367D01*
X3891748Y-25378986D01*
X3882224Y-25417081D01*
X3872700Y-25436128D01*
X3863176Y-25445652D01*
X3844128Y-25455176D01*
X3825081Y-25455176D01*
X3806033Y-25445652D01*
X3796509Y-25436128D01*
X3786986Y-25417081D01*
X3777462Y-25378986D01*
X3777462Y-25331367D01*
X3786986Y-25293271D01*
X3796509Y-25274224D01*
X3806033Y-25264700D01*
X3825081Y-25255176D01*
X3977462Y-25455176D02*
X3977462Y-25321843D01*
X3977462Y-25340890D02*
X3986986Y-25331367D01*
X4006033Y-25321843D01*
X4034605Y-25321843D01*
X4053652Y-25331367D01*
X4063176Y-25350414D01*
X4063176Y-25455176D01*
X4063176Y-25350414D02*
X4072700Y-25331367D01*
X4091748Y-25321843D01*
X4120319Y-25321843D01*
X4139367Y-25331367D01*
X4148890Y-25350414D01*
X4148890Y-25455176D01*
X4244129Y-25455176D02*
X4244129Y-25321843D01*
X4244129Y-25340890D02*
X4253652Y-25331367D01*
X4272700Y-25321843D01*
X4301271Y-25321843D01*
X4320319Y-25331367D01*
X4329843Y-25350414D01*
X4329843Y-25455176D01*
X4329843Y-25350414D02*
X4339367Y-25331367D01*
X4358414Y-25321843D01*
X4386986Y-25321843D01*
X4406033Y-25331367D01*
X4415557Y-25350414D01*
X4415557Y-25455176D01*
X4806033Y-25245652D02*
X4634605Y-25502795D01*
X5063176Y-25255176D02*
X5082224Y-25255176D01*
X5101271Y-25264700D01*
X5110795Y-25274224D01*
X5120319Y-25293271D01*
X5129843Y-25331367D01*
X5129843Y-25378986D01*
X5120319Y-25417081D01*
X5110795Y-25436128D01*
X5101271Y-25445652D01*
X5082224Y-25455176D01*
X5063176Y-25455176D01*
X5044129Y-25445652D01*
X5034605Y-25436128D01*
X5025081Y-25417081D01*
X5015557Y-25378986D01*
X5015557Y-25331367D01*
X5025081Y-25293271D01*
X5034605Y-25274224D01*
X5044129Y-25264700D01*
X5063176Y-25255176D01*
X5215557Y-25436128D02*
X5225081Y-25445652D01*
X5215557Y-25455176D01*
X5206033Y-25445652D01*
X5215557Y-25436128D01*
X5215557Y-25455176D01*
X5415557Y-25455176D02*
X5301271Y-25455176D01*
X5358414Y-25455176D02*
X5358414Y-25255176D01*
X5339367Y-25283748D01*
X5320319Y-25302795D01*
X5301271Y-25312319D01*
X5606033Y-25455176D02*
X5491748Y-25455176D01*
X5548890Y-25455176D02*
X5548890Y-25255176D01*
X5529843Y-25283748D01*
X5510795Y-25302795D01*
X5491748Y-25312319D01*
X5720319Y-25340890D02*
X5701271Y-25331367D01*
X5691748Y-25321843D01*
X5682224Y-25302795D01*
X5682224Y-25293271D01*
X5691748Y-25274224D01*
X5701271Y-25264700D01*
X5720319Y-25255176D01*
X5758414Y-25255176D01*
X5777462Y-25264700D01*
X5786986Y-25274224D01*
X5796509Y-25293271D01*
X5796509Y-25302795D01*
X5786986Y-25321843D01*
X5777462Y-25331367D01*
X5758414Y-25340890D01*
X5720319Y-25340890D01*
X5701271Y-25350414D01*
X5691748Y-25359938D01*
X5682224Y-25378986D01*
X5682224Y-25417081D01*
X5691748Y-25436128D01*
X5701271Y-25445652D01*
X5720319Y-25455176D01*
X5758414Y-25455176D01*
X5777462Y-25445652D01*
X5786986Y-25436128D01*
X5796509Y-25417081D01*
X5796509Y-25378986D01*
X5786986Y-25359938D01*
X5777462Y-25350414D01*
X5758414Y-25340890D01*
X5986986Y-25455176D02*
X5872700Y-25455176D01*
X5929843Y-25455176D02*
X5929843Y-25255176D01*
X5910795Y-25283748D01*
X5891748Y-25302795D01*
X5872700Y-25312319D01*
X6063176Y-25255176D02*
X6063176Y-25293271D01*
X6139367Y-25255176D02*
X6139367Y-25293271D01*
X6434605Y-25531367D02*
X6425081Y-25521843D01*
X6406033Y-25493271D01*
X6396509Y-25474224D01*
X6386986Y-25445652D01*
X6377462Y-25398033D01*
X6377462Y-25359938D01*
X6386986Y-25312319D01*
X6396509Y-25283748D01*
X6406033Y-25264700D01*
X6425081Y-25236128D01*
X6434605Y-25226605D01*
X6596509Y-25321843D02*
X6596509Y-25455176D01*
X6548890Y-25245652D02*
X6501271Y-25388509D01*
X6625081Y-25388509D01*
X6691748Y-25274224D02*
X6701271Y-25264700D01*
X6720319Y-25255176D01*
X6767938Y-25255176D01*
X6786986Y-25264700D01*
X6796509Y-25274224D01*
X6806033Y-25293271D01*
X6806033Y-25312319D01*
X6796509Y-25340890D01*
X6682224Y-25455176D01*
X6806033Y-25455176D01*
X7044128Y-25455176D02*
X7044128Y-25255176D01*
X7129843Y-25455176D02*
X7129843Y-25350414D01*
X7120319Y-25331367D01*
X7101271Y-25321843D01*
X7072700Y-25321843D01*
X7053652Y-25331367D01*
X7044128Y-25340890D01*
X7253652Y-25455176D02*
X7234605Y-25445652D01*
X7225081Y-25436128D01*
X7215557Y-25417081D01*
X7215557Y-25359938D01*
X7225081Y-25340890D01*
X7234605Y-25331367D01*
X7253652Y-25321843D01*
X7282224Y-25321843D01*
X7301271Y-25331367D01*
X7310795Y-25340890D01*
X7320319Y-25359938D01*
X7320319Y-25417081D01*
X7310795Y-25436128D01*
X7301271Y-25445652D01*
X7282224Y-25455176D01*
X7253652Y-25455176D01*
X7434605Y-25455176D02*
X7415557Y-25445652D01*
X7406033Y-25426605D01*
X7406033Y-25255176D01*
X7586986Y-25445652D02*
X7567938Y-25455176D01*
X7529843Y-25455176D01*
X7510795Y-25445652D01*
X7501271Y-25426605D01*
X7501271Y-25350414D01*
X7510795Y-25331367D01*
X7529843Y-25321843D01*
X7567938Y-25321843D01*
X7586986Y-25331367D01*
X7596509Y-25350414D01*
X7596509Y-25369462D01*
X7501271Y-25388509D01*
X7672700Y-25445652D02*
X7691748Y-25455176D01*
X7729843Y-25455176D01*
X7748890Y-25445652D01*
X7758414Y-25426605D01*
X7758414Y-25417081D01*
X7748890Y-25398033D01*
X7729843Y-25388509D01*
X7701271Y-25388509D01*
X7682224Y-25378986D01*
X7672700Y-25359938D01*
X7672700Y-25350414D01*
X7682224Y-25331367D01*
X7701271Y-25321843D01*
X7729843Y-25321843D01*
X7748890Y-25331367D01*
X7825081Y-25531367D02*
X7834605Y-25521843D01*
X7853652Y-25493271D01*
X7863176Y-25474224D01*
X7872700Y-25445652D01*
X7882224Y-25398033D01*
X7882224Y-25359938D01*
X7872700Y-25312319D01*
X7863176Y-25283748D01*
X7853652Y-25264700D01*
X7834605Y-25236128D01*
X7825081Y-25226605D01*
X8186986Y-25531367D02*
X8177462Y-25521843D01*
X8158414Y-25493271D01*
X8148890Y-25474224D01*
X8139367Y-25445652D01*
X8129843Y-25398033D01*
X8129843Y-25359938D01*
X8139367Y-25312319D01*
X8148890Y-25283748D01*
X8158414Y-25264700D01*
X8177462Y-25236128D01*
X8186986Y-25226605D01*
X8263176Y-25321843D02*
X8263176Y-25455176D01*
X8263176Y-25340890D02*
X8272700Y-25331367D01*
X8291748Y-25321843D01*
X8320319Y-25321843D01*
X8339367Y-25331367D01*
X8348890Y-25350414D01*
X8348890Y-25455176D01*
X8472700Y-25455176D02*
X8453652Y-25445652D01*
X8444129Y-25436128D01*
X8434605Y-25417081D01*
X8434605Y-25359938D01*
X8444129Y-25340890D01*
X8453652Y-25331367D01*
X8472700Y-25321843D01*
X8501271Y-25321843D01*
X8520319Y-25331367D01*
X8529843Y-25340890D01*
X8539367Y-25359938D01*
X8539367Y-25417081D01*
X8529843Y-25436128D01*
X8520319Y-25445652D01*
X8501271Y-25455176D01*
X8472700Y-25455176D01*
X8596510Y-25321843D02*
X8672700Y-25321843D01*
X8625081Y-25255176D02*
X8625081Y-25426605D01*
X8634605Y-25445652D01*
X8653652Y-25455176D01*
X8672700Y-25455176D01*
X8891748Y-25321843D02*
X8891748Y-25521843D01*
X8891748Y-25331367D02*
X8910795Y-25321843D01*
X8948890Y-25321843D01*
X8967938Y-25331367D01*
X8977462Y-25340890D01*
X8986986Y-25359938D01*
X8986986Y-25417081D01*
X8977462Y-25436128D01*
X8967938Y-25445652D01*
X8948890Y-25455176D01*
X8910795Y-25455176D01*
X8891748Y-25445652D01*
X9101271Y-25455176D02*
X9082224Y-25445652D01*
X9072700Y-25426605D01*
X9072700Y-25255176D01*
X9263176Y-25455176D02*
X9263176Y-25350414D01*
X9253652Y-25331367D01*
X9234605Y-25321843D01*
X9196510Y-25321843D01*
X9177462Y-25331367D01*
X9263176Y-25445652D02*
X9244129Y-25455176D01*
X9196510Y-25455176D01*
X9177462Y-25445652D01*
X9167938Y-25426605D01*
X9167938Y-25407557D01*
X9177462Y-25388509D01*
X9196510Y-25378986D01*
X9244129Y-25378986D01*
X9263176Y-25369462D01*
X9329843Y-25321843D02*
X9406033Y-25321843D01*
X9358414Y-25255176D02*
X9358414Y-25426605D01*
X9367938Y-25445652D01*
X9386986Y-25455176D01*
X9406033Y-25455176D01*
X9548890Y-25445652D02*
X9529843Y-25455176D01*
X9491748Y-25455176D01*
X9472700Y-25445652D01*
X9463176Y-25426605D01*
X9463176Y-25350414D01*
X9472700Y-25331367D01*
X9491748Y-25321843D01*
X9529843Y-25321843D01*
X9548890Y-25331367D01*
X9558414Y-25350414D01*
X9558414Y-25369462D01*
X9463176Y-25388509D01*
X9729843Y-25455176D02*
X9729843Y-25255176D01*
X9729843Y-25445652D02*
X9710795Y-25455176D01*
X9672700Y-25455176D01*
X9653652Y-25445652D01*
X9644129Y-25436128D01*
X9634605Y-25417081D01*
X9634605Y-25359938D01*
X9644129Y-25340890D01*
X9653652Y-25331367D01*
X9672700Y-25321843D01*
X9710795Y-25321843D01*
X9729843Y-25331367D01*
X9806033Y-25531367D02*
X9815557Y-25521843D01*
X9834605Y-25493271D01*
X9844129Y-25474224D01*
X9853652Y-25445652D01*
X9863176Y-25398033D01*
X9863176Y-25359938D01*
X9853652Y-25312319D01*
X9844129Y-25283748D01*
X9834605Y-25264700D01*
X9815557Y-25236128D01*
X9806033Y-25226605D01*
X2862700Y-25684700D02*
G75*
G03*
X2862700Y-25684700I-100000J0D01*
G01*
X3206033Y-25641843D02*
X3206033Y-25775176D01*
X3158414Y-25565652D02*
X3110795Y-25708509D01*
X3234605Y-25708509D01*
X3310795Y-25756128D02*
X3320319Y-25765652D01*
X3310795Y-25775176D01*
X3301271Y-25765652D01*
X3310795Y-25756128D01*
X3310795Y-25775176D01*
X3386986Y-25575176D02*
X3510795Y-25575176D01*
X3444128Y-25651367D01*
X3472700Y-25651367D01*
X3491748Y-25660890D01*
X3501271Y-25670414D01*
X3510795Y-25689462D01*
X3510795Y-25737081D01*
X3501271Y-25756128D01*
X3491748Y-25765652D01*
X3472700Y-25775176D01*
X3415557Y-25775176D01*
X3396509Y-25765652D01*
X3386986Y-25756128D01*
X3634605Y-25575176D02*
X3653652Y-25575176D01*
X3672700Y-25584700D01*
X3682224Y-25594224D01*
X3691748Y-25613271D01*
X3701271Y-25651367D01*
X3701271Y-25698986D01*
X3691748Y-25737081D01*
X3682224Y-25756128D01*
X3672700Y-25765652D01*
X3653652Y-25775176D01*
X3634605Y-25775176D01*
X3615557Y-25765652D01*
X3606033Y-25756128D01*
X3596509Y-25737081D01*
X3586986Y-25698986D01*
X3586986Y-25651367D01*
X3596509Y-25613271D01*
X3606033Y-25594224D01*
X3615557Y-25584700D01*
X3634605Y-25575176D01*
X3825081Y-25575176D02*
X3844128Y-25575176D01*
X3863176Y-25584700D01*
X3872700Y-25594224D01*
X3882224Y-25613271D01*
X3891748Y-25651367D01*
X3891748Y-25698986D01*
X3882224Y-25737081D01*
X3872700Y-25756128D01*
X3863176Y-25765652D01*
X3844128Y-25775176D01*
X3825081Y-25775176D01*
X3806033Y-25765652D01*
X3796509Y-25756128D01*
X3786986Y-25737081D01*
X3777462Y-25698986D01*
X3777462Y-25651367D01*
X3786986Y-25613271D01*
X3796509Y-25594224D01*
X3806033Y-25584700D01*
X3825081Y-25575176D01*
X3977462Y-25775176D02*
X3977462Y-25641843D01*
X3977462Y-25660890D02*
X3986986Y-25651367D01*
X4006033Y-25641843D01*
X4034605Y-25641843D01*
X4053652Y-25651367D01*
X4063176Y-25670414D01*
X4063176Y-25775176D01*
X4063176Y-25670414D02*
X4072700Y-25651367D01*
X4091748Y-25641843D01*
X4120319Y-25641843D01*
X4139367Y-25651367D01*
X4148890Y-25670414D01*
X4148890Y-25775176D01*
X4244129Y-25775176D02*
X4244129Y-25641843D01*
X4244129Y-25660890D02*
X4253652Y-25651367D01*
X4272700Y-25641843D01*
X4301271Y-25641843D01*
X4320319Y-25651367D01*
X4329843Y-25670414D01*
X4329843Y-25775176D01*
X4329843Y-25670414D02*
X4339367Y-25651367D01*
X4358414Y-25641843D01*
X4386986Y-25641843D01*
X4406033Y-25651367D01*
X4415557Y-25670414D01*
X4415557Y-25775176D01*
X4806033Y-25565652D02*
X4634605Y-25822795D01*
X5063176Y-25575176D02*
X5082224Y-25575176D01*
X5101271Y-25584700D01*
X5110795Y-25594224D01*
X5120319Y-25613271D01*
X5129843Y-25651367D01*
X5129843Y-25698986D01*
X5120319Y-25737081D01*
X5110795Y-25756128D01*
X5101271Y-25765652D01*
X5082224Y-25775176D01*
X5063176Y-25775176D01*
X5044129Y-25765652D01*
X5034605Y-25756128D01*
X5025081Y-25737081D01*
X5015557Y-25698986D01*
X5015557Y-25651367D01*
X5025081Y-25613271D01*
X5034605Y-25594224D01*
X5044129Y-25584700D01*
X5063176Y-25575176D01*
X5215557Y-25756128D02*
X5225081Y-25765652D01*
X5215557Y-25775176D01*
X5206033Y-25765652D01*
X5215557Y-25756128D01*
X5215557Y-25775176D01*
X5415557Y-25775176D02*
X5301271Y-25775176D01*
X5358414Y-25775176D02*
X5358414Y-25575176D01*
X5339367Y-25603748D01*
X5320319Y-25622795D01*
X5301271Y-25632319D01*
X5586986Y-25575176D02*
X5548890Y-25575176D01*
X5529843Y-25584700D01*
X5520319Y-25594224D01*
X5501271Y-25622795D01*
X5491748Y-25660890D01*
X5491748Y-25737081D01*
X5501271Y-25756128D01*
X5510795Y-25765652D01*
X5529843Y-25775176D01*
X5567938Y-25775176D01*
X5586986Y-25765652D01*
X5596509Y-25756128D01*
X5606033Y-25737081D01*
X5606033Y-25689462D01*
X5596509Y-25670414D01*
X5586986Y-25660890D01*
X5567938Y-25651367D01*
X5529843Y-25651367D01*
X5510795Y-25660890D01*
X5501271Y-25670414D01*
X5491748Y-25689462D01*
X5701271Y-25775176D02*
X5739367Y-25775176D01*
X5758414Y-25765652D01*
X5767938Y-25756128D01*
X5786986Y-25727557D01*
X5796509Y-25689462D01*
X5796509Y-25613271D01*
X5786986Y-25594224D01*
X5777462Y-25584700D01*
X5758414Y-25575176D01*
X5720319Y-25575176D01*
X5701271Y-25584700D01*
X5691748Y-25594224D01*
X5682224Y-25613271D01*
X5682224Y-25660890D01*
X5691748Y-25679938D01*
X5701271Y-25689462D01*
X5720319Y-25698986D01*
X5758414Y-25698986D01*
X5777462Y-25689462D01*
X5786986Y-25679938D01*
X5796509Y-25660890D01*
X5863176Y-25575176D02*
X5986986Y-25575176D01*
X5920319Y-25651367D01*
X5948890Y-25651367D01*
X5967938Y-25660890D01*
X5977462Y-25670414D01*
X5986986Y-25689462D01*
X5986986Y-25737081D01*
X5977462Y-25756128D01*
X5967938Y-25765652D01*
X5948890Y-25775176D01*
X5891748Y-25775176D01*
X5872700Y-25765652D01*
X5863176Y-25756128D01*
X6063176Y-25575176D02*
X6063176Y-25613271D01*
X6139367Y-25575176D02*
X6139367Y-25613271D01*
X6434605Y-25851367D02*
X6425081Y-25841843D01*
X6406033Y-25813271D01*
X6396509Y-25794224D01*
X6386986Y-25765652D01*
X6377462Y-25718033D01*
X6377462Y-25679938D01*
X6386986Y-25632319D01*
X6396509Y-25603748D01*
X6406033Y-25584700D01*
X6425081Y-25556128D01*
X6434605Y-25546605D01*
X6615557Y-25775176D02*
X6501271Y-25775176D01*
X6558414Y-25775176D02*
X6558414Y-25575176D01*
X6539367Y-25603748D01*
X6520319Y-25622795D01*
X6501271Y-25632319D01*
X6682224Y-25575176D02*
X6806033Y-25575176D01*
X6739367Y-25651367D01*
X6767938Y-25651367D01*
X6786986Y-25660890D01*
X6796509Y-25670414D01*
X6806033Y-25689462D01*
X6806033Y-25737081D01*
X6796509Y-25756128D01*
X6786986Y-25765652D01*
X6767938Y-25775176D01*
X6710795Y-25775176D01*
X6691748Y-25765652D01*
X6682224Y-25756128D01*
X7044128Y-25775176D02*
X7044128Y-25575176D01*
X7129843Y-25775176D02*
X7129843Y-25670414D01*
X7120319Y-25651367D01*
X7101271Y-25641843D01*
X7072700Y-25641843D01*
X7053652Y-25651367D01*
X7044128Y-25660890D01*
X7253652Y-25775176D02*
X7234605Y-25765652D01*
X7225081Y-25756128D01*
X7215557Y-25737081D01*
X7215557Y-25679938D01*
X7225081Y-25660890D01*
X7234605Y-25651367D01*
X7253652Y-25641843D01*
X7282224Y-25641843D01*
X7301271Y-25651367D01*
X7310795Y-25660890D01*
X7320319Y-25679938D01*
X7320319Y-25737081D01*
X7310795Y-25756128D01*
X7301271Y-25765652D01*
X7282224Y-25775176D01*
X7253652Y-25775176D01*
X7434605Y-25775176D02*
X7415557Y-25765652D01*
X7406033Y-25746605D01*
X7406033Y-25575176D01*
X7586986Y-25765652D02*
X7567938Y-25775176D01*
X7529843Y-25775176D01*
X7510795Y-25765652D01*
X7501271Y-25746605D01*
X7501271Y-25670414D01*
X7510795Y-25651367D01*
X7529843Y-25641843D01*
X7567938Y-25641843D01*
X7586986Y-25651367D01*
X7596509Y-25670414D01*
X7596509Y-25689462D01*
X7501271Y-25708509D01*
X7672700Y-25765652D02*
X7691748Y-25775176D01*
X7729843Y-25775176D01*
X7748890Y-25765652D01*
X7758414Y-25746605D01*
X7758414Y-25737081D01*
X7748890Y-25718033D01*
X7729843Y-25708509D01*
X7701271Y-25708509D01*
X7682224Y-25698986D01*
X7672700Y-25679938D01*
X7672700Y-25670414D01*
X7682224Y-25651367D01*
X7701271Y-25641843D01*
X7729843Y-25641843D01*
X7748890Y-25651367D01*
X7825081Y-25851367D02*
X7834605Y-25841843D01*
X7853652Y-25813271D01*
X7863176Y-25794224D01*
X7872700Y-25765652D01*
X7882224Y-25718033D01*
X7882224Y-25679938D01*
X7872700Y-25632319D01*
X7863176Y-25603748D01*
X7853652Y-25584700D01*
X7834605Y-25556128D01*
X7825081Y-25546605D01*
X8186986Y-25851367D02*
X8177462Y-25841843D01*
X8158414Y-25813271D01*
X8148890Y-25794224D01*
X8139367Y-25765652D01*
X8129843Y-25718033D01*
X8129843Y-25679938D01*
X8139367Y-25632319D01*
X8148890Y-25603748D01*
X8158414Y-25584700D01*
X8177462Y-25556128D01*
X8186986Y-25546605D01*
X8263176Y-25641843D02*
X8263176Y-25775176D01*
X8263176Y-25660890D02*
X8272700Y-25651367D01*
X8291748Y-25641843D01*
X8320319Y-25641843D01*
X8339367Y-25651367D01*
X8348890Y-25670414D01*
X8348890Y-25775176D01*
X8472700Y-25775176D02*
X8453652Y-25765652D01*
X8444129Y-25756128D01*
X8434605Y-25737081D01*
X8434605Y-25679938D01*
X8444129Y-25660890D01*
X8453652Y-25651367D01*
X8472700Y-25641843D01*
X8501271Y-25641843D01*
X8520319Y-25651367D01*
X8529843Y-25660890D01*
X8539367Y-25679938D01*
X8539367Y-25737081D01*
X8529843Y-25756128D01*
X8520319Y-25765652D01*
X8501271Y-25775176D01*
X8472700Y-25775176D01*
X8596510Y-25641843D02*
X8672700Y-25641843D01*
X8625081Y-25575176D02*
X8625081Y-25746605D01*
X8634605Y-25765652D01*
X8653652Y-25775176D01*
X8672700Y-25775176D01*
X8891748Y-25641843D02*
X8891748Y-25841843D01*
X8891748Y-25651367D02*
X8910795Y-25641843D01*
X8948890Y-25641843D01*
X8967938Y-25651367D01*
X8977462Y-25660890D01*
X8986986Y-25679938D01*
X8986986Y-25737081D01*
X8977462Y-25756128D01*
X8967938Y-25765652D01*
X8948890Y-25775176D01*
X8910795Y-25775176D01*
X8891748Y-25765652D01*
X9101271Y-25775176D02*
X9082224Y-25765652D01*
X9072700Y-25746605D01*
X9072700Y-25575176D01*
X9263176Y-25775176D02*
X9263176Y-25670414D01*
X9253652Y-25651367D01*
X9234605Y-25641843D01*
X9196510Y-25641843D01*
X9177462Y-25651367D01*
X9263176Y-25765652D02*
X9244129Y-25775176D01*
X9196510Y-25775176D01*
X9177462Y-25765652D01*
X9167938Y-25746605D01*
X9167938Y-25727557D01*
X9177462Y-25708509D01*
X9196510Y-25698986D01*
X9244129Y-25698986D01*
X9263176Y-25689462D01*
X9329843Y-25641843D02*
X9406033Y-25641843D01*
X9358414Y-25575176D02*
X9358414Y-25746605D01*
X9367938Y-25765652D01*
X9386986Y-25775176D01*
X9406033Y-25775176D01*
X9548890Y-25765652D02*
X9529843Y-25775176D01*
X9491748Y-25775176D01*
X9472700Y-25765652D01*
X9463176Y-25746605D01*
X9463176Y-25670414D01*
X9472700Y-25651367D01*
X9491748Y-25641843D01*
X9529843Y-25641843D01*
X9548890Y-25651367D01*
X9558414Y-25670414D01*
X9558414Y-25689462D01*
X9463176Y-25708509D01*
X9729843Y-25775176D02*
X9729843Y-25575176D01*
X9729843Y-25765652D02*
X9710795Y-25775176D01*
X9672700Y-25775176D01*
X9653652Y-25765652D01*
X9644129Y-25756128D01*
X9634605Y-25737081D01*
X9634605Y-25679938D01*
X9644129Y-25660890D01*
X9653652Y-25651367D01*
X9672700Y-25641843D01*
X9710795Y-25641843D01*
X9729843Y-25651367D01*
X9806033Y-25851367D02*
X9815557Y-25841843D01*
X9834605Y-25813271D01*
X9844129Y-25794224D01*
X9853652Y-25765652D01*
X9863176Y-25718033D01*
X9863176Y-25679938D01*
X9853652Y-25632319D01*
X9844129Y-25603748D01*
X9834605Y-25584700D01*
X9815557Y-25556128D01*
X9806033Y-25546605D01*
M02*
